<svg width="60" height="57" viewBox="0 0 60 57" fill="none" xmlns="http://www.w3.org/2000/svg">
  <path fill-rule="evenodd" clip-rule="evenodd"
        d="M37.258 23.7998C38.5673 25.6351 39.2781 27.8637 39.2594 30.111C39.2594 32.3209 38.5486 34.5308 37.258 36.3286L39.9889 38.4074C41.7285 36.0103 42.6824 33.0887 42.6824 30.1298C42.7011 27.0022 41.6723 23.9309 39.7832 21.4588L38.217 22.8706L37.258 23.7998Z"
        fill="#02E2AC" />
  <path fill-rule="evenodd" clip-rule="evenodd"
        d="M42.4206 40.2486L33.2365 33.2632C33.8912 32.4017 34.2653 31.353 34.3214 30.2668C34.3588 29.1806 34.0782 28.1131 33.4984 27.1954L37.894 23.2252L42.4954 18.9178C42.7947 18.6369 42.8134 18.1499 42.5141 17.8503L41.8781 17.2136C38.6048 13.8988 34.1905 11.9698 29.5517 11.82L29.5704 9.29173C29.5891 9.12318 29.5704 8.95464 29.533 8.78609C29.4768 8.61754 29.402 8.46772 29.2898 8.33662C29.1776 8.20553 29.0466 8.11189 28.8783 8.03698C28.7286 7.96207 28.5603 7.92461 28.392 7.92461C28.2236 7.92461 28.0553 7.96207 27.9056 8.03698C27.756 8.11189 27.6064 8.20553 27.4941 8.33662C27.3819 8.46772 27.2884 8.61754 27.251 8.76736C27.1949 8.93591 27.1762 9.10446 27.2136 9.27301L27.1949 11.8762C26.0913 11.9885 24.9877 12.1945 23.9215 12.5129L23.9402 9.27301C23.9589 9.10446 23.9402 8.93591 23.9028 8.76736C23.8467 8.59881 23.7719 8.44899 23.6596 8.31789C23.5474 8.1868 23.4165 8.09316 23.2481 8.01825C23.0985 7.94334 22.9302 7.90588 22.7618 7.90588C22.5935 7.90588 22.4251 7.94334 22.2755 8.01825C22.1259 8.09316 21.9762 8.1868 21.864 8.31789C21.7518 8.44899 21.6582 8.59881 21.6208 8.74863C21.5647 8.91718 21.546 9.08573 21.5834 9.25428L21.5273 13.3931C17.7489 15.0786 14.6439 18.0188 12.7547 21.7082C10.8656 25.3976 10.267 29.63 11.09 33.6939C11.913 37.7579 14.1015 41.4285 17.2813 44.0878C20.4611 46.7472 24.464 48.2454 28.5977 48.3203L41.9717 48.3765C42.3832 48.3765 42.7198 48.0394 42.7198 47.6274V40.8667C42.7198 40.6232 42.6076 40.3985 42.4206 40.2486ZM28.8596 45.0617C25.5675 45.0429 22.369 43.938 19.769 41.9341C17.1691 39.9115 15.2986 37.0837 14.4569 33.9C13.6152 30.7162 13.8583 27.3265 15.1116 24.2926C16.3835 21.2587 18.6093 18.7118 21.4712 17.0637L21.4525 21.9891C21.4338 22.1577 21.4525 22.3262 21.4899 22.4948C21.546 22.6633 21.6208 22.8131 21.7331 22.9442C21.8453 23.0753 21.9762 23.169 22.1446 23.2439C22.2942 23.3188 22.4625 23.3562 22.6309 23.3562C22.7992 23.3562 22.9676 23.3188 23.1172 23.2439C23.2668 23.169 23.4165 23.0753 23.5287 22.9442C23.6409 22.8131 23.7345 22.6633 23.7719 22.5135C23.828 22.3449 23.8467 22.1764 23.8093 22.0079L23.828 15.9588C25.474 15.3595 27.2136 15.0786 28.9718 15.0786C32.2077 15.0786 35.3502 16.1461 37.9127 18.0938C38.0998 18.2436 38.1185 18.5058 37.9501 18.6743L30.9545 25.0979C30.3186 24.8357 29.6265 24.6859 28.9344 24.6859C28.1675 24.6859 27.4006 24.8357 26.6898 25.1541C25.979 25.4725 25.3618 25.9407 24.8568 26.5212C24.3517 27.1018 23.9776 27.7947 23.7532 28.5251C23.5287 29.2742 23.4726 30.042 23.5848 30.8099C23.6971 31.5777 23.9589 32.3081 24.3704 32.9636C24.7819 33.619 25.3431 34.1621 25.979 34.5929C26.6337 35.0049 27.3632 35.2858 28.1301 35.3982C28.897 35.5105 29.6826 35.4543 30.4121 35.2296L39.353 42.0278C39.4465 42.1027 39.5026 42.2151 39.5026 42.3274L39.4839 44.7246C39.4839 44.9306 39.3156 45.0991 39.1098 45.0991L28.8596 45.0617ZM31.048 30.0795C31.048 30.4915 30.9171 30.9035 30.6927 31.2593C30.4495 31.6152 30.1315 31.8774 29.7387 32.0459C29.3459 32.2145 28.9157 32.2519 28.5229 32.1583C28.1301 32.0646 27.7373 31.8774 27.438 31.5777C27.1387 31.2781 26.933 30.9035 26.8582 30.4915C26.7833 30.0795 26.8208 29.6488 26.9891 29.2742C27.1574 28.8809 27.4193 28.5625 27.7747 28.3191C28.1301 28.0944 28.5416 27.9633 28.9531 27.9633C29.5143 27.9633 30.0567 28.188 30.4495 28.6C30.8236 28.9746 31.048 29.4989 31.048 30.0795Z"
        fill="#0E0333" />
</svg>