<svg viewBox="0 0 277.18 55.87" xmlns="http://www.w3.org/2000/svg">
  <path d="m23 2 4.69-1.85a2.44 2.44 0 0 1 3.14 1.46l.37 1 13 35.81a2.45 2.45 0 0 1 -1.46 3.13l-4.68 1.81a2.44 2.44 0 0 1 -3.14-1.46l-.37-1-13-35.81a2.45 2.45 0 0 1 1.45-3.09z"
        fill="#fff" fill-rule="evenodd" />
  <path d="m1.61 2 4.68-1.85a2.45 2.45 0 0 1 3.14 1.46l.37 1 13 35.81a2.44 2.44 0 0 1 -1.46 3.13l-4.68 1.81a2.45 2.45 0 0 1 -3.14-1.46l-.37-1-13-35.81a2.44 2.44 0 0 1 1.46-3.09z"
        fill="#fff" fill-rule="evenodd" />
  <path d="m55.36.21a5.86 5.86 0 0 0 -5.88 5.84 5.86 5.86 0 0 0 11.72 0 5.86 5.86 0 0 0 -5.84-5.84z" fill="#ec363d" />
  <g fill="#fff">
    <rect height="25.77" rx="1.33" width="9.17" x="50.75" y="16.96" />
    <path
          d="m91.93 19.73a9.2 9.2 0 0 0 -3.26-2.46 11.23 11.23 0 0 0 -4.67-.88 11.78 11.78 0 0 0 -4.47.78 9.9 9.9 0 0 0 -3.74 3l-.46.57v-2.44a1.34 1.34 0 0 0 -1.33-1.3h-5.92a1.47 1.47 0 0 0 -1.48 1.47v23a1.34 1.34 0 0 0 1.34 1.34h6.06a1.34 1.34 0 0 0 1.34-1.34v-12.47a6.13 6.13 0 0 1 1.32-4.2 4.88 4.88 0 0 1 3.81-1.5 5.34 5.34 0 0 1 1.72.27 3.88 3.88 0 0 1 1.49.94 4.2 4.2 0 0 1 1.07 2.05 14.64 14.64 0 0 1 .29 3.21v11.63a1.34 1.34 0 0 0 1.34 1.34h6.08a1.34 1.34 0 0 0 1.34-1.34v-15.12a15.71 15.71 0 0 0 -.4-3.68 7 7 0 0 0 -1.47-2.87z" />
    <path
          d="m131.47 17h-12l-10.06 9.8v-25.69a.41.41 0 0 0 -.41-.41h-7.94a.41.41 0 0 0 -.41.41v41.22a.41.41 0 0 0 .41.41h7.94a.41.41 0 0 0 .41-.41v-10.7l10.59 11.11h12.29l-13.7-13.9z" />
    <path
          d="m154.94 16.39h-.8a9.6 9.6 0 0 0 -4.9 1.22 10.41 10.41 0 0 0 -3.55 3.53l-.48.77v-3.61a1.34 1.34 0 0 0 -1.34-1.3h-6.08a1.34 1.34 0 0 0 -1.34 1.34v23.06a1.34 1.34 0 0 0 1.34 1.34h6.08a1.34 1.34 0 0 0 1.34-1.34v-9.68a8.81 8.81 0 0 1 1.67-5.78 6.26 6.26 0 0 1 5.05-2 9.17 9.17 0 0 1 3 .48.58.58 0 0 0 .53-.08.52.52 0 0 0 .23-.44v-6.78a.73.73 0 0 0 -.75-.73z" />
    <path
          d="m217.65 20.16a13 13 0 0 0 -4.15-2.95 12.46 12.46 0 0 0 -5.14-1.08 9.59 9.59 0 0 0 -7.9 3.65l-.47.59v-2.07a1.34 1.34 0 0 0 -1.34-1.3h-5.94a1.47 1.47 0 0 0 -1.48 1.47v36.1a1.34 1.34 0 0 0 1.34 1.34h6.08a1.34 1.34 0 0 0 1.35-1.38v-14.74l.45.47a10.76 10.76 0 0 0 8 3.3 12.4 12.4 0 0 0 9.22-4 14 14 0 0 0 2.72-4.32 14.44 14.44 0 0 0 1-5.34 14.84 14.84 0 0 0 -1-5.4 13.47 13.47 0 0 0 -2.74-4.34zm-6 12.13a7.08 7.08 0 0 1 -1.34 2 6 6 0 0 1 -2 1.34 6.1 6.1 0 0 1 -2.41.48 5.93 5.93 0 0 1 -2.44-.51 6.6 6.6 0 0 1 -2-1.33 6 6 0 0 1 -1.34-2 6 6 0 0 1 -.48-2.41 6.16 6.16 0 0 1 .5-2.44 6.76 6.76 0 0 1 1.34-2 6 6 0 0 1 1.95-1.34 6.33 6.33 0 0 1 4.91 0 6.81 6.81 0 0 1 2 1.36 5.82 5.82 0 0 1 1.31 2 6.6 6.6 0 0 1 .46 2.43 5.82 5.82 0 0 1 -.41 2.42z" />
    <path
          d="m241.32 17h-3.94v-6.6a1.34 1.34 0 0 0 -1.38-1.34h-6a1.34 1.34 0 0 0 -1.34 1.34v6.6h-1.74a1.34 1.34 0 0 0 -1.34 1.34v4.54a1.34 1.34 0 0 0 1.34 1.34h1.74v17.18a1.34 1.34 0 0 0 1.34 1.34h6a1.34 1.34 0 0 0 1.34-1.34v-17.22h3.94a1.34 1.34 0 0 0 1.34-1.34v-4.54a1.34 1.34 0 0 0 -1.3-1.3z" />
    <path
          d="m276 24.26a13.06 13.06 0 0 0 -3.24-4.37 15.22 15.22 0 0 0 -4.93-2.89 18.92 18.92 0 0 0 -12.43 0 15.39 15.39 0 0 0 -4.92 2.9 13.18 13.18 0 0 0 -3.22 4.33 12.54 12.54 0 0 0 -1.15 5.35 14.17 14.17 0 0 0 1.15 5.76 13.37 13.37 0 0 0 3.2 4.45 14.12 14.12 0 0 0 4.86 2.88 18.32 18.32 0 0 0 6.17 1 18.92 18.92 0 0 0 6.3-1 14.47 14.47 0 0 0 5-2.84 13.27 13.27 0 0 0 3.21-4.35 13.09 13.09 0 0 0 1.19-5.61 13.41 13.41 0 0 0 -1.19-5.61zm-8.63 8a6.72 6.72 0 0 1 -1.33 2 5.87 5.87 0 0 1 -2 1.34 6.39 6.39 0 0 1 -4.86 0 5.87 5.87 0 0 1 -2-1.34 6.72 6.72 0 0 1 -1.33-2 6.2 6.2 0 0 1 -.51-2.54 5.76 5.76 0 0 1 .51-2.41 7 7 0 0 1 1.33-2 5.87 5.87 0 0 1 2-1.34 6.39 6.39 0 0 1 4.86 0 5.87 5.87 0 0 1 2 1.34 6.72 6.72 0 0 1 1.33 2 6 6 0 0 1 .51 2.44 6.06 6.06 0 0 1 -.49 2.51z" />
    <path
          d="m186.13 17h-6.34a1.38 1.38 0 0 0 -1.31.92l-5 14-5.07-14a1.39 1.39 0 0 0 -1.31-.91h-6.28a1.3 1.3 0 0 0 -1.1.57 1.27 1.27 0 0 0 -.16 1.22l8.88 24.51v.09l-3.88 10.72a1.34 1.34 0 0 0 1.26 1.8h7.18a1.39 1.39 0 0 0 1.3-.92l13.13-36.2a1.35 1.35 0 0 0 -1.3-1.8z" />
    <path
          d="m121.29 54.18v-5.11a.26.26 0 0 1 .26-.26h.73a7.07 7.07 0 0 1 1.57.12 2.22 2.22 0 0 1 .81.41 2.31 2.31 0 0 1 .68 1 3.81 3.81 0 0 1 0 2.66 2.19 2.19 0 0 1 -1.47 1.37 5.71 5.71 0 0 1 -1.37.12h-1a.27.27 0 0 1 -.21-.31zm1.28-1h.22a1.44 1.44 0 0 0 1.11-.37 1.65 1.65 0 0 0 .36-1.18 1.69 1.69 0 0 0 -.36-1.19 1.44 1.44 0 0 0 -1.11-.37h-.22z" />
    <path
          d="m51.5 54.19v-3.9a.18.18 0 0 0 -.17-.18h-.79a.19.19 0 0 1 -.17-.19v-.92a.18.18 0 0 1 .17-.18h3.29a.18.18 0 0 1 .17.18v1a.19.19 0 0 1 -.17.19h-.83a.17.17 0 0 0 -.17.18v3.9a.19.19 0 0 1 -.17.19h-1a.18.18 0 0 1 -.16-.27z" />
    <path
          d="m104.45 54.19v-3.9a.18.18 0 0 0 -.17-.18h-.79a.18.18 0 0 1 -.17-.19v-.92a.17.17 0 0 1 .17-.18h3.29a.17.17 0 0 1 .16.18v1a.18.18 0 0 1 -.16.19h-.78a.17.17 0 0 0 -.16.18v3.9a.19.19 0 0 1 -.17.19h-1a.18.18 0 0 1 -.22-.27z" />
    <path
          d="m17.36 49.09a.25.25 0 0 1 .23-.26h1.27a3.08 3.08 0 0 1 1.88.44 1.35 1.35 0 0 1 .58 1.11 1.33 1.33 0 0 1 -.84 1.18 1.22 1.22 0 0 1 .95 1.22 1.41 1.41 0 0 1 -.59 1.16 2.54 2.54 0 0 1 -1.55.44h-1.83a.12.12 0 0 1 -.1-.12zm1.47.8v1.2c.66 0 1-.21 1-.59a.51.51 0 0 0 -.23-.47 1.73 1.73 0 0 0 -.77-.14zm0 2.2v1.21a2.1 2.1 0 0 0 .84-.15.48.48 0 0 0 .28-.46q0-.6-1-.6z" />
    <path
          d="m22.41 50.75h1.1a.18.18 0 0 1 .16.18v2.15a.46.46 0 0 0 .1.31.35.35 0 0 0 .28.12c.28 0 .41-.17.41-.49v-2.09a.17.17 0 0 1 .16-.18h1.1a.17.17 0 0 1 .16.18v1.92a1.6 1.6 0 0 1 -.46 1.22 1.89 1.89 0 0 1 -1.34.43 1.91 1.91 0 0 1 -1.4-.44 1.45 1.45 0 0 1 -.43-1.06v-2a.17.17 0 0 1 .16-.25z" />
    <path
          d="m26.92 49.52a.73.73 0 0 1 .22-.52.77.77 0 0 1 1.06 0 .73.73 0 0 1 .22.52.75.75 0 0 1 -.75.73.69.69 0 0 1 -.52-.22.68.68 0 0 1 -.23-.51z" />
    <path
          d="m27.13 50.75h1.08a.18.18 0 0 1 .17.19v3.25a.18.18 0 0 1 -.17.19h-1.08a.19.19 0 0 1 -.17-.19v-3.25a.19.19 0 0 1 .17-.19z" />
    <path d="m36.85 49.52a.73.73 0 0 1 .75-.73.76.76 0 0 1 .53.21.74.74 0 0 1 .22.52.75.75 0 0 1 -1.5 0z" />
    <path
          d="m37 50.75h1.14a.16.16 0 0 1 .14.16v3.31a.16.16 0 0 1 -.14.16h-1.14a.15.15 0 0 1 -.14-.16v-3.31a.15.15 0 0 1 .14-.16z" />
    <path
          d="m40.83 50.75v.49a1.52 1.52 0 0 1 1.21-.61 1 1 0 0 1 .74.26.87.87 0 0 1 .27.68v2.64a.16.16 0 0 1 -.14.17h-1.1a.16.16 0 0 1 -.14-.17v-2.07a.44.44 0 0 0 -.11-.3.35.35 0 0 0 -.28-.12.4.4 0 0 0 -.45.46v2a.16.16 0 0 1 -.14.17h-1.12a.17.17 0 0 1 -.15-.17v-3.09a.33.33 0 0 1 .3-.34z" />
    <path
          d="m65.58 53.27h1a.13.13 0 0 1 .11.18 1.58 1.58 0 0 1 -1.64 1 1.76 1.76 0 0 1 -1.33-.45 2 2 0 0 1 -.5-1.45 1.93 1.93 0 0 1 .5-1.38 1.76 1.76 0 0 1 1.28-.54 1.9 1.9 0 0 1 .95.25 1.48 1.48 0 0 1 .67.66 3 3 0 0 1 .23 1.16.14.14 0 0 1 -.13.14h-2.19c0 .54.21.81.56.81a.48.48 0 0 0 .32-.11.44.44 0 0 0 .17-.27zm-1-1.05h1a1.24 1.24 0 0 0 -.13-.56.4.4 0 0 0 -.37-.19.46.46 0 0 0 -.41.18 1.05 1.05 0 0 0 -.12.57z" />
    <path
          d="m68 49.79h1.2a.11.11 0 0 1 .11.12v.72a.11.11 0 0 0 .11.12h.33a.12.12 0 0 1 .11.12v.71a.12.12 0 0 1 -.11.13h-.34a.11.11 0 0 0 -.11.12v2.43a.12.12 0 0 1 -.11.12h-1.19a.12.12 0 0 1 -.11-.12v-2.44c0-.07 0-.12-.1-.12h-.13a.12.12 0 0 1 -.11-.12v-.71a.12.12 0 0 1 .11-.12h.13c.06 0 .1 0 .1-.12v-.72a.11.11 0 0 1 .11-.12z" />
    <path
          d="m70.71 48.83h1.15a.13.13 0 0 1 .14.17v2.25a1.59 1.59 0 0 1 1.21-.59 1.05 1.05 0 0 1 .75.26 1 1 0 0 1 .27.73v2.61a.14.14 0 0 1 -.13.15h-1.1a.14.14 0 0 1 -.13-.15v-2.09a.5.5 0 0 0 -.11-.34.36.36 0 0 0 -.29-.12c-.29 0-.44.16-.44.49v2a.14.14 0 0 1 -.13.15h-1.19a.14.14 0 0 1 -.13-.15v-5.2a.13.13 0 0 1 .13-.17z" />
    <path
          d="m77.38 53.27h1a.15.15 0 0 1 .12.19 1.58 1.58 0 0 1 -1.65 1 1.76 1.76 0 0 1 -1.32-.46 2 2 0 0 1 -.5-1.45 1.93 1.93 0 0 1 .5-1.38 1.75 1.75 0 0 1 1.31-.51 1.94 1.94 0 0 1 1 .25 1.5 1.5 0 0 1 .66.66 2.85 2.85 0 0 1 .23 1.15.13.13 0 0 1 -.12.15h-2.27c0 .54.2.81.55.81a.46.46 0 0 0 .32-.11.4.4 0 0 0 .17-.3zm-1-1.05h1a1.12 1.12 0 0 0 -.13-.56.39.39 0 0 0 -.37-.19.45.45 0 0 0 -.4.18 1.05 1.05 0 0 0 -.12.57z" />
    <path
          d="m80.77 50.75a.12.12 0 0 1 .11.12v.49a1.37 1.37 0 0 1 1.12-.71h.23v1.15a2.74 2.74 0 0 0 -.48 0c-.52 0-.77.27-.77.82v1.67a.12.12 0 0 1 -.11.13h-1.2a.12.12 0 0 1 -.11-.13v-3.42a.12.12 0 0 1 .11-.12z" />
    <path
          d="m91.66 49.55a.67.67 0 0 1 .22-.51.74.74 0 0 1 .53-.21.76.76 0 0 1 .53.21.7.7 0 0 1 .22.51.74.74 0 0 1 -.22.52.76.76 0 0 1 -.53.21.73.73 0 0 1 -.75-.73z" />
    <path
          d="m91.8 50.75h1.2a.11.11 0 0 1 .11.12v3.39a.12.12 0 0 1 -.11.12h-1.2a.12.12 0 0 1 -.1-.12v-3.39a.11.11 0 0 1 .1-.12z" />
    <path
          d="m94.52 49.79h1.19a.11.11 0 0 1 .11.12v.72a.11.11 0 0 0 .11.12h.33a.12.12 0 0 1 .11.13v.7a.12.12 0 0 1 -.11.13h-.34a.11.11 0 0 0 -.11.12v2.42a.12.12 0 0 1 -.11.13h-1.18a.12.12 0 0 1 -.11-.13v-2.42a.12.12 0 0 0 -.12-.13h-.13a.12.12 0 0 1 -.12-.13v-.69a.12.12 0 0 1 .12-.13h.13a.12.12 0 0 0 .12-.12v-.72a.11.11 0 0 1 .11-.12z" />
    <path
          d="m97.2 48.83h1.2a.11.11 0 0 1 .1.12v2.27a1.55 1.55 0 0 1 1.2-.59 1.05 1.05 0 0 1 .75.26 1 1 0 0 1 .27.73v2.64a.11.11 0 0 1 -.1.12h-1.18a.12.12 0 0 1 -.1-.12v-2.09a.5.5 0 0 0 -.11-.34.36.36 0 0 0 -.29-.12c-.29 0-.44.16-.44.49v2.06a.12.12 0 0 1 -.1.12h-1.2a.12.12 0 0 1 -.11-.12v-5.26a.11.11 0 0 1 .11-.17z" />
    <path
          d="m109.2 53.27h1a.12.12 0 0 1 .1.17 1.56 1.56 0 0 1 -1.64 1.05 1.76 1.76 0 0 1 -1.35-.52 2 2 0 0 1 -.5-1.45 1.93 1.93 0 0 1 .5-1.38 1.76 1.76 0 0 1 1.32-.51 1.9 1.9 0 0 1 1 .25 1.48 1.48 0 0 1 .67.66 3.06 3.06 0 0 1 .23 1.17.12.12 0 0 1 -.12.13h-2.24c0 .54.21.81.56.81a.48.48 0 0 0 .32-.11.44.44 0 0 0 .15-.27zm-1-1.05h1a1.24 1.24 0 0 0 -.13-.56.4.4 0 0 0 -.37-.19.46.46 0 0 0 -.41.18 1.05 1.05 0 0 0 -.12.57z" />
    <path
          d="m113.77 53.27v.84a.19.19 0 0 1 -.09.15 2.13 2.13 0 0 1 -.93.23 1.53 1.53 0 0 1 -1.21-.53 2.12 2.12 0 0 1 -.45-1.42 2 2 0 0 1 .46-1.38 1.52 1.52 0 0 1 1.21-.53 2 2 0 0 1 .93.24.19.19 0 0 1 .09.15v.84a1.42 1.42 0 0 0 -.52-.12.71.71 0 0 0 -.55.22.84.84 0 0 0 -.21.59.88.88 0 0 0 .21.62.69.69 0 0 0 .55.22 1.42 1.42 0 0 0 .51-.12z" />
    <path
          d="m114.69 48.83h1.23a.09.09 0 0 1 .09.1v2.29a1.58 1.58 0 0 1 1.2-.59 1.06 1.06 0 0 1 .76.26 1 1 0 0 1 .27.73v2.66a.1.1 0 0 1 -.09.1h-1.24a.1.1 0 0 1 -.08-.1v-2.11a.5.5 0 0 0 -.11-.34.37.37 0 0 0 -.29-.12c-.29 0-.44.16-.44.49v2.08a.1.1 0 0 1 -.09.1h-1.23a.1.1 0 0 1 -.09-.1v-5.35a.09.09 0 0 1 .11-.1z" />
    <path
          d="m126.46 49.55a.67.67 0 0 1 .22-.51.76.76 0 0 1 1 0 .67.67 0 0 1 .22.51.7.7 0 0 1 -.22.52.72.72 0 0 1 -.53.21.73.73 0 0 1 -.52-.21.7.7 0 0 1 -.17-.52z" />
    <path
          d="m126.6 50.75h1.21a.11.11 0 0 1 .1.12v3.39a.11.11 0 0 1 -.1.12h-1.21a.11.11 0 0 1 -.1-.12v-3.39a.11.11 0 0 1 .1-.12z" />
    <path
          d="m129.15 53.28a.09.09 0 0 1 .12 0 2.57 2.57 0 0 0 1 .31.54.54 0 0 0 .29-.07.21.21 0 0 0 .12-.18.19.19 0 0 0 -.1-.16l-.73-.27a1.82 1.82 0 0 1 -.73-.43.86.86 0 0 1 -.22-.61 1 1 0 0 1 .44-.86 1.82 1.82 0 0 1 1.14-.34 3.91 3.91 0 0 1 1.52.33.11.11 0 0 1 0 .16l-.42.64a.08.08 0 0 1 -.11 0 2.35 2.35 0 0 0 -1-.28c-.23 0-.35.08-.35.23a.22.22 0 0 0 .13.19 2.31 2.31 0 0 0 .47.18 2.39 2.39 0 0 1 .92.43.79.79 0 0 1 .29.64 1.11 1.11 0 0 1 -.45.91 1.91 1.91 0 0 1 -1.17.35 3.61 3.61 0 0 1 -1.54-.39.11.11 0 0 1 0-.16z" />
    <path
          d="m134.09 50.75c.06 0 .1 0 .1.12v.49a1.39 1.39 0 0 1 1.07-.71h.23v1.15a2.9 2.9 0 0 0 -.48 0c-.52 0-.78.27-.78.82v1.68a.12.12 0 0 1 -.1.12h-1.21a.12.12 0 0 1 -.1-.12v-3.43a.11.11 0 0 1 .1-.12z" />
    <path
          d="m136.34 50.75h1.21a.12.12 0 0 1 .1.12v2.21a.47.47 0 0 0 .11.31.35.35 0 0 0 .28.12c.27 0 .41-.17.41-.49v-2.15a.12.12 0 0 1 .1-.12h1.21a.11.11 0 0 1 .1.12v2a1.56 1.56 0 0 1 -.46 1.22 1.87 1.87 0 0 1 -1.33.43 1.89 1.89 0 0 1 -1.4-.44 1.45 1.45 0 0 1 -.43-1.08v-2.13a.11.11 0 0 1 .1-.12z" />
    <path
          d="m145.94 49.79h1.2c.06 0 .1.05.1.12v.72a.11.11 0 0 0 .11.12h.34a.11.11 0 0 1 .1.12v.71c0 .07 0 .13-.1.13h-.35a.11.11 0 0 0 -.11.12v2.42c0 .07 0 .13-.1.13h-1.19a.12.12 0 0 1 -.11-.13v-2.43a.11.11 0 0 0 -.11-.12h-.16a.12.12 0 0 1 -.11-.12v-.71a.12.12 0 0 1 .11-.12h.16a.11.11 0 0 0 .11-.12v-.72a.11.11 0 0 1 .11-.12z" />
    <path
          d="m154.27 50.75a.1.1 0 0 1 .09.1v.51a1.64 1.64 0 0 1 1-.79s.3-.06.3.1v1.13c0 .11-.33 0-.47 0-.52 0-.78.27-.78.82v1.69a.1.1 0 0 1 -.09.11h-1.22a.1.1 0 0 1 -.09-.11v-3.46a.1.1 0 0 1 .09-.1z" />
    <path
          d="m156.55 53.3a.11.11 0 0 1 .14 0 2.72 2.72 0 0 0 1 .3.52.52 0 0 0 .29-.07.21.21 0 0 0 .12-.18.17.17 0 0 0 -.1-.16l-.73-.27a1.82 1.82 0 0 1 -.73-.43.86.86 0 0 1 -.22-.61 1 1 0 0 1 .44-.86 1.82 1.82 0 0 1 1.14-.34 4 4 0 0 1 1.5.37.14.14 0 0 1 0 .2l-.4.59a.1.1 0 0 1 -.14 0 2.35 2.35 0 0 0 -1-.27c-.23 0-.35.08-.35.23a.22.22 0 0 0 .13.19 2.58 2.58 0 0 0 .47.18 2.52 2.52 0 0 1 .93.43.82.82 0 0 1 .29.64 1.12 1.12 0 0 1 -.46.91 1.91 1.91 0 0 1 -1.17.35 3.66 3.66 0 0 1 -1.52-.38.14.14 0 0 1 -.05-.19z" />
    <path
          d="m47.64 50.75h-1.28v.38a1.28 1.28 0 0 0 -1-.49 1.3 1.3 0 0 0 -1.07.5 2.57 2.57 0 0 0 0 2.74 1.36 1.36 0 0 0 1.12.49 1.25 1.25 0 0 0 1-.49v.51a.54.54 0 0 1 -.19.43.63.63 0 0 1 -.46.18.68.68 0 0 1 -.51-.23.14.14 0 0 0 -.09-.05h-1.2s0 0 0 0a1.29 1.29 0 0 0 .69.86 2.53 2.53 0 0 0 1.15.27 2.57 2.57 0 0 0 1.11-.24 1.44 1.44 0 0 0 .72-.65 2 2 0 0 0 .2-.87v-3.2a.15.15 0 0 0 -.19-.14zm-1.57 2.59a.66.66 0 0 1 -.36.11 1 1 0 0 1 0-1.9.67.67 0 0 1 .34.1.29.29 0 0 1 .15.12 1 1 0 0 1 .29.73 1 1 0 0 1 -.42.84z" />
    <path
          d="m57.32 51.15a2 2 0 0 0 -1.48-.52 1.87 1.87 0 0 0 -1.43.52 2 2 0 0 0 -.5 1.45 1.86 1.86 0 0 0 .52 1.4 1.94 1.94 0 0 0 1.41.51 2.05 2.05 0 0 0 1.46-.51 1.84 1.84 0 0 0 .52-1.41 2 2 0 0 0 -.5-1.44zm-1.44 2.36a.83.83 0 0 1 -.65-.35 1 1 0 0 1 -.19-.6.85.85 0 1 1 .84.95z" />
    <path
          d="m61 50.75v.38a1.34 1.34 0 0 0 -2.08 0 2.14 2.14 0 0 0 -.39 1.36 2.08 2.08 0 0 0 .4 1.38 1.36 1.36 0 0 0 1.12.49 1.25 1.25 0 0 0 1-.49v.51a.54.54 0 0 1 -.19.43.68.68 0 0 1 -1-.06.13.13 0 0 0 -.07 0h-1.12a.12.12 0 0 0 -.1.16 1.25 1.25 0 0 0 .65.72 2.52 2.52 0 0 0 1.14.27 2.59 2.59 0 0 0 1.12-.24 1.38 1.38 0 0 0 .71-.65 1.86 1.86 0 0 0 .21-.87v-3.27a.11.11 0 0 0 -.1-.12zm-.63 2.71a1 1 0 1 1 .79-1 .88.88 0 0 1 -.81 1z" />
    <path
          d="m144.43 51.18a1.19 1.19 0 0 0 -1-.53 1.36 1.36 0 0 0 -1.06.56s0-.46-.08-.46h-1.29a.13.13 0 0 0 -.12.14v4.83a.14.14 0 0 0 .13.15h1.16a.13.13 0 0 0 .12-.14v-1.83a1.21 1.21 0 0 0 1 .6 1.3 1.3 0 0 0 1.11-.52 2.71 2.71 0 0 0 0-2.8zm-1.43 2.34a1 1 0 1 1 .75-1 .87.87 0 0 1 -.75 1z" />
    <path
          d="m151.67 51.15a2 2 0 0 0 -1.47-.52 1.88 1.88 0 0 0 -1.44.52 2 2 0 0 0 -.5 1.45 1.86 1.86 0 0 0 .52 1.4 2 2 0 0 0 1.42.51 2 2 0 0 0 1.45-.5 1.85 1.85 0 0 0 .53-1.41 2 2 0 0 0 -.51-1.45zm-1.41 2.37a1 1 0 1 1 .85-1 .9.9 0 0 1 -.85 1z" />
    <path
          d="m35.5 48.83h-1.07a.18.18 0 0 0 -.17.19v1.75a.17.17 0 0 1 -.27.15 1.29 1.29 0 0 0 -.8-.29 1.22 1.22 0 0 0 -1 .53 2.28 2.28 0 0 0 -.39 1.4 2.38 2.38 0 0 0 .36 1.44 1.2 1.2 0 0 0 1 .53 1.34 1.34 0 0 0 1.06-.6v.48h1.28a.19.19 0 0 0 .17-.19v-5.22a.18.18 0 0 0 -.17-.17zm-1.92 4.62a.91.91 0 1 1 .71-.89.82.82 0 0 1 -.71.89z" />
    <path d="m85.09 49.19.59-.23a.3.3 0 0 1 .39.19l.05.13 1.63 4.57a.32.32 0 0 1 -.18.41l-.59.23a.32.32 0 0 1 -.4-.19v-.13l-1.68-4.58a.32.32 0 0 1 .19-.4z"
          fill-rule="evenodd" />
    <path d="m88 49.08.59-.23a.3.3 0 0 1 .41.15l.05.13 1.63 4.58a.31.31 0 0 1 -.18.4l-.59.23a.31.31 0 0 1 -.4-.19v-.13l-1.64-4.57a.32.32 0 0 1 .13-.37z"
          fill-rule="evenodd" />
    <path
          d="m29.77 48.83h1.07a.19.19 0 0 1 .16.17v5.16a.18.18 0 0 1 -.17.19h-1.06a.17.17 0 0 1 -.17-.19v-5.16a.18.18 0 0 1 .17-.17z" />
  </g>
</svg>