<svg id="图层_1" data-name="图层 1" xmlns="http://www.w3.org/2000/svg" xmlns:xlink="http://www.w3.org/1999/xlink" viewBox="0 0 4222.92 2489.56"><defs><style>.cls-1,.cls-10,.cls-12,.cls-13,.cls-22,.cls-35,.cls-40,.cls-44,.cls-58,.cls-64,.cls-69,.cls-70,.cls-72,.cls-73,.cls-74,.cls-82{fill:none;}.cls-2{font-size:44px;font-family:Alibaba-PuHuiTi-R, Alibaba PuHuiTi;}.cls-2,.cls-27,.cls-30,.cls-31,.cls-37,.cls-52,.cls-68,.cls-77{fill:#3a3a3a;}.cls-3,.cls-4,.cls-5,.cls-6{font-family:Alibaba-PuHuiTi-B, Alibaba PuHuiTi;}.cls-4{letter-spacing:0.02em;}.cls-5{letter-spacing:-0.08em;}.cls-6{letter-spacing:-0.06em;}.cls-7{fill:#36b9ed;}.cls-17,.cls-19,.cls-21,.cls-24,.cls-46,.cls-48,.cls-7,.cls-71,.cls-75{opacity:0.3;}.cls-8{fill:#f4f4f4;stroke:#f2f2f2;}.cls-10,.cls-12,.cls-13,.cls-22,.cls-35,.cls-40,.cls-44,.cls-58,.cls-64,.cls-69,.cls-70,.cls-72,.cls-73,.cls-74,.cls-8,.cls-82{stroke-miterlimit:10;}.cls-10,.cls-12,.cls-8{stroke-width:2px;}.cls-9{fill:#d5a6bc;}.cls-10{stroke:#e8e8e8;}.cls-11{clip-path:url(#clip-path);}.cls-12,.cls-22{stroke:#fff;}.cls-13{stroke:#ae00ae;}.cls-14{clip-path:url(#clip-path-2);}.cls-15{fill:#00aced;}.cls-15,.cls-41{opacity:0.64;}.cls-16{clip-path:url(#clip-path-3);}.cls-17{fill:#3f68b0;}.cls-18{clip-path:url(#clip-path-4);}.cls-19{fill:#01b3c1;}.cls-20{clip-path:url(#clip-path-5);}.cls-21{fill:#2e88c7;}.cls-22,.cls-44{stroke-width:6px;}.cls-23{clip-path:url(#clip-path-6);}.cls-24{fill:#8dc4d3;}.cls-25{clip-path:url(#clip-path-7);}.cls-26{fill:#afd2d0;}.cls-27,.cls-68{font-size:57.66px;}.cls-27,.cls-52,.cls-68{font-family:Gilroy-Bold, Gilroy;font-weight:700;}.cls-27{letter-spacing:-0.01em;}.cls-28{letter-spacing:-0.02em;}.cls-29{letter-spacing:0em;}.cls-30{font-size:49.03px;}.cls-30,.cls-37{font-family:Alibaba-PuHuiTi-M, Alibaba PuHuiTi;}.cls-31,.cls-37,.cls-52{font-size:42px;}.cls-31,.cls-77{font-family:Gilroy-Regular, Gilroy;}.cls-32{letter-spacing:-0.03em;}.cls-33{letter-spacing:0em;}.cls-34{letter-spacing:-0.03em;}.cls-35{stroke:#d5a6bc;}.cls-36{fill:#f7f7f7;}.cls-38{letter-spacing:-0.05em;}.cls-39{letter-spacing:-0.02em;}.cls-40,.cls-44{stroke:#00aced;}.cls-41,.cls-48{fill:#0086ff;}.cls-42,.cls-50{fill:#0041ff;}.cls-42{opacity:0.46;}.cls-43{clip-path:url(#clip-path-8);}.cls-45{clip-path:url(#clip-path-9);}.cls-46{fill:#00a4ff;}.cls-47{clip-path:url(#clip-path-10);}.cls-49{clip-path:url(#clip-path-11);}.cls-50{opacity:0.1;}.cls-51{letter-spacing:0em;}.cls-53{letter-spacing:-0.15em;}.cls-54{letter-spacing:-0.01em;}.cls-55{letter-spacing:-0.03em;}.cls-56{letter-spacing:-0.04em;}.cls-57{letter-spacing:0em;}.cls-58{stroke:#0086ff;}.cls-59{letter-spacing:-0.01em;}.cls-60{letter-spacing:-0.01em;}.cls-61{letter-spacing:0em;}.cls-62{letter-spacing:-0.01em;}.cls-63{letter-spacing:-0.05em;}.cls-64{stroke:#0041ff;}.cls-65{letter-spacing:-0.01em;}.cls-66{letter-spacing:-0.04em;}.cls-67{letter-spacing:0em;}.cls-69{stroke:#afd2d0;}.cls-70{stroke:#8dc4d3;}.cls-71{fill:#5188c7;}.cls-72{stroke:#5188c7;}.cls-73{stroke:#01b3c1;}.cls-74{stroke:#3f68b0;}.cls-75{fill:#2f6cff;}.cls-76{letter-spacing:-0.02em;}.cls-77{font-size:34px;}.cls-78{letter-spacing:-0.01em;}.cls-79{letter-spacing:-0.03em;}.cls-80{letter-spacing:-0.03em;}.cls-81{clip-path:url(#clip-path-12);}.cls-82{stroke:#2f6cff;}</style><clipPath id="clip-path"><polygon id="SVGID" class="cls-1" points="1977.68 436.85 1977.68 1166.04 2707.29 900.49 2303.99 448.7 1977.68 436.85"/></clipPath><clipPath id="clip-path-2"><polygon id="SVGID-2" data-name="SVGID" class="cls-1" points="2596.21 940.92 1977.68 1166.04 2398.25 1667.26 2537.74 1555.78 2669.43 1206.61 2596.21 940.92"/></clipPath><clipPath id="clip-path-3"><path id="SVGID-3" data-name="SVGID" class="cls-1" d="M1790.83,1758.66,1977.68,1166l397.09,473.23L2233.5,1765.9s-266.4,36-275.71,38.62S1790.83,1758.66,1790.83,1758.66Z"/></clipPath><clipPath id="clip-path-4"><polygon id="SVGID-4" data-name="SVGID" class="cls-1" points="1434.15 1352.71 1426.81 1313.65 1977.68 1166.04 1802.15 1722.77 1546.33 1582.38 1434.15 1352.71"/></clipPath><clipPath id="clip-path-5"><polygon id="SVGID-5" data-name="SVGID" class="cls-1" points="1422.18 1176.68 1511.41 996.34 1977.68 1166.04 1498.41 1294.46 1422.18 1176.68"/></clipPath><clipPath id="clip-path-6"><polygon id="SVGID-6" data-name="SVGID" class="cls-1" points="1561.4 923.29 1558.04 1013.3 1977.93 1166.34 1716.14 792.52 1685.11 783.62 1658.17 805.57 1561.4 923.29"/></clipPath><clipPath id="clip-path-7"><polygon id="SVGID-7" data-name="SVGID" class="cls-1" points="1775.56 783.62 1750.04 840.94 1977.93 1166.6 1977.68 757.68 1934.51 757.68 1865.89 763 1775.56 783.62"/></clipPath><clipPath id="clip-path-8"><path id="SVGID-8" data-name="SVGID" class="cls-1" d="M2672.17,1166a698.45,698.45,0,0,1-11.29,125.33L2836.36,1323l10-326.7-45-127.93-170.2,62A693.15,693.15,0,0,1,2672.17,1166Z"/></clipPath><clipPath id="clip-path-9"><path id="SVGID-9" data-name="SVGID" class="cls-1" d="M2660.88,1291.37a690.83,690.83,0,0,1-117.6,277.76L2973.23,1874l105.88-507.2Z"/></clipPath><clipPath id="clip-path-10"><path id="SVGID-10" data-name="SVGID" class="cls-1" d="M2543.28,1569.13c-22.11,30.82-26.1,35-51.67,64l346.64,313.76,32.35-16,63-85Z"/></clipPath><clipPath id="clip-path-11"><path id="SVGID-11" data-name="SVGID" class="cls-1" d="M2491.61,1633.16l-3.25,3.55c-13.5,15.84-48.8,48.35-64.26,61.35l394.25,470.35,122.12-129Z"/></clipPath><clipPath id="clip-path-12"><path id="SVGID-12" data-name="SVGID" class="cls-1" d="M1288.37,1256.39l-189,24L1209.59,1542l145.26-68.23C1316.51,1392.17,1302.54,1345.61,1288.37,1256.39Z"/></clipPath></defs><text class="cls-2" transform="translate(238.72 2196.74)">初始发行：<tspan class="cls-3" x="216.48" y="0">100亿 </tspan><tspan class="cls-4" x="348.96" y="0">L</tspan><tspan class="cls-5" x="373.07" y="0">A</tspan><tspan class="cls-6" x="401.45" y="0">T</tspan><tspan class="cls-3" x="423.06" y="0">s</tspan></text><rect class="cls-7" x="3115.89" y="1002.48" width="161.3" height="45.5"/><circle class="cls-8" cx="1977.68" cy="1166.04" r="694.49"/><rect class="cls-9" x="2538.63" y="275.51" width="167.86" height="74.1"/><circle class="cls-10" cx="1977.68" cy="1166.04" r="694.49"/><circle class="cls-10" cx="1977.68" cy="1166.04" r="644.88"/><circle class="cls-10" cx="1977.68" cy="1166.04" r="595.28"/><circle class="cls-10" cx="1977.68" cy="1166.04" r="545.67"/><circle class="cls-10" cx="1977.68" cy="1166.04" r="496.06"/><circle class="cls-10" cx="1977.68" cy="1166.04" r="446.46"/><circle class="cls-10" cx="1977.68" cy="1166.04" r="396.85"/><circle class="cls-10" cx="1977.68" cy="1166.04" r="347.24"/><circle class="cls-10" cx="1977.68" cy="1166.04" r="297.64"/><circle class="cls-10" cx="1977.68" cy="1166.04" r="248.03"/><circle class="cls-10" cx="1977.68" cy="1166.04" r="198.43"/><circle class="cls-10" cx="1977.68" cy="1166.04" r="148.82"/><circle class="cls-10" cx="1977.68" cy="1166.04" r="99.21"/><circle class="cls-10" cx="1977.68" cy="1166.04" r="49.61"/><g class="cls-11"><circle class="cls-9" cx="1977.68" cy="1166.04" r="694.49"/><circle class="cls-12" cx="1977.68" cy="1166.04" r="694.49"/><circle class="cls-12" cx="1977.68" cy="1166.04" r="644.88"/><circle class="cls-12" cx="1977.68" cy="1166.04" r="595.28"/><circle class="cls-12" cx="1977.68" cy="1166.04" r="545.67"/><circle class="cls-12" cx="1977.68" cy="1166.04" r="496.06"/><circle class="cls-12" cx="1977.68" cy="1166.04" r="446.46"/><circle class="cls-12" cx="1977.68" cy="1166.04" r="396.85"/><circle class="cls-12" cx="1977.68" cy="1166.04" r="347.24"/><circle class="cls-12" cx="1977.68" cy="1166.04" r="297.64"/><circle class="cls-12" cx="1977.68" cy="1166.04" r="248.03"/><circle class="cls-12" cx="1977.68" cy="1166.04" r="198.43"/><circle class="cls-12" cx="1977.68" cy="1166.04" r="148.82"/><circle class="cls-12" cx="1977.68" cy="1166.04" r="99.21"/><circle class="cls-12" cx="1977.68" cy="1166.04" r="49.61"/></g><line class="cls-13" x1="1768.85" y1="1828.39" x2="1977.68" y2="1166.04"/><line class="cls-13" x1="1977.68" y1="1166.04" x2="2630.29" y2="928.51"/><line class="cls-13" x1="1977.68" y1="1166.04" x2="2424.09" y2="1698.05"/><line class="cls-13" x1="1579.34" y1="597.15" x2="1977.68" y2="1166.04"/><line class="cls-13" x1="1977.68" y1="471.55" x2="1977.68" y2="1166.34"/><line class="cls-13" x1="1325.08" y1="928.51" x2="1977.68" y2="1166.04"/><line class="cls-13" x1="1306.86" y1="1345.79" x2="1977.68" y2="1166.04"/><g class="cls-14"><circle class="cls-15" cx="1977.68" cy="1166.04" r="644.88"/><circle class="cls-12" cx="1977.68" cy="1166.04" r="644.88"/><circle class="cls-12" cx="1977.68" cy="1166.04" r="595.28"/><circle class="cls-12" cx="1977.68" cy="1166.04" r="545.67"/><circle class="cls-12" cx="1977.68" cy="1166.04" r="496.06"/><circle class="cls-12" cx="1977.68" cy="1166.04" r="446.46"/><circle class="cls-12" cx="1977.68" cy="1166.04" r="396.85"/><circle class="cls-12" cx="1977.68" cy="1166.04" r="347.24"/><circle class="cls-12" cx="1977.68" cy="1166.04" r="297.64"/><circle class="cls-12" cx="1977.68" cy="1166.04" r="248.03"/><circle class="cls-12" cx="1977.68" cy="1166.04" r="198.43"/><circle class="cls-12" cx="1977.68" cy="1166.04" r="148.82"/><circle class="cls-12" cx="1977.68" cy="1166.04" r="99.21"/><circle class="cls-12" cx="1977.68" cy="1166.04" r="49.61"/></g><g class="cls-16"><circle class="cls-17" cx="1977.68" cy="1166.04" r="595.28"/><circle class="cls-12" cx="1977.68" cy="1166.04" r="545.67"/><circle class="cls-12" cx="1977.68" cy="1166.04" r="496.06"/><circle class="cls-12" cx="1977.68" cy="1166.04" r="446.46"/><circle class="cls-12" cx="1977.68" cy="1166.04" r="396.85"/><circle class="cls-12" cx="1977.68" cy="1166.04" r="347.24"/><circle class="cls-12" cx="1977.68" cy="1166.04" r="297.64"/><circle class="cls-12" cx="1977.68" cy="1166.04" r="248.03"/><circle class="cls-12" cx="1977.68" cy="1166.04" r="198.43"/><circle class="cls-12" cx="1977.68" cy="1166.04" r="148.82"/><circle class="cls-12" cx="1977.68" cy="1166.04" r="99.21"/><circle class="cls-12" cx="1977.68" cy="1166.04" r="49.61"/></g><g class="cls-18"><circle class="cls-19" cx="1977.68" cy="1166.04" r="545.67"/><circle class="cls-12" cx="1977.68" cy="1166.04" r="496.06"/><circle class="cls-12" cx="1977.68" cy="1166.04" r="446.46"/><circle class="cls-12" cx="1977.68" cy="1166.04" r="396.85"/><circle class="cls-12" cx="1977.68" cy="1166.04" r="347.24"/><circle class="cls-12" cx="1977.68" cy="1166.04" r="297.64"/><circle class="cls-12" cx="1977.68" cy="1166.04" r="248.03"/><circle class="cls-12" cx="1977.68" cy="1166.04" r="198.43"/><circle class="cls-12" cx="1977.68" cy="1166.04" r="148.82"/><circle class="cls-12" cx="1977.68" cy="1166.04" r="99.21"/><circle class="cls-12" cx="1977.68" cy="1166.04" r="49.61"/></g><g class="cls-20"><circle class="cls-21" cx="1977.68" cy="1166.04" r="496.06"/><circle class="cls-12" cx="1977.68" cy="1166.04" r="446.46"/><circle class="cls-12" cx="1977.68" cy="1166.04" r="396.85"/><circle class="cls-12" cx="1977.68" cy="1166.04" r="347.24"/><circle class="cls-12" cx="1977.68" cy="1166.04" r="297.64"/><circle class="cls-12" cx="1977.68" cy="1166.04" r="248.03"/><circle class="cls-12" cx="1977.68" cy="1166.04" r="198.43"/><circle class="cls-12" cx="1977.68" cy="1166.04" r="148.82"/><circle class="cls-12" cx="1977.68" cy="1166.04" r="99.21"/><circle class="cls-12" cx="1977.68" cy="1166.04" r="49.61"/></g><line class="cls-22" x1="1750.01" y1="1892.38" x2="1978.54" y2="1167.56"/><line class="cls-22" x1="1244.44" y1="1364.26" x2="1978.54" y2="1167.56"/><g class="cls-23"><circle class="cls-24" cx="1977.68" cy="1166.04" r="446.46"/><circle class="cls-12" cx="1977.68" cy="1166.04" r="396.85"/><circle class="cls-12" cx="1977.68" cy="1166.04" r="347.24"/><circle class="cls-12" cx="1977.68" cy="1166.04" r="297.64"/><circle class="cls-12" cx="1977.68" cy="1166.04" r="248.03"/><circle class="cls-12" cx="1977.68" cy="1166.04" r="198.43"/><circle class="cls-12" cx="1977.68" cy="1166.04" r="148.82"/><circle class="cls-12" cx="1977.68" cy="1166.04" r="99.21"/><circle class="cls-12" cx="1977.68" cy="1166.04" r="49.61"/></g><g class="cls-25"><circle class="cls-26" cx="1977.68" cy="1166.04" r="396.85"/><circle class="cls-12" cx="1977.68" cy="1166.04" r="347.24"/><circle class="cls-12" cx="1977.68" cy="1166.04" r="297.64"/><circle class="cls-12" cx="1977.68" cy="1166.04" r="248.03"/><circle class="cls-12" cx="1977.68" cy="1166.04" r="198.43"/><circle class="cls-12" cx="1977.68" cy="1166.04" r="148.82"/><circle class="cls-12" cx="1977.68" cy="1166.04" r="99.21"/><circle class="cls-12" cx="1977.68" cy="1166.04" r="49.61"/></g><line class="cls-22" x1="1978.54" y1="407.56" x2="1978.54" y2="1167.89"/><line class="cls-22" x1="1542.63" y1="545.01" x2="1978.54" y2="1167.56"/><line class="cls-22" x1="1264.38" y1="907.62" x2="1978.54" y2="1167.56"/><text class="cls-27" transform="translate(2570.91 331.78)">2<tspan class="cls-28" x="30.04" y="0">0</tspan><tspan class="cls-29" x="65.21" y="0">%</tspan></text><text class="cls-30" transform="translate(2828.74 347.27)">创始团队</text><text class="cls-31" transform="translate(2783.18 427.9)">2<tspan class="cls-32" x="22.05" y="0">,</tspan><tspan class="cls-33" x="30.87" y="0">00</tspan><tspan class="cls-34" x="83.79" y="0">0,</tspan><tspan class="cls-33" x="117.81" y="0">00</tspan><tspan class="cls-34" x="170.73" y="0">0,</tspan><tspan x="204.75" y="0">000</tspan></text><text class="cls-30" transform="translate(1233.03 343.98)">生态基金</text><polyline class="cls-35" points="2362.93 590.98 2474.93 373.15 3128.55 373.15"/><circle class="cls-36" cx="3140.19" cy="373.15" r="11.64"/><circle class="cls-9" cx="3140.19" cy="373.15" r="6.48"/><rect class="cls-15" x="3077.83" y="562.91" width="167.86" height="74.1"/><text class="cls-27" transform="translate(3110.11 619.18)">2<tspan class="cls-28" x="30.04" y="0">0</tspan><tspan class="cls-29" x="65.21" y="0">%</tspan></text><text class="cls-30" transform="translate(3353.49 634.67)">私募额度</text><text class="cls-31" transform="translate(3307.93 715.3)">2<tspan class="cls-32" x="22.05" y="0">,</tspan><tspan class="cls-33" x="30.87" y="0">00</tspan><tspan class="cls-34" x="83.79" y="0">0,</tspan><tspan class="cls-33" x="117.81" y="0">00</tspan><tspan class="cls-34" x="170.73" y="0">0,</tspan><tspan x="204.75" y="0">000</tspan></text><text class="cls-37" transform="translate(3332.17 1040.76)"><tspan class="cls-38">T</tspan><tspan x="20.62" y="0">o</tspan><tspan class="cls-39" x="46.62" y="0">k</tspan><tspan x="68.96" y="0" xml:space="preserve">en 库存   </tspan></text><polyline class="cls-40" points="2578.01 995.14 3014.13 660.55 3667.75 660.55"/><polyline class="cls-40" points="2820.99 1116.44 2941.63 1066.83 3700.03 1066.83"/><circle class="cls-36" cx="3679.39" cy="660.55" r="11.64"/><circle class="cls-15" cx="3679.39" cy="660.55" r="6.48"/><circle class="cls-36" cx="3689.49" cy="1457.03" r="11.64"/><circle class="cls-15" cx="3689.49" cy="1457.03" r="6.48"/><circle class="cls-36" cx="3689.49" cy="1066.83" r="11.64"/><circle class="cls-7" cx="3689.49" cy="1066.83" r="6.48"/><circle class="cls-36" cx="3689.49" cy="1744.22" r="11.64"/><circle class="cls-41" cx="3689.49" cy="1744.22" r="6.48"/><circle class="cls-36" cx="3689.49" cy="2025.76" r="11.64"/><circle class="cls-42" cx="3689.49" cy="2025.76" r="6.48"/><g class="cls-43"><circle class="cls-7" cx="1977.68" cy="1166.04" r="843.31"/><circle class="cls-12" cx="1977.68" cy="1166.04" r="793.7"/><circle class="cls-12" cx="1977.68" cy="1166.04" r="744.09"/></g><line class="cls-44" x1="1977.83" y1="1168.13" x2="2770.01" y2="879.8"/><g class="cls-45"><circle class="cls-46" cx="1977.68" cy="1166.04" r="992.13"/><circle class="cls-12" cx="1977.68" cy="1166.04" r="843.31"/><circle class="cls-12" cx="1977.68" cy="1166.04" r="892.91"/><circle class="cls-12" cx="1977.68" cy="1166.04" r="942.52"/><circle class="cls-12" cx="1977.68" cy="1166.04" r="793.7"/><circle class="cls-12" cx="1977.68" cy="1166.04" r="744.09"/></g><g class="cls-47"><circle class="cls-48" cx="1977.68" cy="1166.04" r="1140.94"/><circle class="cls-12" cx="1977.68" cy="1166.04" r="1091.34"/><circle class="cls-12" cx="1977.68" cy="1166.04" r="793.7"/><circle class="cls-12" cx="1977.68" cy="1166.04" r="744.09"/><circle class="cls-12" cx="1977.68" cy="1166.04" r="992.13"/><circle class="cls-12" cx="1977.68" cy="1166.04" r="1041.73"/><circle class="cls-12" cx="1977.68" cy="1166.04" r="694.49"/><circle class="cls-12" cx="1977.68" cy="1166.04" r="843.31"/><circle class="cls-12" cx="1977.68" cy="1166.04" r="892.91"/><circle class="cls-12" cx="1977.68" cy="1166.04" r="942.52"/></g><g class="cls-49"><circle class="cls-50" cx="1977.68" cy="1166.04" r="1289.76"/><circle class="cls-12" cx="1977.68" cy="1166.04" r="1091.34"/><circle class="cls-12" cx="1977.68" cy="1166.04" r="1140.94"/><circle class="cls-12" cx="1977.68" cy="1166.04" r="1190.55"/><circle class="cls-12" cx="1977.68" cy="1166.04" r="1240.16"/><circle class="cls-12" cx="1977.68" cy="1166.04" r="793.7"/><circle class="cls-12" cx="1977.68" cy="1166.04" r="744.09"/><circle class="cls-12" cx="1977.68" cy="1166.04" r="992.13"/><circle class="cls-12" cx="1977.68" cy="1166.04" r="1041.73"/><circle class="cls-12" cx="1977.68" cy="1166.04" r="843.31"/><circle class="cls-12" cx="1977.68" cy="1166.04" r="892.91"/><circle class="cls-12" cx="1977.68" cy="1166.04" r="942.52"/></g><line class="cls-12" x1="1977.83" y1="1168.13" x2="2912.98" y2="1831.31"/><line class="cls-12" x1="1977.83" y1="1168.13" x2="3136.87" y2="2217.2"/><line class="cls-12" x1="1977.83" y1="1168.13" x2="2956.14" y2="1344.64"/><line class="cls-44" x1="1978.54" y1="1167.56" x2="2805.96" y2="2153.64"/><text class="cls-30" transform="translate(975.39 689.51)">学术基金</text><text class="cls-30" transform="translate(847.71 1004.65)">计算士基金</text><text class="cls-30" transform="translate(1069.95 1743.6)">预留</text><text class="cls-30" transform="translate(1488.31 2035.05)">La<tspan class="cls-51" x="55.75" y="0">t</tspan><tspan x="73.16" y="0">ticeX基金会</tspan></text><polyline class="cls-40" points="2897.2 1529.97 3017.92 1457.03 3677.85 1457.03"/><text class="cls-52" transform="translate(3125.99 1040.76)"><tspan class="cls-53">7</tspan><tspan x="14.28" y="0">.1</tspan><tspan class="cls-54" x="41.79" y="0">5</tspan><tspan class="cls-55" x="64.39" y="0">7</tspan><tspan class="cls-39" x="83.7" y="0">5</tspan><tspan x="105.88" y="0">%</tspan></text><rect class="cls-46" x="3115.89" y="1385.39" width="166.26" height="45.5"/><text class="cls-37" transform="translate(3332.17 1423.68)">私募销售（A轮）</text><text class="cls-52" transform="translate(3125.99 1423.68)">8.<tspan class="cls-56" x="35.11" y="0">6</tspan><tspan x="56.45" y="0">1</tspan><tspan class="cls-57" x="72.7" y="0">7</tspan><tspan class="cls-54" x="93.07" y="0">2</tspan><tspan x="114.95" y="0">%</tspan></text><text class="cls-37" transform="translate(3332.17 1710.21)">私募销售（B1轮）</text><polyline class="cls-58" points="2896.62 1822.39 2989.63 1744.22 3677.85 1744.22"/><rect class="cls-48" x="3115.89" y="1671.93" width="167.24" height="45.5"/><text class="cls-52" transform="translate(3125.99 1710.21)">1.<tspan class="cls-54" x="27.51" y="0">6</tspan><tspan class="cls-59" x="50.31" y="0">5</tspan><tspan class="cls-60" x="72.79" y="0">2</tspan><tspan x="94.75" y="0">9%</tspan></text><text class="cls-37" transform="translate(3332.17 1991.81)">私募销售（B2轮）</text><rect class="cls-50" x="3115.89" y="1953.52" width="167.24" height="45.5"/><text class="cls-52" transform="translate(3125.99 1991.81)">2.<tspan class="cls-54" x="33.56" y="0">5</tspan><tspan class="cls-61" x="56.15" y="0">7</tspan><tspan class="cls-62" x="76.52" y="0">2</tspan><tspan class="cls-63" x="98.28" y="0">4</tspan><tspan x="120.54" y="0">%</tspan></text><polyline class="cls-64" points="2896.62 2071.05 2969.84 2025.76 3677.85 2025.76"/><text class="cls-37" transform="translate(803.61 1378.66)"><tspan class="cls-54">A</tspan><tspan x="29.19" y="0">l</tspan><tspan class="cls-65" x="41.71" y="0">a</tspan><tspan class="cls-66" x="66.99" y="0">y</tspan><tspan class="cls-67" x="89.04" y="0">a专项基金</tspan></text><rect class="cls-26" x="840.76" y="273.93" width="167.86" height="74.1"/><text class="cls-68" transform="translate(873.89 330.2)">1<tspan class="cls-28" x="22.31" y="0">0</tspan><tspan x="57.49" y="0">%</tspan></text><text class="cls-31" transform="translate(1191.35 426.32)">1<tspan class="cls-34" x="14.28" y="0">,</tspan><tspan x="23.1" y="0">00</tspan><tspan class="cls-34" x="76.02" y="0">0,</tspan><tspan x="110.04" y="0">00</tspan><tspan class="cls-34" x="162.96" y="0">0,</tspan><tspan class="cls-33" x="196.98" y="0">000</tspan></text><circle class="cls-36" cx="787.77" cy="371.56" r="11.64"/><circle class="cls-26" cx="787.77" cy="371.56" r="6.48"/><polyline class="cls-69" points="1872.08 781.59 1728.8 371.56 787.77 371.56"/><rect class="cls-24" x="635.78" y="619.46" width="167.86" height="74.1"/><text class="cls-68" transform="translate(668.05 675.73)">1<tspan class="cls-28" x="22.31" y="0">0</tspan><tspan x="57.49" y="0">%</tspan></text><text class="cls-31" transform="translate(933.71 771.85)">1<tspan class="cls-34" x="14.28" y="0">,</tspan><tspan x="23.1" y="0">00</tspan><tspan class="cls-34" x="76.02" y="0">0,</tspan><tspan x="110.04" y="0">00</tspan><tspan class="cls-34" x="162.96" y="0">0,</tspan><tspan class="cls-33" x="196.98" y="0">000</tspan></text><polyline class="cls-70" points="1614.84 903.1 1418.43 717.1 583.9 717.1"/><rect class="cls-21" x="586.42" y="934.6" width="167.86" height="74.1"/><text class="cls-68" transform="translate(619.55 990.87)">1<tspan class="cls-28" x="22.31" y="0">0</tspan><tspan x="57.49" y="0">%</tspan></text><text class="cls-31" transform="translate(830.15 1086.99)">1<tspan class="cls-34" x="14.28" y="0">,</tspan><tspan x="23.1" y="0">00</tspan><tspan class="cls-34" x="76.02" y="0">0,</tspan><tspan x="110.04" y="0">00</tspan><tspan class="cls-34" x="162.96" y="0">0,</tspan><tspan class="cls-33" x="196.98" y="0">000</tspan></text><circle class="cls-36" cx="533.43" cy="1032.23" r="11.64"/><circle class="cls-71" cx="533.43" cy="1032.23" r="6.48"/><polyline class="cls-72" points="1481.66 1134.66 1254.32 1032.23 545.07 1032.23"/><rect class="cls-19" x="697.19" y="1673.56" width="167.86" height="74.1"/><text class="cls-68" transform="translate(732.69 1729.83)">1<tspan class="cls-28" x="22.31" y="0">5</tspan><tspan x="52.76" y="0">%</tspan></text><text class="cls-31" transform="translate(981.49 1825.94)">1,<tspan class="cls-54" x="24.36" y="0">5</tspan><tspan class="cls-33" x="46.62" y="0">0</tspan><tspan class="cls-32" x="73.08" y="0">0,</tspan><tspan x="107.1" y="0">00</tspan><tspan class="cls-32" x="160.02" y="0">0,</tspan><tspan x="194.04" y="0">000</tspan></text><circle class="cls-36" cx="572.26" cy="717.1" r="11.64"/><circle class="cls-24" cx="572.26" cy="717.1" r="6.48"/><circle class="cls-36" cx="640.95" cy="1771.19" r="11.64"/><circle class="cls-19" cx="640.95" cy="1771.19" r="6.48"/><polyline class="cls-73" points="1557.19 1513.27 1445.57 1771.19 652.59 1771.19"/><rect class="cls-17" x="1229.44" y="1966.72" width="167.86" height="74.1"/><text class="cls-68" transform="translate(1264.94 2022.99)">1<tspan class="cls-28" x="22.31" y="0">5</tspan><tspan x="52.76" y="0">%</tspan></text><text class="cls-31" transform="translate(1518.83 2119.11)">1,<tspan class="cls-54" x="24.36" y="0">5</tspan><tspan class="cls-33" x="46.62" y="0">0</tspan><tspan class="cls-32" x="73.08" y="0">0,</tspan><tspan x="107.1" y="0">00</tspan><tspan class="cls-32" x="160.02" y="0">0,</tspan><tspan x="194.04" y="0">000</tspan></text><circle class="cls-36" cx="1159.55" cy="2064.35" r="11.64"/><circle class="cls-17" cx="1159.55" cy="2064.35" r="6.48"/><polyline class="cls-74" points="2085.93 1749.75 1927.48 2064.35 1171.19 2064.35"/><rect class="cls-75" x="616.54" y="1342.37" width="161.3" height="45.5"/><text class="cls-52" transform="translate(670.04 1380.65)"><tspan class="cls-76">5</tspan><tspan x="22.18" y="0">%</tspan></text><text class="cls-77" transform="translate(841.08 1454.84)"><tspan class="cls-78">5</tspan><tspan x="18.02" y="0">0</tspan><tspan class="cls-79" x="39.44" y="0">0,</tspan><tspan x="66.98" y="0">00</tspan><tspan class="cls-80" x="109.82" y="0">0,</tspan><tspan x="137.36" y="0">000</tspan></text><circle class="cls-36" cx="572.26" cy="1405.24" r="11.64"/><circle class="cls-75" cx="572.26" cy="1405.24" r="6.48"/><g class="cls-81"><circle class="cls-75" cx="1976.83" cy="1164.46" r="843.31"/><circle class="cls-12" cx="1976.83" cy="1164.46" r="793.7"/><circle class="cls-12" cx="1976.83" cy="1164.46" r="744.09"/></g><polyline class="cls-44" points="1221.73 1538.49 1977.69 1165.98 1140.82 1275.84"/><polyline class="cls-82" points="580.43 1405.24 1107.83 1405.24 1163.94 1389.69"/></svg>