<?xml version="1.0" encoding="UTF-8"?>
<svg width="78px" height="99px" viewBox="0 0 78 99" version="1.1" xmlns="http://www.w3.org/2000/svg" xmlns:xlink="http://www.w3.org/1999/xlink">
    <!-- Generator: Sketch 61.2 (89653) - https://sketch.com -->
    <title>latticex forum logo</title>
    <desc>Created with Sketch.</desc>
    <g id="官网-文档页面规则" stroke="none" stroke-width="1" fill="none" fill-rule="evenodd">
        <g id="画板" transform="translate(-556.000000, -142.000000)" fill="#4E5454">
            <g id="latticex-forum-logo" transform="translate(556.000000, 142.000000)">
                <g id="编组-3" transform="translate(0.000000, 61.194030)">
                    <polygon id="Fill-1" points="3.09325466 24.4710829 3.09325466 28.1904404 9.18893903 28.1904404 9.18893903 31.1470753 3.09325466 31.1470753 3.09325466 37.1962356 -7.95383659e-14 37.1962356 -7.95383659e-14 21.514448 9.36885341 21.514448 9.36885341 24.4710829"></polygon>
                    <path d="M19.8766053,31.595399 C19.8766053,29.7802461 18.5547264,28.5040299 16.8284739,28.5040299 C15.1247831,28.5040299 13.8034826,29.7802461 13.8034826,31.595399 C13.8034826,33.4105518 15.1247831,34.6873462 16.8284739,34.6873462 C18.5547264,34.6873462 19.8766053,33.4105518 19.8766053,31.595399 M10.9121254,31.595399 C10.9121254,28.2576919 13.5339003,25.6809728 16.8284739,25.6809728 C20.1236261,25.6809728 22.767384,28.2576919 22.767384,31.595399 C22.767384,34.933106 20.1236261,37.5104034 16.8284739,37.5104034 C13.5339003,37.5104034 10.9121254,34.933106 10.9121254,31.595399" id="Fill-2"></path>
                    <path d="M31.1026264,25.7710076 L31.1026264,28.9971108 C29.600833,28.8172725 27.6958232,29.4897869 27.6958232,31.8421418 L27.6958232,37.1962356 L24.8050445,37.1962356 L24.8050445,25.9953718 L27.6958232,25.9953718 L27.6958232,27.9221286 C28.2783756,26.3978396 29.6910795,25.7710076 31.1026264,25.7710076" id="Fill-4"></path>
                    <path d="M43.0681476,25.9951984 L43.0681476,37.1960622 L40.1767905,37.1960622 L40.1767905,35.9412416 C39.5051487,36.9491459 38.338887,37.5100564 36.8370936,37.5100564 C34.461761,37.5100564 32.6012958,35.8521898 32.6012958,32.8730029 L32.6012958,25.9951984 L35.492653,25.9951984 L35.492653,32.5139045 C35.492653,34.0370369 36.4113155,34.8217335 37.7117899,34.8217335 C39.1239153,34.8217335 40.1767905,33.992511 40.1767905,32.0432022 L40.1767905,25.9951984 L43.0681476,25.9951984 Z" id="Fill-6"></path>
                    <path d="M62.340044,30.2965729 L62.340044,37.1963513 L59.4492653,37.1963513 L59.4492653,30.4978068 C59.4492653,29.1764865 58.7764665,28.3698162 57.5662386,28.3698162 C56.2889043,28.3698162 55.4818929,29.2210124 55.4818929,30.9014311 L55.4818929,37.1963513 L52.5905357,37.1963513 L52.5905357,30.4978068 C52.5905357,29.1764865 51.9183154,28.3698162 50.7080875,28.3698162 C49.4758764,28.3698162 48.6011801,29.2210124 48.6011801,30.9014311 L48.6011801,37.1963513 L45.7104015,37.1963513 L45.7104015,25.9954875 L48.6011801,25.9954875 L48.6011801,27.1820736 C49.2288557,26.2412473 50.2817309,25.6814932 51.7164179,25.6814932 C53.1059817,25.6814932 54.1368738,26.2632211 54.7645493,27.2942557 C55.4587527,26.2857732 56.5804697,25.6814932 58.1042462,25.6814932 C60.6589147,25.6814932 62.340044,27.4960678 62.340044,30.2965729" id="Fill-8"></path>
                    <polygon id="Fill-10" points="8.8579197 13.4768308 8.8579197 16.4340439 0.0675691311 16.4340439 0.0675691311 0.751099742 3.06247831 0.751099742 3.06247831 13.4768308"></polygon>
                    <path d="M18.4501331,10.8328602 C18.4501331,8.95120761 17.1699063,7.67383497 15.4332408,7.67383497 C13.7185584,7.67383497 12.4377531,8.95120761 12.4377531,10.8328602 C12.4377531,12.7150911 13.7185584,13.9924637 15.4332408,13.9924637 C17.1699063,13.9924637 18.4501331,12.7150911 18.4501331,10.8328602 L18.4501331,10.8328602 Z M21.2500868,5.23185005 L21.2500868,16.4344486 L18.4501331,16.4344486 L18.4501331,15.1119718 C17.6685757,16.1210326 16.4971075,16.7478646 14.9125882,16.7478646 C12.0264376,16.7478646 9.63837788,14.1711455 9.63837788,10.8328602 C9.63837788,7.49515314 12.0264376,4.91843403 14.9125882,4.91843403 C16.4971075,4.91843403 17.6685757,5.54526606 18.4501331,6.55432684 L18.4501331,5.23185005 L21.2500868,5.23185005 Z" id="Fill-12"></path>
                    <path d="M27.5434456,8.01049697 L27.5434456,12.6706808 C27.5434456,13.879819 28.3903737,13.9023711 29.9962976,13.812741 L29.9962976,16.433986 C26.0676848,16.8827145 24.7434918,15.6949719 24.7434918,12.6706808 L24.7434918,8.01049697 L22.8552586,8.01049697 L22.8552586,5.2319657 L24.7434918,5.2319657 L24.7434918,2.96924086 L27.5434456,2.09549253 L27.5434456,5.2319657 L29.9962976,5.2319657 L29.9962976,8.01049697 L27.5434456,8.01049697 Z" id="Fill-14"></path>
                    <path d="M34.6843689,8.01049697 L34.6843689,12.6706808 C34.6843689,13.879819 35.5307185,13.9023711 37.1366424,13.812741 L37.1366424,16.433986 C33.2086081,16.8827145 31.8844151,15.6949719 31.8844151,12.6706808 L31.8844151,8.01049697 L29.9961819,8.01049697 L29.9961819,5.2319657 L31.8844151,5.2319657 L31.8844151,2.96924086 L34.6843689,2.09549253 L34.6843689,5.2319657 L38.4388523,5.2319657 L38.4388523,8.01049697 L34.6843689,8.01049697 Z" id="Fill-16"></path>
                    <path d="M38.1135601,2.11775547 C38.1135601,1.1543771 38.8951174,0.325154658 39.8282425,0.325154658 C40.7827722,0.325154658 41.564908,1.1543771 41.564908,2.11775547 C41.564908,3.08113385 40.7827722,3.88780422 39.8282425,3.88780422 C38.8951174,3.88780422 38.1135601,3.08113385 38.1135601,2.11775547" id="Fill-18"></path>
                    <polygon id="Fill-20" points="38.4387944 16.4338704 41.2387481 16.4338704 41.2387481 5.23185005 38.4387944 5.23185005"></polygon>
                    <path d="M42.7308226,10.8328602 C42.7308226,7.49515314 45.1634271,5.02252053 48.4608932,4.91843403 C50.5377184,4.85251259 52.0319912,5.88065589 52.0319912,5.88065589 L50.8414324,8.1549459 C50.0269004,7.85309505 49.3610436,7.75652591 48.4389101,7.76346501 C46.7681939,7.77734321 45.5307764,9.04083765 45.5307764,10.8328602 C45.5307764,12.6034872 46.5952216,13.6709521 48.2566817,13.8559948 C49.1169154,13.9519856 50.1264029,13.7426561 50.8414324,13.4847529 L52.0319912,15.7833298 C52.0319912,15.7833298 50.8055652,16.7478646 48.4608932,16.7478646 C45.1616915,16.7478646 42.7308226,14.1711455 42.7308226,10.8328602" id="Fill-22"></path>
                    <path d="M60.4537198,9.78025658 C60.1060396,8.16691584 58.9339928,7.51753174 57.7625246,7.51753174 C56.2647807,7.51753174 55.2443017,8.34675418 54.9191832,9.78025658 L60.4537198,9.78025658 Z M58.0228509,14.1270244 C59.1081222,14.1270244 59.9758764,13.6557439 60.4537198,13.0063598 L62.7104593,14.3508104 C61.6905588,15.8739428 60.0626519,16.7476912 57.9794631,16.7476912 C54.3331598,16.7476912 52.0318755,14.1715503 52.0318755,10.8326867 C52.0318755,7.49497967 54.3545644,4.91883882 57.7625246,4.91883882 C60.9743723,4.91883882 63.253095,7.53950556 63.253095,10.8326867 C63.253095,11.2588631 63.2102858,11.6399354 63.1443365,12.0204293 L54.9625709,12.0204293 C55.3530603,13.4996141 56.5465116,14.1270244 58.0228509,14.1270244 L58.0228509,14.1270244 Z" id="Fill-23"></path>
                    <polygon id="Fill-24" points="73.8784566 16.4341595 70.502314 11.3258254 67.1261715 16.4341595 63.253095 16.4341595 68.5654865 8.39116442 63.5261483 0.751215394 67.3992248 0.751215394 70.502314 5.45650341 73.6048247 0.751215394 77.4779012 0.751215394 72.438563 8.36861235 77.7758302 16.4341595"></polygon>
                </g>
                <g id="编组-2" transform="translate(6.000000, 0.000000)">
                    <polygon id="Fill-25" points="21.0452968 -5.40198069e-13 15.7334837 3.0653474 21.0452968 6.13069479"></polygon>
                    <polygon id="Fill-26" points="12.156485 7.01473612 6.84467199 10.0800835 12.156485 13.1454309"></polygon>
                    <polygon id="Fill-27" points="14.0247599 18.2439346 8.71294689 21.309282 14.0247599 24.3752076"></polygon>
                    <polygon id="Fill-28" points="25.1552702 16.3165996 19.8440356 19.381947 25.1552702 22.4472944"></polygon>
                    <polygon id="Fill-29" points="27.894134 27.4485928 22.5828995 30.5139402 27.894134 33.5792876"></polygon>
                    <polygon id="Fill-30" points="33.2966563 3.98229163 27.9848432 7.04763902 33.2966563 10.1129864"></polygon>
                    <polygon id="Fill-31" points="35.3304987 12.7080941 30.0192641 15.7734415 35.3304987 18.8387889"></polygon>
                    <polygon id="Fill-32" points="37.5795441 23.0523839 32.2677311 26.1177313 37.5795441 29.1830787"></polygon>
                    <polygon id="Fill-33" points="43.3560685 19.7200546 38.0442555 22.785402 43.3560685 25.8507494"></polygon>
                    <polygon id="Fill-34" points="49.1179567 16.3922358 43.8067222 19.4575832 49.1179567 22.5229306"></polygon>
                    <polygon id="Fill-35" points="43.3498785 13.0649952 38.0380655 16.1303426 43.3498785 19.19569"></polygon>
                    <polygon id="Fill-36" points="50.0794863 25.689531 44.7676733 28.7548784 50.0794863 31.8202258"></polygon>
                    <polygon id="Fill-37" points="44.3221104 29.0207616 39.0102974 32.086109 44.3221104 35.1514564"></polygon>
                    <polygon id="Fill-38" points="35.7180377 32.3355696 30.4062247 35.400917 35.7180377 38.4662644"></polygon>
                    <polygon id="Fill-39" points="55.846986 22.3589365 50.5357515 25.4248622 55.846986 28.4902096"></polygon>
                    <polygon id="Fill-40" points="18.2104015 31.0909842 12.899167 34.1563316 18.2104015 37.221679"></polygon>
                    <polygon id="Fill-41" points="29.942034 35.6695758 24.6307995 38.7349232 29.942034 41.8002706"></polygon>
                    <polygon id="Fill-42" points="24.1937406 38.9968164 18.8819276 42.0621638 24.1937406 45.1275112"></polygon>
                    <polygon id="Fill-43" points="29.9471248 42.3297239 24.6353118 45.3950713 29.9471248 48.4604187"></polygon>
                    <polygon id="Fill-44" points="35.7106907 39.0008064 30.3988777 42.0661538 35.7106907 45.1315012"></polygon>
                    <polygon id="Fill-45" points="44.3198542 42.3297239 39.0086197 45.3950713 44.3198542 48.4604187"></polygon>
                    <polygon id="Fill-46" points="44.3125072 35.6695758 39.0012727 38.7349232 44.3125072 41.8002706"></polygon>
                    <polygon id="Fill-47" points="50.0834201 32.3508356 44.7716071 35.416183 50.0834201 38.4815304"></polygon>
                    <polygon id="Fill-48" points="55.86168 29.0207616 50.5504454 32.086109 55.86168 35.1514564"></polygon>
                    <polygon id="Fill-49" points="55.8560106 35.6809097 50.5441976 38.7462571 55.8560106 41.8116045"></polygon>
                    <polygon id="Fill-50" points="50.0896679 39.0058951 44.7778549 42.0712425 50.0896679 45.1365899"></polygon>
                    <polygon id="Fill-51" points="35.7174592 45.6592198 30.4056462 48.7245671 35.7174592 51.7899145"></polygon>
                    <polygon id="Fill-52" points="1.84926701e-13 10.3448102 5.31123453 13.4101576 1.84926701e-13 16.475505"></polygon>
                    <polygon id="Fill-53" points="16.9816615 10.3448102 22.292896 13.4101576 16.9816615 16.475505"></polygon>
                    <polygon id="Fill-54" points="9.52776814 26.5151682 14.8395812 29.5805156 9.52776814 32.645863"></polygon>
                    <polygon id="Fill-55" points="20.4018281 32.030654 25.7136411 35.0960014 20.4018281 38.1613488"></polygon>
                    <polygon id="Fill-56" points="11.9881407 36.5798701 17.2993752 39.6452175 11.9881407 42.7105649"></polygon>
                    <polygon id="Fill-57" points="24.497686 39.007572 29.809499 42.0729194 24.497686 45.1382668"></polygon>
                    <polygon id="Fill-58" points="30.2539049 35.6695758 35.5651394 38.7349232 30.2539049 41.8002706"></polygon>
                    <polygon id="Fill-59" points="30.2533264 29.010006 35.5645609 32.0753534 30.2533264 35.1407008"></polygon>
                    <polygon id="Fill-60" points="30.1612287 18.8853966 35.4724633 21.950744 30.1612287 25.0160914"></polygon>
                    <polygon id="Fill-61" points="22.426588 24.1253422 27.738401 27.1906896 22.426588 30.256037"></polygon>
                    <polygon id="Fill-62" points="27.8421266 7.32248521 33.1533611 10.3878326 27.8421266 13.45318"></polygon>
                    <polygon id="Fill-63" points="37.8868448 23.0495504 43.1980794 26.1148978 37.8868448 29.1802452"></polygon>
                    <polygon id="Fill-64" points="37.9072081 16.3922358 43.2190212 19.4575832 37.9072081 22.5229306"></polygon>
                    <polygon id="Fill-65" points="36.6857573 7.2909123 41.9975703 10.3562597 36.6857573 13.4216071"></polygon>
                    <polygon id="Fill-66" points="43.6538239 13.0599065 48.9650584 16.1252539 43.6538239 19.1906013"></polygon>
                    <polygon id="Fill-67" points="43.6616915 19.726242 48.9729261 22.7915894 43.6616915 25.8569368"></polygon>
                    <polygon id="Fill-68" points="49.419646 16.3939127 54.731459 19.4592601 49.419646 22.5246075"></polygon>
                    <polygon id="Fill-69" points="50.3902002 25.6872758 55.7020132 28.7526232 50.3902002 31.8179706"></polygon>
                    <polygon id="Fill-70" points="44.6130973 29.0207616 49.9249103 32.086109 44.6130973 35.1514564"></polygon>
                    <polygon id="Fill-71" points="38.8489529 32.3508356 44.1601874 35.416183 38.8489529 38.4815304"></polygon>
                    <polygon id="Fill-72" points="44.6300474 35.6809097 49.9418605 38.7462571 44.6300474 41.8116045"></polygon>
                    <polygon id="Fill-73" points="50.3873655 32.3541895 55.6991785 35.4195369 50.3873655 38.4848843"></polygon>
                    <polygon id="Fill-74" points="50.3930348 39.0086707 55.7042694 42.0740181 50.3930348 45.1393655"></polygon>
                    <polygon id="Fill-75" points="44.6215434 42.3387448 49.9333565 45.4040922 44.6215434 48.4694396"></polygon>
                    <polygon id="Fill-76" points="38.8528867 45.659798 44.1646998 48.7251454 38.8528867 51.7904928"></polygon>
                    <polygon id="Fill-77" points="30.2539049 42.3331357 35.5651394 45.3984831 30.2539049 48.4638305"></polygon>
                    <polygon id="Fill-78" points="38.8483744 39.0008064 44.1596089 42.0661538 38.8483744 45.1315012"></polygon>
                </g>
            </g>
        </g>
    </g>
</svg>