<?xml version="1.0" encoding="UTF-8"?>
<svg width="100px" height="99px" viewBox="0 0 100 99" version="1.1" xmlns="http://www.w3.org/2000/svg" xmlns:xlink="http://www.w3.org/1999/xlink">
    <!-- Generator: Sketch 61.2 (89653) - https://sketch.com -->
    <title>platscan logo</title>
    <desc>Created with Sketch.</desc>
    <g id="官网-文档页面规则" stroke="none" stroke-width="1" fill="none" fill-rule="evenodd">
        <g id="画板" transform="translate(-210.000000, -141.000000)">
            <g id="platscan-logo" transform="translate(210.000000, 141.000000)">
                <g id="Group" transform="translate(17.000000, 0.000000)" fill-rule="nonzero">
                    <polygon id="Rectangle-path" fill="#FBB613" points="24.9520285 24.9547511 41.2615817 24.9547511 41.2615817 41.2217195 24.9520285 41.2217195"></polygon>
                    <g transform="translate(9.073465, 9.049774)" fill="#1D2337" id="Shape">
                        <path d="M8.05270011,47.918552 L41.0347451,47.918552 C44.8456003,47.918552 47.9532621,44.8190045 47.9532621,41.0180995 L47.9532621,8.12217195 L40.3769189,8.12217195 L40.3769189,40.3393665 L8.05270011,40.3393665 L8.05270011,47.918552 Z"></path>
                        <path d="M40.0366639,7.760181 L40.0366639,0.180995475 L7.05461897,0.180995475 C3.24376371,0.180995475 0.136101974,3.28054299 0.136101974,7.08144796 L0.136101974,39.9773756 L7.71244518,39.9773756 L7.71244518,7.760181 L40.0366639,7.760181 Z"></path>
                    </g>
                    <polygon id="Rectangle-path" fill="#00B6DC" points="57.026727 0.20361991 66.0775082 0.20361991 66.0775082 9.23076923 57.026727 9.23076923"></polygon>
                    <polygon id="Rectangle-path" fill="#EA106E" points="0.158785636 56.9683258 9.20956689 56.9683258 9.20956689 65.9954751 0.158785636 65.9954751"></polygon>
                </g>
                <g id="logo-字" transform="translate(0.000000, 81.000000)" fill="#1D2337">
                    <g id="logo-字-copy" transform="translate(0.596132, 0.527294)">
                        <path d="M14.6172039,0 L16.6634166,0 C17.0581378,2.78073715e-16 17.3781225,0.319984723 17.3781225,0.714705882 L17.3781225,16.4636471 C17.3781225,16.8583682 17.0581378,17.1783529 16.6634166,17.1783529 L14.6172039,17.1783529 C14.2224827,17.1783529 13.902498,16.8583682 13.902498,16.4636471 L13.902498,0.714705882 C13.902498,0.319984723 14.2224827,7.25091007e-17 14.6172039,0 Z" id="Rectangle-3"></path>
                        <path d="M6.78613054,0 C9.94857799,-2.35728901e-15 12.5122482,2.56367019 12.5122482,5.72611765 C12.5122482,8.8885651 9.94857799,11.4522353 6.78613054,11.4522353 L2.88744189,11.4522353 L2.88744189,17.1783529 L0,17.1783529 L0,0 L6.78613054,0 Z M2.88744189,8.58917647 L6.76174747,8.58917647 C8.3429712,8.58917647 9.6248063,7.30734137 9.6248063,5.72611765 C9.6248063,4.14489392 8.3429712,2.86305882 6.76174747,2.86305882 L6.76174747,2.86305882 L2.88744189,2.86305882 L2.88744189,8.58917647 Z" id="Combined-Shape"></path>
                        <path d="M31.9757454,6.60705882 L31.9757454,17.1783529 L29.0883035,17.1783529 L29.0883828,15.8323975 C28.0666876,16.6694006 26.7174718,17.1783529 25.238381,17.1783529 C22.0490007,17.1783529 19.4634972,14.8118881 19.4634972,11.8927059 C19.4634972,8.97352362 22.0490007,6.60705882 25.238381,6.60705882 C26.7174718,6.60705882 28.0666876,7.11601117 29.0883828,7.95301428 L29.0883035,6.60705882 L31.9757454,6.60705882 Z M25.238381,9.24988235 C23.6436908,9.24988235 22.3509391,10.4331148 22.3509391,11.8927059 C22.3509391,13.352297 23.6436908,14.5355294 25.238381,14.5355294 C26.8330711,14.5355294 28.1258228,13.352297 28.1258228,11.8927059 C28.1258228,10.4331148 26.8330711,9.24988235 25.238381,9.24988235 Z" id="Combined-Shape"></path>
                        <path d="M34.756245,3.96423529 L38.2318695,3.96423529 L38.2318695,6.60705882 L41.707494,6.60705882 L41.707494,9.24988235 L38.2318695,9.24988235 L38.2318695,13.8208235 C38.2318695,14.2155447 38.5518542,14.5355294 38.9465753,14.5355294 L41.707494,14.5355294 L41.707494,14.5355294 L41.707494,17.1783529 L37.6150685,17.1783529 C36.0361839,17.1783529 34.756245,15.898414 34.756245,14.3195294 L34.756245,3.96423529 L34.756245,3.96423529 Z" id="Rectangle-5"></path>
                        <path d="M46.7903529,11.3602495 C46.7903529,11.9121672 46.895597,12.3797571 47.1060883,12.7630333 C47.3165796,13.1463095 47.5958811,13.4567586 47.9440014,13.6943898 C48.2921216,13.932021 48.7009543,14.1083254 49.1705118,14.2233083 C49.6400693,14.3382911 50.1258112,14.3957817 50.627752,14.3957817 C50.9677764,14.3957817 51.3320828,14.3689528 51.7206821,14.3152941 C52.1092814,14.2616355 52.4735878,14.1581524 52.8136122,14.004842 C53.1536366,13.8515315 53.436986,13.6407327 53.6636689,13.3724394 C53.8903519,13.1041461 54.0036916,12.7630354 54.0036916,12.3490971 C54.0036916,11.9044967 53.8539212,11.5442225 53.5543759,11.2682636 C53.2548306,10.9923048 52.8621893,10.7623425 52.3764401,10.57837 C51.890691,10.3943974 51.3401835,10.2334238 50.7249013,10.0954444 C50.1096191,9.95746494 49.4862503,9.80415676 48.8547765,9.63551524 C48.2071109,9.48220476 47.5756465,9.29440225 46.9603643,9.07210206 C46.345082,8.84980187 45.7945746,8.56234903 45.3088254,8.20973494 C44.8230763,7.85712085 44.430435,7.41635984 44.1308897,6.8874387 C43.8313444,6.35851755 43.681574,5.71845592 43.681574,4.96723459 C43.681574,4.12402697 43.8718229,3.39198043 44.2523263,2.771073 C44.6328298,2.15016557 45.1307152,1.63275048 45.7459975,1.21881219 C46.3612797,0.804873905 47.0575097,0.498257552 47.8347084,0.298953933 C48.611907,0.0996503146 49.389094,0 50.1662926,0 C51.0730243,0 51.9433118,0.0958176102 52.7771812,0.287455705 C53.6110505,0.4790938 54.3518069,0.789542857 54.9994724,1.21881219 C55.6471379,1.64808152 56.1612147,2.19615825 56.5417182,2.86305882 C56.9222217,3.52995939 57.1124706,4.33866002 57.1124706,5.28918498 L53.4207956,5.28918498 C53.3884123,4.79859145 53.2791204,4.39232478 53.0929165,4.07037279 C52.9067127,3.74842079 52.6597939,3.49546229 52.3521528,3.31148972 C52.0445117,3.12751715 51.6923488,2.9972052 51.2956537,2.92054996 C50.8989586,2.84389473 50.4658387,2.80556768 49.9962812,2.80556768 C49.6886401,2.80556768 49.3810036,2.83622932 49.0733625,2.89755351 C48.7657214,2.9588777 48.4864198,3.06619342 48.2354494,3.2195039 C47.984479,3.37281437 47.7780387,3.56444959 47.6161223,3.79441531 C47.454206,4.02438102 47.373249,4.31566656 47.373249,4.66828065 C47.373249,4.99023265 47.4380146,5.25085655 47.5675477,5.45016017 C47.6970808,5.64946379 47.9520952,5.8334336 48.3325987,6.00207512 C48.7131022,6.17071665 49.2393226,6.33935564 49.9112756,6.50799717 C50.5832285,6.67663869 51.4616117,6.89127014 52.5464515,7.15189794 C52.8702842,7.21322214 53.3195955,7.32437056 53.8943986,7.48534656 C54.4692018,7.64632256 55.0399484,7.90311376 55.6066558,8.25572785 C56.1733631,8.60834195 56.6631528,9.07976459 57.0760396,9.67000992 C57.4889264,10.2602553 57.6953666,11.015298 57.6953666,11.9351609 C57.6953666,12.6863822 57.5415484,13.3839344 57.2339073,14.0278384 C56.9262661,14.6717424 56.4688592,15.2274846 55.8616728,15.6950815 C55.2544864,16.1626785 54.5015865,16.5267854 53.6029506,16.7874132 C52.7043147,17.048041 51.6640175,17.1783529 50.4820279,17.1783529 C49.5267213,17.1783529 48.5997639,17.0672045 47.701128,16.8449043 C46.8024921,16.6226041 46.0091137,16.273828 45.3209691,15.7985656 C44.6328245,15.3233031 44.0863649,14.7177358 43.681574,13.9818455 C43.276783,13.2459552 43.0824863,12.3720986 43.0986779,11.3602495 L46.7903529,11.3602495 Z" id="S"></path>
                        <path d="M70.9027397,10.5712639 L67.7397591,10.5712639 C67.5161443,9.53674121 66.5444331,9.24986219 65.3417405,9.24986219 C64.2422771,9.24986219 62.9623323,9.72982199 62.9623323,11.8926656 C62.9623323,14.0809145 64.2422771,14.5354689 65.3417405,14.5354689 C66.4914023,14.5354689 67.5407642,14.4204592 67.7397591,13.2140672 L70.9027397,13.2140672 C70.5412922,16.554752 68.6140341,17.1783529 65.3444545,17.1783529 C62.1682929,17.1783529 59.7807413,15.8479182 59.7807413,11.8926656 C59.7807413,7.93741287 62.0458705,6.60705882 65.3417405,6.60705882 C68.5179035,6.60705882 70.6878486,7.74707425 70.9027397,10.5712639 Z" id="路径"></path>
                        <path d="M84.8052377,6.60705882 L84.8052377,17.1783529 L81.9177958,17.1783529 L81.9178752,15.8323975 C80.89618,16.6694006 79.5469641,17.1783529 78.0678733,17.1783529 C74.8784931,17.1783529 72.2929895,14.8118881 72.2929895,11.8927059 C72.2929895,8.97352362 74.8784931,6.60705882 78.0678733,6.60705882 C79.5469641,6.60705882 80.89618,7.11601117 81.9178752,7.95301428 L81.9177958,6.60705882 L84.8052377,6.60705882 Z M78.0678733,9.24988235 C76.4731832,9.24988235 75.1804314,10.4331148 75.1804314,11.8927059 C75.1804314,13.352297 76.4731832,14.5355294 78.0678733,14.5355294 C79.6625634,14.5355294 80.9553152,13.352297 80.9553152,11.8927059 C80.9553152,10.4331148 79.6625634,9.24988235 78.0678733,9.24988235 Z" id="Combined-Shape-Copy"></path>
                        <path d="M98.7077357,17.1783529 L95.4791391,17.1783529 L95.4791391,12.3886296 C95.4791391,11.2724407 95.4102017,10.550498 95.272325,10.2227798 C95.1344483,9.89506152 94.9104021,9.64035364 94.6001795,9.45864847 C94.2899569,9.2769433 93.9165464,9.18609208 93.4799369,9.18609208 C92.9207702,9.18609208 92.4190598,9.31587954 91.9747904,9.57545835 C91.530521,9.83503716 91.2260479,10.1789739 91.0613618,10.607279 C90.8966757,11.035584 90.8143339,11.8272875 90.8143339,12.9824132 L90.8143339,17.1783529 L87.5857373,17.1783529 L87.5857373,6.84067858 L90.5845406,6.84067858 L90.5845406,8.35920702 C91.6492551,7.19110238 92.989703,6.60705882 94.6059243,6.60705882 C95.3182873,6.60705882 95.9693619,6.71575582 96.5591678,6.93315307 C97.1489737,7.15055032 97.5951514,7.42797101 97.8977141,7.76542346 C98.2002769,8.10287592 98.4109187,8.48574891 98.5296458,8.91405395 C98.648373,9.34235898 98.7077357,9.95560472 98.7077357,10.7538096 L98.7077357,17.1783529 Z" id="路径"></path>
                    </g>
                </g>
            </g>
        </g>
    </g>
</svg>