<?xml version="1.0" encoding="UTF-8"?>
<svg width="40px" height="40px" viewBox="0 0 40 40" version="1.1" xmlns="http://www.w3.org/2000/svg" xmlns:xlink="http://www.w3.org/1999/xlink">
    <!-- Generator: Sketch 61.2 (89653) - https://sketch.com -->
    <title>6.文档</title>
    <desc>Created with Sketch.</desc>
    <g id="6.文档" stroke="none" stroke-width="1" fill="none" fill-rule="evenodd">
        <g id="文档-(2)" transform="translate(3.000000, 0.000000)" fill-rule="nonzero">
            <path d="M29.5008117,39.7564935 L5.60470779,39.7564935 C2.48782468,39.7564935 0.0202922078,37.1590909 0.0202922078,33.9772727 L0.0202922078,5.79545455 C0.0202922078,2.61363636 2.55275974,0.0162337662 5.60470779,0.0162337662 L21.3189935,0.0162337662 C22.0332792,0.0162337662 22.6826299,0.275974026 23.2021104,0.665584416 L33.9813312,9.36688312 C34.6956169,9.9512987 35.1501623,10.8603896 35.1501623,11.8344156 L35.1501623,33.9772727 C35.0852273,37.1590909 32.6176948,39.7564935 29.5008117,39.7564935 Z M5.60470779,2.48376623 C3.85146104,2.48376623 2.48782468,3.97727273 2.48782468,5.79545455 L2.48782468,33.9772727 C2.48782468,35.7954545 3.9163961,37.288961 5.60470779,37.288961 L29.5008117,37.288961 C31.2540584,37.288961 32.6176948,35.7954545 32.6176948,33.9772727 L32.6176948,11.8344156 C32.6176948,11.6396104 32.5527597,11.4448052 32.3579545,11.3149351 L21.6436688,2.61363636 C21.5787338,2.5487013 21.4488636,2.48376623 21.3189935,2.48376623 L5.60470779,2.48376623 Z" id="形状" fill="#E40065"></path>
            <path d="M23.7215909,19.6915584 L6.44886364,19.6915584 C5.79951299,19.6915584 5.2150974,19.1071429 5.2150974,18.4577922 C5.2150974,17.8084416 5.79951299,17.224026 6.44886364,17.224026 L23.7215909,17.224026 C24.3709416,17.224026 24.9553571,17.8084416 24.9553571,18.4577922 C24.9553571,19.1071429 24.3709416,19.6915584 23.7215909,19.6915584 Z M23.7215909,25.3409091 L6.44886364,25.3409091 C5.79951299,25.3409091 5.2150974,24.7564935 5.2150974,24.1071429 C5.2150974,23.4577922 5.79951299,22.8733766 6.44886364,22.8733766 L23.7215909,22.8733766 C24.3709416,22.8733766 24.9553571,23.4577922 24.9553571,24.1071429 C24.9553571,24.7564935 24.3709416,25.3409091 23.7215909,25.3409091 Z M16.5787338,31.6396104 L5.92938312,31.6396104 C5.28003247,31.6396104 4.69561688,31.0551948 4.69561688,30.4058442 C4.69561688,29.7564935 5.28003247,29.1720779 5.92938312,29.1720779 L16.5787338,29.1720779 C17.2280844,29.1720779 17.8125,29.7564935 17.8125,30.4058442 C17.8125,31.0551948 17.2280844,31.6396104 16.5787338,31.6396104 Z" id="形状" fill="#FFB7D7"></path>
            <path d="M33.3319805,12.9383117 L25.7345779,12.9383117 C23.4618506,12.9383117 21.6436688,11.1201299 21.6436688,8.8474026 L21.6436688,1.63961039 L24.1112013,1.63961039 L24.1112013,8.8474026 C24.1112013,9.75649351 24.825487,10.4707792 25.7345779,10.4707792 L33.3319805,10.4707792 L33.3319805,12.9383117 L33.3319805,12.9383117 Z" id="路径" fill="#E40065"></path>
        </g>
    </g>
</svg>