<svg id="图层_1" data-name="图层 1" xmlns="http://www.w3.org/2000/svg" xmlns:xlink="http://www.w3.org/1999/xlink" viewBox="0 0 4222.92 2489.56"><defs><style>.cls-1,.cls-15,.cls-17,.cls-18,.cls-27,.cls-49,.cls-52,.cls-57,.cls-64,.cls-71,.cls-73,.cls-77,.cls-79,.cls-80,.cls-81,.cls-94{fill:none;}.cls-2{font-size:44px;letter-spacing:-0.04em;}.cls-105,.cls-2,.cls-32,.cls-35,.cls-38,.cls-42,.cls-90{fill:#3a3a3a;}.cls-105,.cls-2,.cls-35,.cls-38{font-family:Gilroy-Regular, Gilroy;}.cls-3{letter-spacing:-0.07em;}.cls-4{letter-spacing:-0.04em;}.cls-5{letter-spacing:-0.07em;}.cls-6{letter-spacing:-0.04em;}.cls-7{font-family:AdobeSongStd-Light-GBpc-EUC-H, Adobe Song Std;}.cls-10,.cls-11,.cls-12,.cls-32,.cls-42,.cls-8,.cls-9,.cls-90{font-family:Gilroy-Bold, Gilroy;font-weight:700;}.cls-8{letter-spacing:-0.04em;}.cls-9{letter-spacing:-0.02em;}.cls-10{letter-spacing:-0.09em;}.cls-11{letter-spacing:-0.11em;}.cls-13{fill:#f4f4f4;stroke:#f2f2f2;}.cls-13,.cls-15,.cls-17,.cls-18,.cls-27,.cls-49,.cls-52,.cls-57,.cls-64,.cls-71,.cls-73,.cls-77,.cls-79,.cls-80,.cls-81,.cls-94{stroke-miterlimit:10;}.cls-13,.cls-15,.cls-17{stroke-width:2px;}.cls-14{fill:#d5a6bc;}.cls-15{stroke:#e8e8e8;}.cls-16{clip-path:url(#clip-path);}.cls-17,.cls-27{stroke:#fff;}.cls-18{stroke:#ae00ae;}.cls-19{clip-path:url(#clip-path-2);}.cls-20{fill:#00aced;}.cls-20,.cls-54{opacity:0.64;}.cls-21{clip-path:url(#clip-path-3);}.cls-22{fill:#3f68b0;}.cls-22,.cls-24,.cls-26,.cls-29,.cls-53,.cls-59,.cls-61,.cls-72,.cls-83{opacity:0.3;}.cls-23{clip-path:url(#clip-path-4);}.cls-24{fill:#01b3c1;}.cls-25{clip-path:url(#clip-path-5);}.cls-26{fill:#2e88c7;}.cls-27,.cls-57{stroke-width:6px;}.cls-28{clip-path:url(#clip-path-6);}.cls-29{fill:#8dc4d3;}.cls-30{clip-path:url(#clip-path-7);}.cls-31{fill:#afd2d0;}.cls-32,.cls-42{font-size:57.66px;}.cls-32{letter-spacing:-0.01em;}.cls-33{letter-spacing:-0.02em;}.cls-34{letter-spacing:0em;}.cls-35{font-size:49.03px;}.cls-36{letter-spacing:-0.09em;}.cls-37{letter-spacing:0em;}.cls-38,.cls-48,.cls-90{font-size:42px;}.cls-39{letter-spacing:-0.03em;}.cls-40{letter-spacing:0em;}.cls-41{letter-spacing:-0.03em;}.cls-43{letter-spacing:-0.01em;}.cls-44{letter-spacing:0em;}.cls-45{letter-spacing:-0.02em;}.cls-46{letter-spacing:-0.03em;}.cls-47{letter-spacing:-0.02em;}.cls-49{stroke:#d5a6bc;}.cls-50{fill:#f7f7f7;}.cls-51{letter-spacing:-0.02em;}.cls-52,.cls-57{stroke:#00aced;}.cls-53{fill:#36b9ed;}.cls-54,.cls-61{fill:#0086ff;}.cls-55,.cls-63{fill:#0041ff;}.cls-55{opacity:0.46;}.cls-56{clip-path:url(#clip-path-8);}.cls-58{clip-path:url(#clip-path-9);}.cls-59{fill:#00a4ff;}.cls-60{clip-path:url(#clip-path-10);}.cls-62{clip-path:url(#clip-path-11);}.cls-63{opacity:0.1;}.cls-64{stroke:#afd2d0;}.cls-65{letter-spacing:-0.06em;}.cls-66{letter-spacing:-0.06em;}.cls-67{letter-spacing:-0.05em;}.cls-68{letter-spacing:-0.04em;}.cls-69{letter-spacing:-0.07em;}.cls-70{letter-spacing:-0.04em;}.cls-71{stroke:#8dc4d3;}.cls-72{fill:#5188c7;}.cls-73{stroke:#5188c7;}.cls-74{letter-spacing:-0.01em;}.cls-75{letter-spacing:-0.02em;}.cls-76{letter-spacing:-0.01em;}.cls-77{stroke:#01b3c1;}.cls-78{letter-spacing:0em;}.cls-79{stroke:#3f68b0;}.cls-80{stroke:#0086ff;}.cls-81{stroke:#0041ff;}.cls-82{clip-path:url(#clip-path-12);}.cls-83{fill:#2f6cff;}.cls-84{letter-spacing:-0.09em;}.cls-85{letter-spacing:-0.05em;}.cls-86{letter-spacing:-0.07em;}.cls-87{letter-spacing:0em;}.cls-88{letter-spacing:0em;}.cls-89{letter-spacing:0.01em;}.cls-91{letter-spacing:-0.15em;}.cls-92{letter-spacing:-0.03em;}.cls-93{letter-spacing:-0.02em;}.cls-94{stroke:#2f6cff;}.cls-95{letter-spacing:-0.02em;}.cls-96{letter-spacing:0em;}.cls-97{letter-spacing:0em;}.cls-98{letter-spacing:-0.04em;}.cls-99{letter-spacing:0em;}.cls-100{letter-spacing:-0.04em;}.cls-101{letter-spacing:-0.01em;}.cls-102{letter-spacing:-0.01em;}.cls-103{letter-spacing:-0.01em;}.cls-104{letter-spacing:3.12em;}.cls-105{font-size:34px;}.cls-106{letter-spacing:-0.01em;}.cls-107{letter-spacing:-0.03em;}.cls-108{letter-spacing:-0.03em;}</style><clipPath id="clip-path"><polygon class="cls-1" points="1977.26 435.26 1977.26 1164.46 2706.86 898.91 2303.56 447.12 1977.26 435.26"/></clipPath><clipPath id="clip-path-2"><polygon class="cls-1" points="2595.78 939.34 1977.26 1164.46 2397.83 1665.68 2537.32 1554.2 2669 1205.03 2595.78 939.34"/></clipPath><clipPath id="clip-path-3"><path class="cls-1" d="M1790.41,1757.08l186.85-592.62,397.08,473.23-141.27,126.63s-266.39,36-275.71,38.62S1790.41,1757.08,1790.41,1757.08Z"/></clipPath><clipPath id="clip-path-4"><polygon class="cls-1" points="1433.72 1351.13 1426.38 1312.07 1977.26 1164.46 1801.72 1721.19 1545.9 1580.8 1433.72 1351.13"/></clipPath><clipPath id="clip-path-5"><polygon class="cls-1" points="1421.75 1175.1 1510.99 994.75 1977.26 1164.46 1497.98 1292.88 1421.75 1175.1"/></clipPath><clipPath id="clip-path-6"><polygon class="cls-1" points="1560.98 921.71 1557.61 1011.72 1977.51 1164.76 1715.72 790.94 1684.68 782.04 1657.74 803.99 1560.98 921.71"/></clipPath><clipPath id="clip-path-7"><polygon class="cls-1" points="1775.13 782.04 1749.62 839.36 1977.51 1165.02 1977.26 756.1 1934.09 756.1 1865.46 761.42 1775.13 782.04"/></clipPath><clipPath id="clip-path-8"><path class="cls-1" d="M2671.75,1164.46a699.36,699.36,0,0,1-11.29,125.33l175.48,31.66,10-326.7-45-127.93-170.19,61.95A693.39,693.39,0,0,1,2671.75,1164.46Z"/></clipPath><clipPath id="clip-path-9"><path class="cls-1" d="M2660.46,1289.79a691,691,0,0,1-117.6,277.76l429.94,304.9,105.88-507.2Z"/></clipPath><clipPath id="clip-path-10"><path class="cls-1" d="M2542.86,1567.55c-22.12,30.82-26.11,35-51.68,64l346.64,313.76,32.35-16,63-85Z"/></clipPath><clipPath id="clip-path-11"><path class="cls-1" d="M2491.18,1631.58l-3.25,3.55c-13.5,15.84-48.79,48.35-64.26,61.34l394.26,470.36,122.11-129Z"/></clipPath><clipPath id="clip-path-12"><path class="cls-1" d="M1288.8,1256.39l-189,24L1210,1542l145.27-68.23C1316.93,1392.17,1303,1345.61,1288.8,1256.39Z"/></clipPath></defs><text class="cls-2" transform="translate(238.72 2199.33)">Initial i<tspan class="cls-3" x="110.57" y="0">s</tspan><tspan class="cls-4" x="127.47" y="0">s</tspan><tspan x="145.46" y="0">u</tspan><tspan class="cls-5" x="168.25" y="0">r</tspan><tspan x="178.99" y="0">an</tspan><tspan class="cls-6" x="228.01" y="0">c</tspan><tspan x="250.31" y="0">e</tspan><tspan class="cls-7" x="274.25" y="0">：</tspan><tspan class="cls-8" x="316.49" y="0">10 bilion </tspan><tspan class="cls-9" x="477.31" y="0">L</tspan><tspan class="cls-10" x="497.68" y="0">A</tspan><tspan class="cls-11" x="523.07" y="0">T</tspan><tspan class="cls-12" x="541.94" y="0">s</tspan></text><circle class="cls-13" cx="1977.26" cy="1164.46" r="694.49"/><rect class="cls-14" x="2538.21" y="273.93" width="167.86" height="74.1"/><circle class="cls-15" cx="1977.26" cy="1164.46" r="694.49"/><circle class="cls-15" cx="1977.26" cy="1164.46" r="644.88"/><circle class="cls-15" cx="1977.26" cy="1164.46" r="595.28"/><circle class="cls-15" cx="1977.26" cy="1164.46" r="545.67"/><circle class="cls-15" cx="1977.26" cy="1164.46" r="496.06"/><circle class="cls-15" cx="1977.26" cy="1164.46" r="446.46"/><circle class="cls-15" cx="1977.26" cy="1164.46" r="396.85"/><circle class="cls-15" cx="1977.26" cy="1164.46" r="347.24"/><circle class="cls-15" cx="1977.26" cy="1164.46" r="297.64"/><circle class="cls-15" cx="1977.26" cy="1164.46" r="248.03"/><circle class="cls-15" cx="1977.26" cy="1164.46" r="198.43"/><circle class="cls-15" cx="1977.26" cy="1164.46" r="148.82"/><circle class="cls-15" cx="1977.26" cy="1164.46" r="99.21"/><circle class="cls-15" cx="1977.26" cy="1164.46" r="49.61"/><g class="cls-16"><circle class="cls-14" cx="1977.26" cy="1164.46" r="694.49"/><circle class="cls-17" cx="1977.26" cy="1164.46" r="694.49"/><circle class="cls-17" cx="1977.26" cy="1164.46" r="644.88"/><circle class="cls-17" cx="1977.26" cy="1164.46" r="595.28"/><circle class="cls-17" cx="1977.26" cy="1164.46" r="545.67"/><circle class="cls-17" cx="1977.26" cy="1164.46" r="496.06"/><circle class="cls-17" cx="1977.26" cy="1164.46" r="446.46"/><circle class="cls-17" cx="1977.26" cy="1164.46" r="396.85"/><circle class="cls-17" cx="1977.26" cy="1164.46" r="347.24"/><circle class="cls-17" cx="1977.26" cy="1164.46" r="297.64"/><circle class="cls-17" cx="1977.26" cy="1164.46" r="248.03"/><circle class="cls-17" cx="1977.26" cy="1164.46" r="198.43"/><circle class="cls-17" cx="1977.26" cy="1164.46" r="148.82"/><circle class="cls-17" cx="1977.26" cy="1164.46" r="99.21"/><circle class="cls-17" cx="1977.26" cy="1164.46" r="49.61"/></g><line class="cls-18" x1="1768.42" y1="1826.81" x2="1977.26" y2="1164.46"/><line class="cls-18" x1="1977.26" y1="1164.46" x2="2629.86" y2="926.93"/><line class="cls-18" x1="1977.26" y1="1164.46" x2="2423.67" y2="1696.47"/><line class="cls-18" x1="1578.91" y1="595.57" x2="1977.26" y2="1164.46"/><line class="cls-18" x1="1977.26" y1="469.97" x2="1977.26" y2="1164.76"/><line class="cls-18" x1="1324.65" y1="926.93" x2="1977.26" y2="1164.46"/><line class="cls-18" x1="1306.43" y1="1344.21" x2="1977.26" y2="1164.46"/><g class="cls-19"><circle class="cls-20" cx="1977.26" cy="1164.46" r="644.88"/><circle class="cls-17" cx="1977.26" cy="1164.46" r="644.88"/><circle class="cls-17" cx="1977.26" cy="1164.46" r="595.28"/><circle class="cls-17" cx="1977.26" cy="1164.46" r="545.67"/><circle class="cls-17" cx="1977.26" cy="1164.46" r="496.06"/><circle class="cls-17" cx="1977.26" cy="1164.46" r="446.46"/><circle class="cls-17" cx="1977.26" cy="1164.46" r="396.85"/><circle class="cls-17" cx="1977.26" cy="1164.46" r="347.24"/><circle class="cls-17" cx="1977.26" cy="1164.46" r="297.64"/><circle class="cls-17" cx="1977.26" cy="1164.46" r="248.03"/><circle class="cls-17" cx="1977.26" cy="1164.46" r="198.43"/><circle class="cls-17" cx="1977.26" cy="1164.46" r="148.82"/><circle class="cls-17" cx="1977.26" cy="1164.46" r="99.21"/><circle class="cls-17" cx="1977.26" cy="1164.46" r="49.61"/></g><g class="cls-21"><circle class="cls-22" cx="1977.26" cy="1164.46" r="595.28"/><circle class="cls-17" cx="1977.26" cy="1164.46" r="545.67"/><circle class="cls-17" cx="1977.26" cy="1164.46" r="496.06"/><circle class="cls-17" cx="1977.26" cy="1164.46" r="446.46"/><circle class="cls-17" cx="1977.26" cy="1164.46" r="396.85"/><circle class="cls-17" cx="1977.26" cy="1164.46" r="347.24"/><circle class="cls-17" cx="1977.26" cy="1164.46" r="297.64"/><circle class="cls-17" cx="1977.26" cy="1164.46" r="248.03"/><circle class="cls-17" cx="1977.26" cy="1164.46" r="198.43"/><circle class="cls-17" cx="1977.26" cy="1164.46" r="148.82"/><circle class="cls-17" cx="1977.26" cy="1164.46" r="99.21"/><circle class="cls-17" cx="1977.26" cy="1164.46" r="49.61"/></g><g class="cls-23"><circle class="cls-24" cx="1977.26" cy="1164.46" r="545.67"/><circle class="cls-17" cx="1977.26" cy="1164.46" r="496.06"/><circle class="cls-17" cx="1977.26" cy="1164.46" r="446.46"/><circle class="cls-17" cx="1977.26" cy="1164.46" r="396.85"/><circle class="cls-17" cx="1977.26" cy="1164.46" r="347.24"/><circle class="cls-17" cx="1977.26" cy="1164.46" r="297.64"/><circle class="cls-17" cx="1977.26" cy="1164.46" r="248.03"/><circle class="cls-17" cx="1977.26" cy="1164.46" r="198.43"/><circle class="cls-17" cx="1977.26" cy="1164.46" r="148.82"/><circle class="cls-17" cx="1977.26" cy="1164.46" r="99.21"/><circle class="cls-17" cx="1977.26" cy="1164.46" r="49.61"/></g><g class="cls-25"><circle class="cls-26" cx="1977.26" cy="1164.46" r="496.06"/><circle class="cls-17" cx="1977.26" cy="1164.46" r="446.46"/><circle class="cls-17" cx="1977.26" cy="1164.46" r="396.85"/><circle class="cls-17" cx="1977.26" cy="1164.46" r="347.24"/><circle class="cls-17" cx="1977.26" cy="1164.46" r="297.64"/><circle class="cls-17" cx="1977.26" cy="1164.46" r="248.03"/><circle class="cls-17" cx="1977.26" cy="1164.46" r="198.43"/><circle class="cls-17" cx="1977.26" cy="1164.46" r="148.82"/><circle class="cls-17" cx="1977.26" cy="1164.46" r="99.21"/><circle class="cls-17" cx="1977.26" cy="1164.46" r="49.61"/></g><line class="cls-27" x1="1749.58" y1="1890.8" x2="1978.12" y2="1165.98"/><line class="cls-27" x1="1244.02" y1="1362.68" x2="1978.12" y2="1165.98"/><g class="cls-28"><circle class="cls-29" cx="1977.26" cy="1164.46" r="446.46"/><circle class="cls-17" cx="1977.26" cy="1164.46" r="396.85"/><circle class="cls-17" cx="1977.26" cy="1164.46" r="347.24"/><circle class="cls-17" cx="1977.26" cy="1164.46" r="297.64"/><circle class="cls-17" cx="1977.26" cy="1164.46" r="248.03"/><circle class="cls-17" cx="1977.26" cy="1164.46" r="198.43"/><circle class="cls-17" cx="1977.26" cy="1164.46" r="148.82"/><circle class="cls-17" cx="1977.26" cy="1164.46" r="99.21"/><circle class="cls-17" cx="1977.26" cy="1164.46" r="49.61"/></g><g class="cls-30"><circle class="cls-31" cx="1977.26" cy="1164.46" r="396.85"/><circle class="cls-17" cx="1977.26" cy="1164.46" r="347.24"/><circle class="cls-17" cx="1977.26" cy="1164.46" r="297.64"/><circle class="cls-17" cx="1977.26" cy="1164.46" r="248.03"/><circle class="cls-17" cx="1977.26" cy="1164.46" r="198.43"/><circle class="cls-17" cx="1977.26" cy="1164.46" r="148.82"/><circle class="cls-17" cx="1977.26" cy="1164.46" r="99.21"/><circle class="cls-17" cx="1977.26" cy="1164.46" r="49.61"/></g><line class="cls-27" x1="1978.12" y1="405.98" x2="1978.12" y2="1166.3"/><line class="cls-27" x1="1542.2" y1="543.42" x2="1978.12" y2="1165.98"/><line class="cls-27" x1="1263.95" y1="906.04" x2="1978.12" y2="1165.98"/><text class="cls-32" transform="translate(2570.49 330.2)">2<tspan class="cls-33" x="30.04" y="0">0</tspan><tspan class="cls-34" x="65.21" y="0">%</tspan></text><text class="cls-35" transform="translate(2754.31 345.69)">Founding <tspan class="cls-36" x="221.78" y="0">T</tspan><tspan class="cls-37" x="243.84" y="0">eam</tspan></text><text class="cls-38" transform="translate(2784.87 426.32)">2<tspan class="cls-39" x="22.05" y="0">,</tspan><tspan class="cls-40" x="30.87" y="0">00</tspan><tspan class="cls-41" x="83.79" y="0">0,</tspan><tspan class="cls-40" x="117.81" y="0">00</tspan><tspan class="cls-41" x="170.73" y="0">0,</tspan><tspan x="204.75" y="0">000</tspan></text><rect class="cls-31" x="841.18" y="273.93" width="167.86" height="74.1"/><text class="cls-42" transform="translate(874.31 330.2)">1<tspan class="cls-33" x="22.31" y="0">0</tspan><tspan x="57.49" y="0">%</tspan></text><text class="cls-35" transform="translate(1162.2 345.69)"><tspan class="cls-43">E</tspan><tspan class="cls-44" x="25.5" y="0">c</tspan><tspan class="cls-43" x="52.32" y="0">o</tspan><tspan class="cls-45" x="81.54" y="0">s</tspan><tspan class="cls-46" x="102.58" y="0">y</tspan><tspan class="cls-47" x="126.11" y="0">s</tspan><tspan class="cls-46" x="147.39" y="0">t</tspan><tspan x="164.31" y="0">em </tspan><tspan class="cls-48" x="246.78" y="0">Fund</tspan></text><text class="cls-38" transform="translate(1198.21 426.32)">1<tspan class="cls-41" x="14.28" y="0">,</tspan><tspan x="23.1" y="0">00</tspan><tspan class="cls-41" x="76.02" y="0">0,</tspan><tspan x="110.04" y="0">00</tspan><tspan class="cls-41" x="162.96" y="0">0,</tspan><tspan class="cls-40" x="196.98" y="0">000</tspan></text><polyline class="cls-49" points="2362.51 589.39 2474.5 371.56 3128.12 371.56"/><circle class="cls-50" cx="3139.76" cy="371.56" r="11.64"/><circle class="cls-14" cx="3139.76" cy="371.56" r="6.48"/><rect class="cls-20" x="3077.41" y="561.33" width="167.86" height="74.1"/><text class="cls-32" transform="translate(3109.68 617.6)">2<tspan class="cls-33" x="30.04" y="0">0</tspan><tspan class="cls-34" x="65.21" y="0">%</tspan></text><text class="cls-35" transform="translate(3291.93 633.09)"><tspan class="cls-43">P</tspan><tspan x="28.44" y="0">ri</tspan><tspan class="cls-47" x="53.94" y="0">v</tspan><tspan x="77.96" y="0">a</tspan><tspan class="cls-46" x="109.15" y="0">t</tspan><tspan x="126.06" y="0">e </tspan><tspan class="cls-51" x="166.96" y="0">R</tspan><tspan class="cls-37" x="195.64" y="0">ound</tspan></text><text class="cls-38" transform="translate(3305.5 713.72)">2<tspan class="cls-39" x="22.05" y="0">,</tspan><tspan class="cls-40" x="30.87" y="0">00</tspan><tspan class="cls-41" x="83.79" y="0">0,</tspan><tspan class="cls-40" x="117.81" y="0">00</tspan><tspan class="cls-41" x="170.73" y="0">0,</tspan><tspan x="204.75" y="0">000</tspan></text><polyline class="cls-52" points="2577.59 993.56 3013.7 658.97 3667.32 658.97"/><polyline class="cls-52" points="2820.56 1114.86 2941.2 1065.25 3689.06 1065.25"/><circle class="cls-50" cx="3678.96" cy="658.96" r="11.64"/><circle class="cls-20" cx="3678.96" cy="658.96" r="6.48"/><circle class="cls-50" cx="3689.06" cy="1455.44" r="11.64"/><circle class="cls-20" cx="3689.06" cy="1455.44" r="6.48"/><circle class="cls-50" cx="3689.06" cy="1065.25" r="11.64"/><circle class="cls-53" cx="3689.06" cy="1065.25" r="6.48"/><circle class="cls-50" cx="3689.06" cy="1742.64" r="11.64"/><circle class="cls-54" cx="3689.06" cy="1742.64" r="6.48"/><circle class="cls-50" cx="3689.06" cy="2024.18" r="11.64"/><circle class="cls-55" cx="3689.06" cy="2024.18" r="6.48"/><circle class="cls-50" cx="788.2" cy="371.56" r="11.64"/><circle class="cls-31" cx="788.2" cy="371.56" r="6.48"/><g class="cls-56"><circle class="cls-53" cx="1977.26" cy="1164.46" r="843.31"/><circle class="cls-17" cx="1977.26" cy="1164.46" r="793.7"/><circle class="cls-17" cx="1977.26" cy="1164.46" r="744.09"/></g><line class="cls-57" x1="1977.41" y1="1166.55" x2="2769.59" y2="878.22"/><g class="cls-58"><circle class="cls-59" cx="1977.26" cy="1164.46" r="992.13"/><circle class="cls-17" cx="1977.26" cy="1164.46" r="843.31"/><circle class="cls-17" cx="1977.26" cy="1164.46" r="892.91"/><circle class="cls-17" cx="1977.26" cy="1164.46" r="942.52"/><circle class="cls-17" cx="1977.26" cy="1164.46" r="793.7"/><circle class="cls-17" cx="1977.26" cy="1164.46" r="744.09"/></g><g class="cls-60"><circle class="cls-61" cx="1977.26" cy="1164.46" r="1140.94"/><circle class="cls-17" cx="1977.26" cy="1164.46" r="1091.34"/><circle class="cls-17" cx="1977.26" cy="1164.46" r="793.7"/><circle class="cls-17" cx="1977.26" cy="1164.46" r="744.09"/><circle class="cls-17" cx="1977.26" cy="1164.46" r="992.13"/><circle class="cls-17" cx="1977.26" cy="1164.46" r="1041.73"/><circle class="cls-17" cx="1977.26" cy="1164.46" r="694.49"/><circle class="cls-17" cx="1977.26" cy="1164.46" r="843.31"/><circle class="cls-17" cx="1977.26" cy="1164.46" r="892.91"/><circle class="cls-17" cx="1977.26" cy="1164.46" r="942.52"/></g><g class="cls-62"><circle class="cls-63" cx="1977.26" cy="1164.46" r="1289.76"/><circle class="cls-17" cx="1977.26" cy="1164.46" r="1091.34"/><circle class="cls-17" cx="1977.26" cy="1164.46" r="1140.94"/><circle class="cls-17" cx="1977.26" cy="1164.46" r="1190.55"/><circle class="cls-17" cx="1977.26" cy="1164.46" r="1240.16"/><circle class="cls-17" cx="1977.26" cy="1164.46" r="793.7"/><circle class="cls-17" cx="1977.26" cy="1164.46" r="744.09"/><circle class="cls-17" cx="1977.26" cy="1164.46" r="992.13"/><circle class="cls-17" cx="1977.26" cy="1164.46" r="1041.73"/><circle class="cls-17" cx="1977.26" cy="1164.46" r="843.31"/><circle class="cls-17" cx="1977.26" cy="1164.46" r="892.91"/><circle class="cls-17" cx="1977.26" cy="1164.46" r="942.52"/></g><line class="cls-17" x1="1977.41" y1="1166.55" x2="2912.55" y2="1829.73"/><line class="cls-17" x1="1977.41" y1="1166.55" x2="3136.44" y2="2215.62"/><line class="cls-17" x1="1977.41" y1="1166.55" x2="2955.71" y2="1343.06"/><line class="cls-57" x1="1978.12" y1="1165.98" x2="2805.54" y2="2152.06"/><polyline class="cls-64" points="1872.51 781.59 1729.22 371.56 788.2 371.56"/><rect class="cls-29" x="636.2" y="619.46" width="167.86" height="74.1"/><text class="cls-42" transform="translate(669.34 675.73)">1<tspan class="cls-33" x="22.31" y="0">0</tspan><tspan x="57.49" y="0">%</tspan></text><text class="cls-35" transform="translate(925.11 691.22)"><tspan class="cls-65">R</tspan><tspan class="cls-66" x="26.72" y="0">e</tspan><tspan class="cls-67" x="52.42" y="0">s</tspan><tspan class="cls-68" x="71.98" y="0">ea</tspan><tspan class="cls-69" x="127.88" y="0">r</tspan><tspan class="cls-70" x="139.84" y="0">ch </tspan><tspan class="cls-48" x="200.64" y="0">Fund</tspan></text><text class="cls-38" transform="translate(934.13 771.85)">1<tspan class="cls-41" x="14.28" y="0">,</tspan><tspan x="23.1" y="0">00</tspan><tspan class="cls-41" x="76.02" y="0">0,</tspan><tspan x="110.04" y="0">00</tspan><tspan class="cls-41" x="162.96" y="0">0,</tspan><tspan class="cls-40" x="196.98" y="0">000</tspan></text><polyline class="cls-71" points="1615.27 903.1 1418.86 717.1 584.32 717.1"/><rect class="cls-26" x="586.84" y="934.6" width="167.86" height="74.1"/><text class="cls-42" transform="translate(619.98 990.87)">1<tspan class="cls-33" x="22.31" y="0">0</tspan><tspan x="57.49" y="0">%</tspan></text><text class="cls-35" transform="translate(813.15 1006.36)">D<tspan class="cls-47" x="35.3" y="0">ev</tspan><tspan x="86.99" y="0">eloper </tspan><tspan class="cls-48" x="242.91" y="0">Fund</tspan></text><text class="cls-38" transform="translate(847.22 1086.99)">1<tspan class="cls-41" x="14.28" y="0">,</tspan><tspan x="23.1" y="0">00</tspan><tspan class="cls-41" x="76.02" y="0">0,</tspan><tspan x="110.04" y="0">00</tspan><tspan class="cls-41" x="162.96" y="0">0,</tspan><tspan class="cls-40" x="196.98" y="0">000</tspan></text><circle class="cls-50" cx="533.86" cy="1032.23" r="11.64"/><circle class="cls-72" cx="533.86" cy="1032.23" r="6.48"/><polyline class="cls-73" points="1482.08 1134.66 1254.75 1032.23 545.5 1032.23"/><rect class="cls-24" x="697.62" y="1673.56" width="167.86" height="74.1"/><text class="cls-42" transform="translate(733.12 1729.83)">1<tspan class="cls-33" x="22.31" y="0">5</tspan><tspan x="52.76" y="0">%</tspan></text><text class="cls-35" transform="translate(1009.39 1745.31)"><tspan class="cls-51">R</tspan><tspan class="cls-47" x="28.68" y="0">e</tspan><tspan class="cls-74" x="56.34" y="0">s</tspan><tspan x="77.86" y="0">er</tspan><tspan class="cls-75" x="121.9" y="0">v</tspan><tspan class="cls-37" x="145.92" y="0">e</tspan></text><text class="cls-38" transform="translate(959.97 1825.94)">1,<tspan class="cls-76" x="24.36" y="0">5</tspan><tspan class="cls-40" x="46.62" y="0">0</tspan><tspan class="cls-39" x="73.08" y="0">0,</tspan><tspan x="107.1" y="0">00</tspan><tspan class="cls-39" x="160.02" y="0">0,</tspan><tspan x="194.04" y="0">000</tspan></text><circle class="cls-50" cx="572.68" cy="717.1" r="11.64"/><circle class="cls-29" cx="572.68" cy="717.1" r="6.48"/><circle class="cls-50" cx="641.38" cy="1771.19" r="11.64"/><circle class="cls-24" cx="641.38" cy="1771.19" r="6.48"/><polyline class="cls-77" points="1557.61 1513.27 1445.99 1771.19 653.02 1771.19"/><rect class="cls-22" x="1229.87" y="1966.72" width="167.86" height="74.1"/><text class="cls-42" transform="translate(1265.37 2022.99)">1<tspan class="cls-33" x="22.31" y="0">5</tspan><tspan x="52.76" y="0">%</tspan></text><text class="cls-35" transform="translate(1431.59 2038.48)"><tspan class="cls-51">L</tspan><tspan x="22.8" y="0">a</tspan><tspan class="cls-46" x="53.98" y="0">t</tspan><tspan x="70.9" y="0">ti</tspan><tspan class="cls-78" x="99.39" y="0">c</tspan><tspan class="cls-37" x="126.21" y="0">eX Foundation</tspan></text><text class="cls-38" transform="translate(1519.25 2119.11)">1,<tspan class="cls-76" x="24.36" y="0">5</tspan><tspan class="cls-40" x="46.62" y="0">0</tspan><tspan class="cls-39" x="73.08" y="0">0,</tspan><tspan x="107.1" y="0">00</tspan><tspan class="cls-39" x="160.02" y="0">0,</tspan><tspan x="194.04" y="0">000</tspan></text><circle class="cls-50" cx="1159.97" cy="2064.35" r="11.64"/><circle class="cls-22" cx="1159.97" cy="2064.35" r="6.48"/><polyline class="cls-79" points="2086.36 1749.75 1927.91 2064.35 1171.61 2064.35"/><polyline class="cls-52" points="2896.77 1528.39 3017.49 1455.44 3677.42 1455.44"/><polyline class="cls-80" points="2896.19 1820.81 2989.21 1742.64 3677.42 1742.64"/><polyline class="cls-81" points="2896.19 2069.47 2969.42 2024.18 3677.42 2024.18"/><g class="cls-82"><circle class="cls-83" cx="1977.26" cy="1164.46" r="843.31"/><circle class="cls-17" cx="1977.26" cy="1164.46" r="793.7"/><circle class="cls-17" cx="1977.26" cy="1164.46" r="744.09"/></g><polyline class="cls-57" points="1222.16 1538.49 1978.12 1165.98 1141.24 1275.84"/><rect class="cls-53" x="3066.47" y="947.18" width="161.3" height="45.5"/><text class="cls-38" transform="translate(3066.47 1040.57)"><tspan class="cls-84">T</tspan><tspan x="18.9" y="0">o</tspan><tspan class="cls-85" x="44.35" y="0">k</tspan><tspan x="63" y="0">en </tspan><tspan class="cls-86" x="121.46" y="0">T</tspan><tspan class="cls-41" x="141.2" y="0">r</tspan><tspan x="153.13" y="0">ea</tspan><tspan class="cls-87" x="204.37" y="0">s</tspan><tspan class="cls-88" x="223.23" y="0">u</tspan><tspan class="cls-89" x="246.66" y="0">r</tspan><tspan class="cls-88" x="260.27" y="0" xml:space="preserve">y   </tspan></text><text class="cls-90" transform="translate(3079.65 985.46)"><tspan class="cls-91">7</tspan><tspan x="14.28" y="0">.1</tspan><tspan class="cls-76" x="41.79" y="0">5</tspan><tspan class="cls-92" x="64.39" y="0">7</tspan><tspan class="cls-93" x="83.7" y="0">5</tspan><tspan x="105.88" y="0">%</tspan></text><polyline class="cls-94" points="580.85 1405.24 1108.26 1405.24 1164.36 1389.69"/><rect class="cls-83" x="616.97" y="1342.37" width="161.3" height="45.5"/><text class="cls-38" transform="translate(831.69 1380.55)">Ala<tspan class="cls-93" x="61.82" y="0">y</tspan><tspan x="82.4" y="0">a Fund</tspan></text><text class="cls-90" transform="translate(670.47 1380.65)"><tspan class="cls-95">5</tspan><tspan x="22.18" y="0">%</tspan></text><rect class="cls-59" x="3066.47" y="1337.43" width="166.26" height="45.5"/><text class="cls-38" transform="translate(3066.47 1430.82)"><tspan class="cls-76">P</tspan><tspan x="24.36" y="0">ri</tspan><tspan class="cls-93" x="46.2" y="0">v</tspan><tspan x="66.78" y="0">a</tspan><tspan class="cls-41" x="93.49" y="0">t</tspan><tspan x="107.98" y="0">e </tspan><tspan class="cls-89" x="143.01" y="0">S</tspan><tspan x="167.62" y="0">ale (A </tspan><tspan class="cls-39" x="286.14" y="0">r</tspan><tspan x="298.07" y="0">ound I</tspan><tspan class="cls-96" x="417.27" y="0">n</tspan><tspan class="cls-93" x="440.49" y="0">ves</tspan><tspan class="cls-41" x="502.99" y="0">t</tspan><tspan class="cls-97" x="517.48" y="0">o</tspan><tspan class="cls-93" x="542.93" y="0">r</tspan><tspan class="cls-97" x="555.28" y="0">s)</tspan></text><text class="cls-90" transform="translate(3076.05 1375.72)">8.<tspan class="cls-98" x="35.11" y="0">6</tspan><tspan x="56.45" y="0">1</tspan><tspan class="cls-99" x="72.7" y="0">7</tspan><tspan class="cls-76" x="93.07" y="0">2</tspan><tspan x="114.95" y="0">%</tspan></text><rect class="cls-61" x="3066.47" y="1624.63" width="167.24" height="45.5"/><text class="cls-38" transform="translate(3066.47 1718.01)"><tspan class="cls-76">P</tspan><tspan x="24.36" y="0">ri</tspan><tspan class="cls-93" x="46.2" y="0">v</tspan><tspan x="66.78" y="0">a</tspan><tspan class="cls-41" x="93.49" y="0">t</tspan><tspan x="107.98" y="0">e </tspan><tspan class="cls-89" x="143.01" y="0">S</tspan><tspan x="167.62" y="0">ale (</tspan><tspan class="cls-100" x="249.18" y="0">B</tspan><tspan x="273.54" y="0">1 </tspan><tspan class="cls-39" x="298.32" y="0">r</tspan><tspan x="310.25" y="0">ound I</tspan><tspan class="cls-96" x="429.45" y="0">n</tspan><tspan class="cls-93" x="452.67" y="0">ves</tspan><tspan class="cls-41" x="515.17" y="0">t</tspan><tspan x="529.66" y="0">o</tspan><tspan class="cls-95" x="555.11" y="0">r</tspan><tspan x="567.46" y="0">s)</tspan></text><text class="cls-90" transform="translate(3075.03 1662.91)">1.<tspan class="cls-76" x="27.51" y="0">6</tspan><tspan class="cls-101" x="50.31" y="0">5</tspan><tspan class="cls-102" x="72.79" y="0">2</tspan><tspan x="94.75" y="0">9%</tspan></text><rect class="cls-63" x="3066.47" y="1906.17" width="167.24" height="45.5"/><text class="cls-38" transform="translate(3066.47 1999.56)"><tspan class="cls-76">P</tspan><tspan x="24.36" y="0">ri</tspan><tspan class="cls-93" x="46.2" y="0">v</tspan><tspan x="66.78" y="0">a</tspan><tspan class="cls-41" x="93.49" y="0">t</tspan><tspan x="107.98" y="0">e </tspan><tspan class="cls-89" x="143.01" y="0">S</tspan><tspan x="167.62" y="0">ale (</tspan><tspan class="cls-39" x="249.18" y="0">B</tspan><tspan x="273.96" y="0">2 </tspan><tspan class="cls-39" x="306.51" y="0">r</tspan><tspan class="cls-88" x="318.44" y="0">ound I</tspan><tspan class="cls-96" x="437.64" y="0">n</tspan><tspan class="cls-93" x="460.86" y="0">ves</tspan><tspan class="cls-41" x="523.36" y="0">t</tspan><tspan x="537.85" y="0">o</tspan><tspan class="cls-95" x="563.3" y="0">r</tspan><tspan x="575.65" y="0">s)</tspan></text><text class="cls-90" transform="translate(3073.45 1944.46)">2.<tspan class="cls-76" x="33.56" y="0">5</tspan><tspan class="cls-96" x="56.15" y="0">7</tspan><tspan class="cls-103" x="76.52" y="0">2</tspan><tspan class="cls-85" x="98.28" y="0">4</tspan><tspan x="120.54" y="0">%</tspan><tspan class="cls-104" x="152.67" y="0">	</tspan></text><text class="cls-105" transform="translate(838.29 1454.84)"><tspan class="cls-106">5</tspan><tspan x="18.02" y="0">0</tspan><tspan class="cls-107" x="39.44" y="0">0,</tspan><tspan x="66.98" y="0">00</tspan><tspan class="cls-108" x="109.82" y="0">0,</tspan><tspan x="137.36" y="0">000</tspan></text><circle class="cls-50" cx="572.68" cy="1405.24" r="11.64"/><circle class="cls-83" cx="572.68" cy="1405.24" r="6.48"/></svg>