<?xml version="1.0" encoding="UTF-8"?>
<svg width="56px" height="52px" viewBox="0 0 56 52" version="1.1" xmlns="http://www.w3.org/2000/svg" xmlns:xlink="http://www.w3.org/1999/xlink">
    <!-- Generator: Sketch 61.2 (89653) - https://sketch.com -->
    <title>latticex forum logo</title>
    <desc>Created with Sketch.</desc>
    <g id="官网-文档页面规则" stroke="none" stroke-width="1" fill="none" fill-rule="evenodd">
        <g id="画板" transform="translate(-562.000000, -142.000000)" fill="#4E5454">
            <g id="latticex-forum-logo" transform="translate(562.000000, 142.000000)">
                <g id="编组-2">
                    <polygon id="Fill-25" points="21.0452968 -5.40198069e-13 15.7334837 3.0653474 21.0452968 6.13069479"></polygon>
                    <polygon id="Fill-26" points="12.156485 7.01473612 6.84467199 10.0800835 12.156485 13.1454309"></polygon>
                    <polygon id="Fill-27" points="14.0247599 18.2439346 8.71294689 21.309282 14.0247599 24.3752076"></polygon>
                    <polygon id="Fill-28" points="25.1552702 16.3165996 19.8440356 19.381947 25.1552702 22.4472944"></polygon>
                    <polygon id="Fill-29" points="27.894134 27.4485928 22.5828995 30.5139402 27.894134 33.5792876"></polygon>
                    <polygon id="Fill-30" points="33.2966563 3.98229163 27.9848432 7.04763902 33.2966563 10.1129864"></polygon>
                    <polygon id="Fill-31" points="35.3304987 12.7080941 30.0192641 15.7734415 35.3304987 18.8387889"></polygon>
                    <polygon id="Fill-32" points="37.5795441 23.0523839 32.2677311 26.1177313 37.5795441 29.1830787"></polygon>
                    <polygon id="Fill-33" points="43.3560685 19.7200546 38.0442555 22.785402 43.3560685 25.8507494"></polygon>
                    <polygon id="Fill-34" points="49.1179567 16.3922358 43.8067222 19.4575832 49.1179567 22.5229306"></polygon>
                    <polygon id="Fill-35" points="43.3498785 13.0649952 38.0380655 16.1303426 43.3498785 19.19569"></polygon>
                    <polygon id="Fill-36" points="50.0794863 25.689531 44.7676733 28.7548784 50.0794863 31.8202258"></polygon>
                    <polygon id="Fill-37" points="44.3221104 29.0207616 39.0102974 32.086109 44.3221104 35.1514564"></polygon>
                    <polygon id="Fill-38" points="35.7180377 32.3355696 30.4062247 35.400917 35.7180377 38.4662644"></polygon>
                    <polygon id="Fill-39" points="55.846986 22.3589365 50.5357515 25.4248622 55.846986 28.4902096"></polygon>
                    <polygon id="Fill-40" points="18.2104015 31.0909842 12.899167 34.1563316 18.2104015 37.221679"></polygon>
                    <polygon id="Fill-41" points="29.942034 35.6695758 24.6307995 38.7349232 29.942034 41.8002706"></polygon>
                    <polygon id="Fill-42" points="24.1937406 38.9968164 18.8819276 42.0621638 24.1937406 45.1275112"></polygon>
                    <polygon id="Fill-43" points="29.9471248 42.3297239 24.6353118 45.3950713 29.9471248 48.4604187"></polygon>
                    <polygon id="Fill-44" points="35.7106907 39.0008064 30.3988777 42.0661538 35.7106907 45.1315012"></polygon>
                    <polygon id="Fill-45" points="44.3198542 42.3297239 39.0086197 45.3950713 44.3198542 48.4604187"></polygon>
                    <polygon id="Fill-46" points="44.3125072 35.6695758 39.0012727 38.7349232 44.3125072 41.8002706"></polygon>
                    <polygon id="Fill-47" points="50.0834201 32.3508356 44.7716071 35.416183 50.0834201 38.4815304"></polygon>
                    <polygon id="Fill-48" points="55.86168 29.0207616 50.5504454 32.086109 55.86168 35.1514564"></polygon>
                    <polygon id="Fill-49" points="55.8560106 35.6809097 50.5441976 38.7462571 55.8560106 41.8116045"></polygon>
                    <polygon id="Fill-50" points="50.0896679 39.0058951 44.7778549 42.0712425 50.0896679 45.1365899"></polygon>
                    <polygon id="Fill-51" points="35.7174592 45.6592198 30.4056462 48.7245671 35.7174592 51.7899145"></polygon>
                    <polygon id="Fill-52" points="1.84926701e-13 10.3448102 5.31123453 13.4101576 1.84926701e-13 16.475505"></polygon>
                    <polygon id="Fill-53" points="16.9816615 10.3448102 22.292896 13.4101576 16.9816615 16.475505"></polygon>
                    <polygon id="Fill-54" points="9.52776814 26.5151682 14.8395812 29.5805156 9.52776814 32.645863"></polygon>
                    <polygon id="Fill-55" points="20.4018281 32.030654 25.7136411 35.0960014 20.4018281 38.1613488"></polygon>
                    <polygon id="Fill-56" points="11.9881407 36.5798701 17.2993752 39.6452175 11.9881407 42.7105649"></polygon>
                    <polygon id="Fill-57" points="24.497686 39.007572 29.809499 42.0729194 24.497686 45.1382668"></polygon>
                    <polygon id="Fill-58" points="30.2539049 35.6695758 35.5651394 38.7349232 30.2539049 41.8002706"></polygon>
                    <polygon id="Fill-59" points="30.2533264 29.010006 35.5645609 32.0753534 30.2533264 35.1407008"></polygon>
                    <polygon id="Fill-60" points="30.1612287 18.8853966 35.4724633 21.950744 30.1612287 25.0160914"></polygon>
                    <polygon id="Fill-61" points="22.426588 24.1253422 27.738401 27.1906896 22.426588 30.256037"></polygon>
                    <polygon id="Fill-62" points="27.8421266 7.32248521 33.1533611 10.3878326 27.8421266 13.45318"></polygon>
                    <polygon id="Fill-63" points="37.8868448 23.0495504 43.1980794 26.1148978 37.8868448 29.1802452"></polygon>
                    <polygon id="Fill-64" points="37.9072081 16.3922358 43.2190212 19.4575832 37.9072081 22.5229306"></polygon>
                    <polygon id="Fill-65" points="36.6857573 7.2909123 41.9975703 10.3562597 36.6857573 13.4216071"></polygon>
                    <polygon id="Fill-66" points="43.6538239 13.0599065 48.9650584 16.1252539 43.6538239 19.1906013"></polygon>
                    <polygon id="Fill-67" points="43.6616915 19.726242 48.9729261 22.7915894 43.6616915 25.8569368"></polygon>
                    <polygon id="Fill-68" points="49.419646 16.3939127 54.731459 19.4592601 49.419646 22.5246075"></polygon>
                    <polygon id="Fill-69" points="50.3902002 25.6872758 55.7020132 28.7526232 50.3902002 31.8179706"></polygon>
                    <polygon id="Fill-70" points="44.6130973 29.0207616 49.9249103 32.086109 44.6130973 35.1514564"></polygon>
                    <polygon id="Fill-71" points="38.8489529 32.3508356 44.1601874 35.416183 38.8489529 38.4815304"></polygon>
                    <polygon id="Fill-72" points="44.6300474 35.6809097 49.9418605 38.7462571 44.6300474 41.8116045"></polygon>
                    <polygon id="Fill-73" points="50.3873655 32.3541895 55.6991785 35.4195369 50.3873655 38.4848843"></polygon>
                    <polygon id="Fill-74" points="50.3930348 39.0086707 55.7042694 42.0740181 50.3930348 45.1393655"></polygon>
                    <polygon id="Fill-75" points="44.6215434 42.3387448 49.9333565 45.4040922 44.6215434 48.4694396"></polygon>
                    <polygon id="Fill-76" points="38.8528867 45.659798 44.1646998 48.7251454 38.8528867 51.7904928"></polygon>
                    <polygon id="Fill-77" points="30.2539049 42.3331357 35.5651394 45.3984831 30.2539049 48.4638305"></polygon>
                    <polygon id="Fill-78" points="38.8483744 39.0008064 44.1596089 42.0661538 38.8483744 45.1315012"></polygon>
                </g>
            </g>
        </g>
    </g>
</svg>