<?xml version="1.0" encoding="UTF-8"?>
<svg width="40px" height="40px" viewBox="0 0 40 40" version="1.1" xmlns="http://www.w3.org/2000/svg" xmlns:xlink="http://www.w3.org/1999/xlink">
    <!-- Generator: Sketch 61.2 (89653) - https://sketch.com -->
    <title>7.关于</title>
    <desc>Created with Sketch.</desc>
    <g id="7.关于" stroke="none" stroke-width="1" fill="none" fill-rule="evenodd">
        <g id="关于" fill-rule="nonzero">
            <path d="M20.0002919,-2.84217094e-15 C11.9108582,-2.84217094e-15 4.61802566,4.8731374 1.52264837,12.3469301 C-1.57272892,19.8207227 0.13897907,28.4232183 5.85955448,34.1428296 C11.5801299,39.862441 20.1829138,41.5726991 27.6561847,38.4760623 C35.1294555,35.3794254 40.0013636,28.0857716 39.9999988,19.9963381 C39.9869964,8.95674079 31.0398912,0.0111434551 20.0002919,-2.84217094e-15 L20.0002919,-2.84217094e-15 Z M20.0002919,36.6256879 C10.8161556,36.6256879 3.37094219,29.1804744 3.37094219,19.9963381 C3.37094219,10.8122018 10.8161557,3.36698836 20.0002919,3.36698836 C29.1844282,3.36698836 36.6296417,10.8122018 36.6296417,19.9963381 C36.6203528,29.176624 29.1805778,36.6163989 20.0002919,36.6256879 L20.0002919,36.6256879 Z" id="形状" fill="#E40065"></path>
            <polygon id="形状" fill="#FFB7D7" points="18.2611868 9.89537313 21.6315455 9.89537313 21.6315455 13.4342497 18.2611868 13.4342497"></polygon>
            <polygon id="路径" fill="#E40065" points="18.2611868 15.5407239 21.6315455 15.5407239 21.6315455 28.8536407 18.2611868 28.8536407"></polygon>
        </g>
    </g>
</svg>