<?xml version="1.0" encoding="UTF-8"?>
<svg width="100px" height="100px" viewBox="0 0 100 100" version="1.1" xmlns="http://www.w3.org/2000/svg" xmlns:xlink="http://www.w3.org/1999/xlink">
    <!-- Generator: Sketch 61.2 (89653) - https://sketch.com -->
    <title>ATON logo</title>
    <desc>Created with Sketch.</desc>
    <defs>
        <filter x="-11.6%" y="-11.4%" width="123.2%" height="122.9%" filterUnits="objectBoundingBox" id="filter-1">
            <feOffset dx="0" dy="0" in="SourceAlpha" result="shadowOffsetOuter1"></feOffset>
            <feGaussianBlur stdDeviation="2" in="shadowOffsetOuter1" result="shadowBlurOuter1"></feGaussianBlur>
            <feColorMatrix values="0 0 0 0 1   0 0 0 0 1   0 0 0 0 1  0 0 0 0.06 0" type="matrix" in="shadowBlurOuter1" result="shadowMatrixOuter1"></feColorMatrix>
            <feMerge>
                <feMergeNode in="shadowMatrixOuter1"></feMergeNode>
                <feMergeNode in="SourceGraphic"></feMergeNode>
            </feMerge>
        </filter>
        <filter x="-11.6%" y="-11.4%" width="123.2%" height="122.9%" filterUnits="objectBoundingBox" id="filter-2">
            <feOffset dx="0" dy="0" in="SourceAlpha" result="shadowOffsetOuter1"></feOffset>
            <feGaussianBlur stdDeviation="2" in="shadowOffsetOuter1" result="shadowBlurOuter1"></feGaussianBlur>
            <feColorMatrix values="0 0 0 0 1   0 0 0 0 1   0 0 0 0 1  0 0 0 0.06 0" type="matrix" in="shadowBlurOuter1" result="shadowMatrixOuter1"></feColorMatrix>
            <feMerge>
                <feMergeNode in="shadowMatrixOuter1"></feMergeNode>
                <feMergeNode in="SourceGraphic"></feMergeNode>
            </feMerge>
        </filter>
    </defs>
    <g id="官网-文档页面规则" stroke="none" stroke-width="1" fill="none" fill-rule="evenodd">
        <g id="画板" transform="translate(-24.000000, -142.000000)">
            <g id="ATON-logo" transform="translate(24.000000, 142.000000)">
                <g id="Icon-Template" fill="#1B2137">
                    <g id="Template">
                        <rect id="BG" x="0" y="0" width="100" height="100" rx="12"></rect>
                    </g>
                </g>
                <g id="logo" transform="translate(16.000000, 14.000000)">
                    <g id="ATON-logo-Copy" filter="url(#filter-1)" transform="translate(1.074644, 0.976949)">
                        <g id="aton-logo">
                            <g id="分组" transform="translate(0.000000, 0.048847)" fill="#D6D6D6">
                                <path d="M34.1932169,59.984672 C40.5551216,59.984672 46.3759581,57.6680836 50.8581936,53.8324396 L56.8978815,57.3192521 L57.516294,57.1241772 L58.5957665,58.2916338 C52.391122,64.6122889 43.7500322,68.5329762 34.1932169,68.5329762 C24.643445,68.5329762 16.0080494,64.6180659 9.80438975,58.3056048 C9.55911097,58.0560243 9.19944776,57.6963691 8.7254001,57.2266394 C8.72952505,57.1638518 8.72952505,57.1301539 8.7254001,57.1255457 L8.727,57.1324393 L9.89109638,58.2421918 L9.92316445,58.2171479 L17.5246551,53.829371 C22.0073717,57.6668481 27.8296159,59.984672 34.1932169,59.984672 Z M42.1556283,1.07852144 C57.1997621,4.66667359 68.3864339,18.1968228 68.3864339,34.3397593 C68.3864339,37.5109598 67.9547327,40.5813312 67.1468927,43.4953109 L59.405,39.0254393 L58.3356382,37.855871 C59.3372992,36.4396368 59.8381296,35.2675995 59.8381296,34.3397593 C59.8381296,23.1436938 52.663402,13.6233758 42.6608834,10.1257418 L41.6668772,8.98188799 Z M24.5702687,0.051439294 L25.6445281,1.22387716 L25.6445281,1.22387716 L25.6444195,10.1542653 C15.6842582,13.6749074 8.54830424,23.1739877 8.54830424,34.3397593 C8.54830424,35.941301 8.69511269,37.5085538 8.97600625,39.0287943 L1.256,43.4864393 L1.25619449,43.4779299 L0.165271588,42.3227073 C0.617998014,42.0462923 0.843120453,41.9025817 0.840638903,41.8915755 C0.292794831,39.4617626 0,36.9350991 0,34.3397593 C0,18.9469177 10.1712287,5.92969396 24.1594121,1.64236203 C24.2467966,1.61557897 24.3837488,1.08527139 24.5702687,0.051439294 L24.5702687,0.051439294 Z" id="合并形状"></path>
                            </g>
                            <g id="分组-6" transform="translate(3.028542, 0.195390)">
                                <g id="huang" transform="translate(17.267575, 0.000000)" fill="#8F6C0F">
                                    <path d="M11.9308198,21.5205815 L11.9310347,28.0366891 C10.1058204,28.5679768 8.61690813,29.8889163 7.85879547,31.6050101 L5.66064247,32.8740164 L1.14251587,35.482558 L1.13129713,35.4885815 L0.0642971293,34.312323 C0.696254752,33.8284163 1.03842623,33.5363366 1.09081157,33.4360841 L1.09787069,33.4150174 C1.46068564,27.3544422 6.03310044,22.4281985 11.9308198,21.5205815 Z" id="合并形状"></path>
                                    <path d="M10.7342277,-1.9830701e-08 L14.4401757,0.0488474528 C15.9075265,0.0223524601 17.1185279,1.19039692 17.1450228,2.65774777 L17.1453477,2.6817335 L17.1453477,2.6817335 L17.1464933,28.769598 C16.156637,28.1440424 14.9836667,27.7819888 13.7261342,27.7819888 C12.6456262,27.7819888 11.6275482,28.0492836 10.7344163,28.5213572 L10.7342277,-1.9830701e-08 Z" id="合并形状"></path>
                                </g>
                                <g id="lan" transform="translate(0.000000, 33.106361)" fill="#1E6E91">
                                    <path d="M30.9937088,7.498084 C31.2308175,7.498084 31.4649199,7.48521249 31.6953554,7.46013008 L34.3174367,8.97308025 L37.5941222,10.3127903 L38.6697861,11.4845841 C36.5599148,13.0101576 33.9672992,13.9093122 31.1646749,13.9093122 C27.2341756,13.9093122 23.7167268,12.1408328 21.364627,9.35617259 L24.643899,7.46334955 L27.0007443,6.10315127 C28.0961726,6.97626519 29.4840021,7.498084 30.9937088,7.498084 Z" id="合并形状-copy-3"></path>
                                    <path d="M23.5078366,0.00880985788 L24.5771343,1.18462803 L24.5844248,1.17980986 L24.5865276,1.316806 C24.6679527,3.62654069 25.9711743,5.62537216 27.8696521,6.68676008 L25.1140557,8.2776849 L5.82970975,19.2581083 C4.18070625,20.1760676 2.10261835,19.6629382 1.07044474,18.082913 C0.633714135,17.4143966 0.374594128,16.9842684 0.293084717,16.7925283 C0.216313498,16.6119342 0.13342685,16.2511356 0.0444247737,15.7101327 L22.5417932,2.35973275 L23.5078366,0.00880985788 Z" id="合并形状"></path>
                                </g>
                                <g id="hong" transform="translate(33.193217, 22.372133)" fill="#6D0B2F">
                                    <path d="M3.22266511,0.0319065807 C7.65974303,2.04866755 10.7450668,6.51961418 10.7450668,11.7111768 C10.7450668,13.0837951 10.5293897,14.4060393 10.1300757,15.6458691 L6.16472618,13.3559608 L4.14526384,12.1899737 C4.15693398,12.0318998 4.16287257,11.8722318 4.16287257,11.7111768 C4.16287257,10.4854111 3.81887966,9.33998923 3.22216413,8.36618151 Z" id="合并形状-copy-5"></path>
                                    <path d="M4.15999967,11.6064717 L6.42117531,12.9117779 L26.2052856,24.1857162 L26.4323142,24.4047706 C27.9359769,25.3064536 28.4388324,27.2473112 27.5621863,28.7657069 L27.5390791,28.8057296 C26.6538732,30.3389512 24.6933504,30.8642717 23.1601289,29.9790658 L3.66047461,18.7209352 L1.04044113,17.2082582 L1.03599967,17.2054717 L0.0209996671,16.1494929 C2.78224827,14.5364542 4.16287257,13.0570155 4.16287257,11.7111768 L4.15999967,11.6064717 Z" id="合并形状"></path>
                                </g>
                            </g>
                        </g>
                    </g>
                    <g id="ATON-logo-Copy-2" filter="url(#filter-2)">
                        <g id="aton-logo">
                            <g id="分组" transform="translate(0.000000, 1.025797)" fill="#FFFFFF">
                                <path d="M50.8578009,52.6604368 L58.5908487,57.1243037 C52.3865564,63.4420212 43.7475076,67.3606374 34.1932169,67.3606374 C24.6394312,67.3606374 16.0007906,63.4424354 9.79656883,57.1253053 L17.5296276,52.6612878 C22.0116769,56.4962227 27.8319686,58.8123331 34.1932169,58.8123331 C40.5549358,58.8123331 46.3756181,56.4958801 50.8578009,52.6604368 Z M25.6439287,0.0516925821 L25.6444195,8.98192639 C15.6842582,12.5025686 8.54830424,22.0016488 8.54830424,33.1674204 C8.54830424,34.7693136 8.69517713,36.3369028 8.97619119,37.8574562 L1.23987499,42.324176 C0.431820103,39.409838 0,36.3390577 0,33.1674204 C0,17.2351083 10.8966609,3.8478477 25.6439287,0.0516925821 Z M42.7415064,0.0514354801 C57.489281,3.84724321 68.3864339,17.2347486 68.3864339,33.1674204 C68.3864339,36.3383342 67.9548108,39.408437 67.1471119,42.3221815 L59.4104276,37.8564554 C59.6913212,36.3362149 59.8381296,34.7689622 59.8381296,33.1674204 C59.8381296,22.0016488 52.7021757,12.5025686 42.7420144,8.98192639 Z" id="合并形状"></path>
                            </g>
                            <g id="分组-6" transform="translate(4.103186, 0.000000)">
                                <g id="huang" transform="translate(17.267575, 0.000000)" fill="#E7B52E">
                                    <path d="M10.8559931,21.5206096 L10.8563908,28.0366891 C9.03152827,28.5678744 7.54283817,29.8884071 6.78458998,31.6040178 L4.58599851,32.8740164 L0.0642110199,35.4844932 C0.0217455943,35.0598306 0,34.6290632 0,34.1932169 C0,27.7802471 4.70785361,22.4668554 10.8559931,21.5206096 Z" id="合并形状"></path>
                                    <path d="M12.8651979,0 C14.6356096,-3.25219367e-16 16.070812,1.43520231 16.070812,3.20561409 L16.0718493,28.769598 C15.081993,28.1440424 13.9090227,27.7819888 12.6514903,27.7819888 C11.5709822,27.7819888 10.5529043,28.0492836 9.65977233,28.5213572 L9.65958379,3.20561409 C9.65958379,1.43520231 11.0947861,3.25219367e-16 12.8651979,0 Z" id="合并形状"></path>
                                </g>
                                <g id="lan" transform="translate(0.000000, 33.278700)" fill="#66B7DB">
                                    <path d="M29.9190648,7.32574513 C30.1561735,7.32574513 30.390276,7.31287362 30.6207115,7.28779121 L33.2427927,8.80074138 L37.5941387,11.3129707 C35.4844488,12.8381038 32.892211,13.7369733 30.0900309,13.7369733 C26.1595317,13.7369733 22.6420829,11.968494 20.289983,9.18383372 L23.569255,7.29101069 L25.9261003,5.93081241 C27.0215287,6.80392632 28.4093581,7.32574513 29.9190648,7.32574513 Z" id="合并形状-copy-3"></path>
                                    <path d="M23.5094248,1.00751696 L23.5078366,0.914516958 C23.5078366,3.32098056 24.8336828,5.41777619 26.7947461,6.51427472 L24.0394118,8.10534604 L4.85338116,19.182406 C3.32015959,20.0676119 1.35963677,19.5422914 0.474430885,18.0090698 C-0.410775002,16.4758482 0.114545504,14.5153254 1.64776708,13.6301195 L21.4671492,2.18739388 L23.5094248,1.00751696 Z" id="合并形状"></path>
                                </g>
                                <g id="hong" transform="translate(33.167420, 22.482040)" fill="#B22C5D">
                                    <path d="M2.22266511,0.0319065807 C6.65974303,2.04866755 9.74506683,6.51961418 9.74506683,11.7111768 C9.74506683,13.0837951 9.52938969,14.4060393 9.13007569,15.6458691 L5.16472618,13.3559608 L3.14524685,12.1902037 C3.15692822,12.0320547 3.16287257,11.8723099 3.16287257,11.7111768 C3.16287257,10.4854111 2.81887966,9.33998923 2.22216413,8.36618151 Z" id="合并形状-copy-5"></path>
                                    <path d="M3.16056197,11.6064717 L5.42117531,12.9117779 L25.3657429,24.4267794 C26.8989645,25.3119852 27.424285,27.2725081 26.5390791,28.8057296 C25.6538732,30.3389512 23.6933504,30.8642717 22.1601289,29.9790658 L2.66047461,18.7209352 L0.0465619659,17.2120687 C1.91352685,16.0913894 3.16287257,14.0471833 3.16287257,11.7111768 L3.16056197,11.6064717 Z" id="合并形状"></path>
                                </g>
                            </g>
                        </g>
                    </g>
                </g>
            </g>
        </g>
    </g>
</svg>