<?xml version="1.0" encoding="UTF-8"?>
<svg width="40px" height="40px" viewBox="0 0 40 40" version="1.1" xmlns="http://www.w3.org/2000/svg" xmlns:xlink="http://www.w3.org/1999/xlink">
    <!-- Generator: Sketch 61.2 (89653) - https://sketch.com -->
    <title>3.成为验证节点</title>
    <desc>Created with Sketch.</desc>
    <g id="3.成为验证节点" stroke="none" stroke-width="1" fill="none" fill-rule="evenodd">
        <g id="datav-data-(1)" transform="translate(0.000000, 2.000000)" fill-rule="nonzero">
            <path d="M21.217803,17.530303 C22.6994538,17.0101808 23.6890687,15.6086655 23.6834596,14.0383839 C23.6834596,13.7505051 23.6481061,13.4808081 23.5935606,13.210101 L32.8450758,7.32525251 L21.2188131,27.4474748 L21.2188131,17.530303 L21.217803,17.530303 Z M16.3945707,13.2292929 C16.3400252,13.4989899 16.3036616,13.7686869 16.3036616,14.0575758 C16.3092058,15.6243909 17.2953277,17.0199836 18.7703283,17.5484848 L18.7703283,28.3292929 L6.35113636,6.83939394 L16.3945707,13.2292929 L16.3945707,13.2292929 Z M22.2622475,11.1414142 C21.6090505,10.6315253 20.8050268,10.3529771 19.9763889,10.3494949 C19.1117424,10.3494949 18.3198232,10.6373737 17.6905303,11.1414142 L7.95315658,4.93131312 L32.0349748,4.93131312 L22.2622475,11.1414142 L22.2622475,11.1414142 Z M36.2642677,-2.37209172e-05 C34.6977129,0.00539065167 33.3021975,0.991054179 32.7733586,2.46565658 L7.19760099,2.46565658 C6.67747877,0.984005836 5.27596351,-0.00560908879 3.70568182,-2.37209172e-05 C1.66896033,0.00278201287 0.0185648254,1.65317752 0.0157828125,3.68989901 C0.0185648514,5.72662048 1.66896035,7.37701595 3.70568182,7.37979796 L3.81376264,7.37979796 L16.9521464,30.1474748 C16.5051844,30.771859 16.2659482,31.5210183 16.2683081,32.2888889 C16.2710901,34.3256103 17.9214856,35.9760058 19.9582071,35.9787879 C21.9949285,35.9760059 23.645324,34.3256104 23.6481061,32.2888889 C23.6481061,31.3353535 23.2703283,30.4535353 22.6753788,29.8050505 L35.6349748,7.34343433 C35.8147727,7.37979796 36.0127526,7.3969697 36.2107323,7.3969697 C38.2470602,7.39418903 39.8972931,5.7444078 39.9006313,3.70808082 C39.9006313,1.67373736 38.2986111,-2.37209172e-05 36.2642677,-2.37209172e-05 Z" id="形状" fill="#E40065"></path>
            <rect id="矩形" fill="#FFB7D7" x="16" y="10" width="8" height="8" rx="4"></rect>
        </g>
    </g>
</svg>