<?xml version="1.0" encoding="UTF-8"?>
<svg width="40px" height="40px" viewBox="0 0 40 40" version="1.1" xmlns="http://www.w3.org/2000/svg" xmlns:xlink="http://www.w3.org/1999/xlink">
    <!-- Generator: Sketch 61.2 (89653) - https://sketch.com -->
    <title>9.节点工具</title>
    <desc>Created with Sketch.</desc>
    <g id="9.节点工具" stroke="none" stroke-width="1" fill="none" fill-rule="evenodd">
        <path d="M20.5,33 C21.8636364,33 23,34.1363636 23,35.5 C23,36.8636364 21.8636364,38 20.5,38 C19.1363636,38 18,36.9393939 18,35.5 C18.0757576,34.1363636 19.1363636,33 20.5,33 Z" id="路径" fill="#FFB7D7"></path>
        <path d="M20.5,2 C21.8636364,2 23,3.13636364 23,4.5 C23,5.86363636 21.8636364,7 20.5,7 C19.1363636,7 18,5.93939394 18,4.5 C18.0757576,3.13636364 19.1363636,2 20.5,2 Z" id="路径" fill="#FFB7D7"></path>
        <rect id="矩形" fill="#FFB7D7" x="4" y="17" width="11" height="6" rx="2"></rect>
        <rect id="矩形" fill="#FFB7D7" x="26" y="17" width="11" height="6" rx="2"></rect>
        <g id="fnf-Serverless-工作流-" transform="translate(3.000000, 0.000000)" fill="#E40065" fill-rule="nonzero">
            <path d="M30.0362903,27.0705645 L30.0362903,24.296371 L33.7997312,24.296371 C34.2513441,24.296371 34.5094086,24.0168011 34.5094086,23.5866935 L34.5094086,16.3178763 C34.5094086,16.1458333 34.5094086,15.9522849 34.4233871,15.8662634 C34.3373656,15.6942204 34.1438172,15.6942204 33.8857527,15.6942204 L30.0362903,15.6942204 L30.0362903,12.9200269 C30.0362903,12.0168011 29.3266129,11.3071237 28.4233871,11.3071237 L18.4879032,11.3071237 L18.4879032,8.61895161 L18.5739247,8.61895161 C20.358871,8.0813172 21.6061828,6.38239247 21.6061828,4.40389785 C21.6061828,3.24260753 21.1545699,2.0813172 20.2728495,1.35013441 C19.4556452,0.532930108 18.2943548,0.0168010753 17.219086,0.0168010753 C14.7889785,0.0168010753 12.8319892,1.9952957 12.8319892,4.40389785 C12.8319892,6.38239247 14.1653226,8.0813172 16.0577957,8.61895161 L16.1438172,8.61895161 L16.1438172,11.2211022 L6.72446237,11.2211022 C5.82123656,11.2211022 5.11155914,11.8447581 5.11155914,12.8340054 L5.11155914,15.6942204 L0.724462366,15.6942204 C0.358870968,15.6942204 0.0147849462,15.9522849 0.0147849462,16.4038978 L0.0147849462,23.6727151 C0.0147849462,24.0383065 0.272849462,24.3823925 0.724462366,24.3823925 L5.11155914,24.3823925 L5.11155914,27.0705645 C5.11155914,27.5221774 5.28360215,27.8877688 5.64919355,28.2318548 C6.01478495,28.5974462 6.35887097,28.7694892 6.81048387,28.7694892 L16.2298387,28.7694892 L16.2298387,31.2856183 L16.1438172,31.2856183 C14.2513441,31.8232527 12.9180108,33.6081989 12.9180108,35.500672 C12.9180108,36.6619624 13.3696237,37.8232527 14.2513441,38.5544355 C15.0685484,39.3716398 16.2298387,39.8877688 17.3051075,39.8877688 C19.7137097,39.8877688 21.6922043,37.9092742 21.6922043,35.500672 C21.6922043,33.5221774 20.4448925,31.9092742 18.6384409,31.3716398 L18.5524194,31.3716398 L18.5524194,28.6834677 L28.4018817,28.6834677 C29.3051075,28.6834677 30.0362903,27.9737903 30.0362903,27.0705645 Z M32.2728495,17.7587366 L32.2728495,22.0598118 L24.3803763,22.0598118 L24.3803763,17.7587366 L32.2728495,17.7587366 Z M15.7782258,5.84475806 C15.3266129,5.39314516 15.1545699,4.85551075 15.2405914,4.31787634 C15.2405914,3.24260753 16.2298387,2.25336022 17.3051075,2.25336022 C18.4663978,2.25336022 19.3696237,3.24260753 19.3696237,4.31787634 C19.3696237,4.94153226 19.1115591,5.47916667 18.7459677,5.84475806 C18.3803763,6.21034946 17.8427419,6.38239247 17.219086,6.38239247 C16.6814516,6.38239247 16.1438172,6.18884409 15.7782258,5.84475806 L15.7782258,5.84475806 Z M2.33736559,21.9737903 L2.33736559,17.6727151 L10.3158602,17.6727151 L10.3158602,21.9737903 L2.33736559,21.9737903 Z M19.3696237,35.500672 C19.3696237,36.124328 19.1115591,36.6619624 18.7459677,37.0275538 C18.3803763,37.3931452 17.8427419,37.5651882 17.219086,37.5651882 C16.5954301,37.5651882 16.0577957,37.3071237 15.6922043,36.9415323 C15.4341398,36.6619624 15.2405914,36.124328 15.2405914,35.500672 C15.2405914,34.3393817 16.2298387,33.4361559 17.3051075,33.4361559 C18.4663978,33.4361559 19.3696237,34.3393817 19.3696237,35.500672 L19.3696237,35.500672 Z M27.6922043,26.3608871 L7.45564516,26.3608871 L7.45564516,24.296371 L11.7567204,24.296371 C12.2083333,24.296371 12.4663978,24.0168011 12.4663978,23.5866935 L12.4663978,16.3178763 C12.4663978,15.9522849 12.2083333,15.6081989 11.7567204,15.6081989 L7.36962366,15.6081989 L7.36962366,13.3716398 L27.7997312,13.3716398 L27.7997312,15.6081989 L22.9610215,15.6081989 C22.5954301,15.6081989 22.2513441,15.8662634 22.2513441,16.3178763 L22.2513441,23.5866935 C22.2513441,23.9522849 22.5094086,24.296371 22.9610215,24.296371 L27.7997312,24.296371 L27.7997312,26.3608871 L27.6922043,26.3608871 Z" id="形状"></path>
        </g>
    </g>
</svg>