<?xml version="1.0" encoding="UTF-8"?>
<svg width="26px" height="26px" viewBox="0 0 26 26" version="1.1" xmlns="http://www.w3.org/2000/svg" xmlns:xlink="http://www.w3.org/1999/xlink">
    <!-- Generator: Sketch 61.2 (89653) - https://sketch.com -->
    <title>PlatON-logo2</title>
    <desc>Created with Sketch.</desc>
    <g id="官网-文档页面规则" stroke="none" stroke-width="1" fill="none" fill-rule="evenodd">
        <g id="画板" transform="translate(-177.000000, -37.000000)">
            <g id="PlatON-logo2" transform="translate(177.000000, 37.000000)">
                <polygon id="Fill-13" fill="#F9BE00" points="9.41584245 15.633186 15.6075274 15.633186 15.6075274 9.43313007 9.41584245 9.43313007"></polygon>
                <path d="M6.4441488,21.6274849 L18.9603851,21.6274849 C20.4098381,21.6274849 21.5890066,20.4468975 21.5890066,18.9954849 L21.5890066,6.4623269 L18.7081313,6.4623269 L18.7081313,18.7427148 L6.4441488,18.7427148 L6.4441488,21.6274849 Z" id="Fill-15" fill="#FEFEFE"></path>
                <path d="M18.5789934,6.32381166 L18.5789934,3.4388662 L6.06275711,3.4388662 C4.61347921,3.4388662 3.43413567,4.6196289 3.43413567,6.07104149 L3.43413567,18.6040242 L6.31501094,18.6040242 L6.31501094,6.32381166 L18.5789934,6.32381166 Z" id="Fill-16" fill="#FEFEFE"></path>
                <polygon id="Fill-17" fill="#06B8DE" points="21.5889716 3.4388662 25.0231947 3.4388662 25.0231947 0 21.5889716 0"></polygon>
                <polygon id="Fill-18" fill="#E40265" points="0 25.0664914 3.43422319 25.0664914 3.43422319 21.6274499 0 21.6274499"></polygon>
            </g>
        </g>
    </g>
</svg>