<?xml version="1.0" encoding="UTF-8"?>
<svg width="40px" height="40px" viewBox="0 0 40 40" version="1.1" xmlns="http://www.w3.org/2000/svg" xmlns:xlink="http://www.w3.org/1999/xlink">
    <!-- Generator: Sketch 61.2 (89653) - https://sketch.com -->
    <title>4.设置开发环境</title>
    <desc>Created with Sketch.</desc>
    <g id="4.设置开发环境" stroke="none" stroke-width="1" fill="none" fill-rule="evenodd">
        <g id="开发" transform="translate(0.000000, 2.000000)" fill-rule="nonzero">
            <path d="M36.1435012,0.0155472637 L3.66915423,0.0155472637 C1.64800995,0.0155472637 0.00777363184,1.6596704 0.00777363184,3.67692786 L0.00777363184,32.6181592 C0.00777363184,34.6393035 1.65189677,36.2795398 3.66915423,36.2795398 L36.1473881,36.2795398 C38.1685323,36.2795398 39.8087687,34.6354167 39.8087687,32.6181592 L39.8087687,3.67692786 C39.8048818,1.6596704 38.1607587,0.0155472637 36.1435012,0.0155472637 Z M2.74020522,11.042444 L37.0685634,11.042444 L37.0685634,32.6142724 C37.0685634,33.1234453 36.6526741,33.5432214 36.1396144,33.5432214 L3.66915423,33.5432214 C3.15998134,33.5432214 2.74409204,33.1273321 2.74020522,32.6142724 L2.74020522,11.042444 Z M3.66915423,2.75186567 L36.1473881,2.75186567 C36.6565609,2.75186567 37.0763371,3.16775498 37.0763371,3.68081468 L37.0763371,8.31001244 L2.74020522,8.31001244 L2.74020522,3.67692786 C2.74020522,3.16775498 3.15998134,2.75186567 3.66915423,2.75186567 Z" id="形状" fill="#E40065"></path>
            <path d="M25.2021144,27.7946206 C25.2021144,28.1444341 25.3342662,28.4748134 25.5830224,28.7235697 L25.5869092,28.7274565 C25.8356654,28.9762127 26.162158,29.1083644 26.5158582,29.1083644 C26.8656716,29.1083644 27.196051,28.9723259 27.4448072,28.7235697 L32.960199,23.2159515 C33.4693719,22.7067786 33.4693719,21.8711132 32.960199,21.3619403 L27.4448072,15.8465485 C27.1999378,15.6055659 26.8773321,15.477301 26.5314055,15.477301 C26.1699316,15.477301 25.8356654,15.6211132 25.5869092,15.877643 C25.0932836,16.3868159 25.0932836,17.1913868 25.590796,17.7083333 L30.1694652,22.2870025 L25.5869092,26.8656716 C25.338153,27.1144279 25.2021144,27.4448072 25.2021144,27.7946206 L25.2021144,27.7946206 Z M17.3313122,31.2577736 L17.3390858,31.2616604 C17.4595771,31.2966418 17.5800684,31.3160759 17.7044465,31.3160759 C18.2874689,31.3160759 18.8005286,30.9235075 18.9637749,30.3676928 L23.3675373,14.9409204 C23.4647077,14.6027674 23.4258396,14.252954 23.2548197,13.9458955 C23.0876866,13.6388371 22.8078358,13.4172886 22.4735697,13.3201182 L22.4696828,13.3201182 C22.3453047,13.2851368 22.2209266,13.2618159 22.0926617,13.2618159 C21.5251866,13.2618159 21.0121269,13.6427239 20.8488806,14.1868781 C20.8449938,14.1946517 20.8449938,14.210199 20.841107,14.2179726 L16.4334577,29.6369714 C16.3362873,29.9751244 16.3751555,30.3249378 16.5461754,30.6319963 C16.7171953,30.9390547 16.997046,31.16449 17.3313122,31.2577736 Z M12.3639614,28.7274565 C12.6127177,28.9762127 12.9392102,29.1083644 13.2929104,29.1083644 C13.6427239,29.1083644 13.9731032,28.9723259 14.2257463,28.7235697 C14.7349192,28.2143968 14.7349192,27.3787313 14.2257463,26.8695585 L9.63930348,22.2908893 L14.2218595,17.7044465 C14.7232587,17.1836132 14.7115983,16.3518346 14.1907649,15.8504353 C13.9458955,15.6094527 13.6232898,15.4811878 13.2773632,15.4811878 C12.9314366,15.4811878 12.6127177,15.6133396 12.3639614,15.8543221 L6.85245647,21.3580535 C6.34328358,21.8672264 6.34328358,22.7028918 6.85245647,23.2120647 L12.3639614,28.7274565 L12.3639614,28.7274565 Z" id="形状" fill="#FFB7D7"></path>
        </g>
    </g>
</svg>