<svg width="100" height="100" viewBox="0 0 100 100" xmlns="http://www.w3.org/2000/svg"><defs><filter x="-11.6%" y="-11.4%" width="123.2%" height="122.9%" filterUnits="objectBoundingBox" id="a"><feOffset in="SourceAlpha" result="shadowOffsetOuter1"/><feGaussianBlur stdDeviation="2" in="shadowOffsetOuter1" result="shadowBlurOuter1"/><feColorMatrix values="0 0 0 0 1 0 0 0 0 1 0 0 0 0 1 0 0 0 0.06 0" in="shadowBlurOuter1" result="shadowMatrixOuter1"/><feMerge><feMergeNode in="shadowMatrixOuter1"/><feMergeNode in="SourceGraphic"/></feMerge></filter><filter x="-11.6%" y="-11.4%" width="123.2%" height="122.9%" filterUnits="objectBoundingBox" id="b"><feOffset in="SourceAlpha" result="shadowOffsetOuter1"/><feGaussianBlur stdDeviation="2" in="shadowOffsetOuter1" result="shadowBlurOuter1"/><feColorMatrix values="0 0 0 0 1 0 0 0 0 1 0 0 0 0 1 0 0 0 0.06 0" in="shadowBlurOuter1" result="shadowMatrixOuter1"/><feMerge><feMergeNode in="shadowMatrixOuter1"/><feMergeNode in="SourceGraphic"/></feMerge></filter></defs><g fill="none" fill-rule="evenodd"><rect width="100" height="100" rx="12" fill="#1B2137"/><g filter="url(#a)" transform="translate(17.075 14.977)"><path d="M34.193 60.034a25.544 25.544 0 0016.665-6.153l6.04 3.487.618-.195 1.08 1.167C52.39 64.661 43.75 68.582 34.193 68.582c-9.55 0-18.185-3.915-24.389-10.228-.245-.25-.605-.609-1.079-1.079a.338.338 0 000-.1l.002.006 1.164 1.11.032-.025 7.602-4.388a25.544 25.544 0 0016.668 6.156zm7.963-58.907C57.2 4.716 68.386 18.246 68.386 34.39c0 3.17-.431 6.241-1.24 9.155l-7.741-4.47-1.07-1.17c1.002-1.416 1.503-2.588 1.503-3.515 0-11.196-7.175-20.717-17.177-24.214l-.994-1.144zM24.57.1l1.075 1.173v8.93c-9.96 3.52-17.097 13.02-17.097 24.186 0 1.601.147 3.168.428 4.689l-7.72 4.457v-.008l-1.09-1.155c.452-.277.677-.42.675-.432A34.298 34.298 0 010 34.39C0 18.996 10.171 5.979 24.16 1.69c.087-.027.224-.557.41-1.59z" fill="#D6D6D6"/><g fill="#8F6C0F"><path d="M32.227 21.716v6.516a6.428 6.428 0 00-4.072 3.568l-2.198 1.27-4.518 2.608-.012.006-1.067-1.176c.632-.484.975-.776 1.027-.877l.007-.02c.363-6.061 4.935-10.987 10.833-11.895z"/><path d="M31.03.195l3.706.05a2.657 2.657 0 012.705 2.608v.024l.002 26.088a6.381 6.381 0 00-3.42-.988 6.38 6.38 0 00-2.992.74V.195z"/></g><g fill="#1E6E91"><path d="M34.022 40.8c.237 0 .471-.013.702-.038l2.622 1.513 3.277 1.34 1.075 1.171a12.764 12.764 0 01-7.505 2.425c-3.93 0-7.448-1.768-9.8-4.553l3.28-1.893 2.356-1.36a6.384 6.384 0 003.993 1.395z"/><path d="M26.536 33.31l1.07 1.176.007-.004.002.137a6.41 6.41 0 003.283 5.37l-2.755 1.59L8.858 52.56A3.596 3.596 0 014.1 51.386c-.437-.669-.696-1.099-.777-1.29-.077-.181-.16-.542-.249-1.083l22.497-13.35.966-2.351z"/></g><g fill="#6D0B2F"><path d="M39.444 22.6c4.438 2.016 7.523 6.487 7.523 11.679 0 1.372-.216 2.695-.615 3.934l-3.966-2.29-2.019-1.166a6.381 6.381 0 00-.923-3.824z"/><path d="M40.382 34.174l2.26 1.305 19.785 11.274.227.22a3.212 3.212 0 011.13 4.36l-.023.04a3.206 3.206 0 01-4.38 1.174L39.883 41.288l-2.62-1.512-.004-.003-1.015-1.056c2.761-1.613 4.142-3.092 4.142-4.438l-.003-.105z"/></g></g><g filter="url(#b)" transform="translate(16 14)"><path d="M50.858 53.686l7.733 4.464c-6.204 6.318-14.843 10.236-24.398 10.236-9.554 0-18.192-3.918-24.396-10.235l7.733-4.464a25.544 25.544 0 0016.663 6.151 25.544 25.544 0 0016.665-6.152zM25.644 1.077v8.93c-9.96 3.521-17.096 13.02-17.096 24.186 0 1.602.147 3.17.428 4.69L1.24 43.35A34.226 34.226 0 010 34.193C0 18.261 10.897 4.873 25.644 1.077zm17.098 0c14.747 3.796 25.644 17.184 25.644 33.116 0 3.171-.431 6.241-1.239 9.155l-7.737-4.466c.281-1.52.428-3.087.428-4.689 0-11.166-7.136-20.665-17.096-24.185z" fill="#FFF"/><g fill="#E7B52E"><path d="M32.227 21.52v6.517a6.428 6.428 0 00-4.072 3.567l-2.198 1.27-4.522 2.61a12.975 12.975 0 01-.064-1.29c0-6.414 4.708-11.727 10.856-12.673z"/><path d="M34.236 0a3.206 3.206 0 013.206 3.206V28.77a6.381 6.381 0 00-3.42-.988 6.37 6.37 0 00-2.991.74V3.205A3.206 3.206 0 0134.235 0z"/></g><g fill="#66B7DB"><path d="M34.022 40.604c.237 0 .471-.012.702-.038l2.622 1.513 4.351 2.513a12.764 12.764 0 01-7.504 2.424c-3.93 0-7.448-1.769-9.8-4.553l3.28-1.893 2.356-1.36a6.384 6.384 0 003.993 1.394z"/><path d="M27.613 34.286l-.002-.093a6.41 6.41 0 003.287 5.6l-2.755 1.591L8.957 52.461A3.206 3.206 0 115.75 46.91l19.82-11.443 2.042-1.18z"/></g><g fill="#B22C5D"><path d="M39.493 22.514c4.437 2.017 7.523 6.488 7.523 11.68 0 1.372-.216 2.694-.615 3.934l-3.966-2.29-2.02-1.166a6.381 6.381 0 00-.923-3.824z"/><path d="M40.431 34.089l2.26 1.305 19.945 11.515a3.206 3.206 0 11-3.205 5.552l-19.5-11.258-2.614-1.509a6.408 6.408 0 003.116-5.5l-.002-.105z"/></g></g></g></svg>