<svg width="40" height="40" viewBox="0 0 40 40" xmlns="http://www.w3.org/2000/svg"><g transform="translate(0 2)" fill="none"><path d="M21.218 17.53a3.687 3.687 0 002.465-3.492 4.11 4.11 0 00-.09-.828l9.252-5.885L21.22 27.447V17.53h-.001zm-4.823-4.3a4.078 4.078 0 00-.091.828 3.722 3.722 0 002.466 3.49V28.33L6.351 6.84l10.044 6.39zm5.867-2.089a3.74 3.74 0 00-2.286-.792c-.864 0-1.656.288-2.285.792l-9.738-6.21h24.082l-9.773 6.21zM36.264 0a3.722 3.722 0 00-3.49 2.466H7.197A3.687 3.687 0 003.706 0a3.695 3.695 0 00-3.69 3.69 3.695 3.695 0 003.69 3.69h.108l13.138 22.767a3.66 3.66 0 00-.684 2.142 3.695 3.695 0 003.69 3.69 3.695 3.695 0 003.69-3.69 3.69 3.69 0 00-.973-2.484l12.96-22.462c.18.037.378.054.576.054a3.695 3.695 0 003.69-3.689C39.9 1.674 38.299 0 36.264 0z" fill="#E40065"/><rect fill="#FFB7D7" x="16" y="10" width="8" height="8" rx="4"/></g></svg>