<svg width="40" height="40" viewBox="0 0 40 40" xmlns="http://www.w3.org/2000/svg"><g fill="none"><path d="M20.562.038a19.753 19.753 0 0113.918 6.25 19.668 19.668 0 015.407 14.264 19.753 19.753 0 01-6.25 13.919c-3.72 3.49-8.742 5.598-14.226 5.406h-.038a19.753 19.753 0 01-13.919-6.25C1.965 29.908-.106 24.885.048 19.402v-.039a19.753 19.753 0 016.25-13.918c3.68-3.49 8.742-5.56 14.264-5.407zm12.27 7.822c-3.106-3.259-7.439-5.368-12.309-5.521h-.038A17.6 17.6 0 007.832 7.132c-3.298 3.106-5.407 7.439-5.56 12.308v.039a17.6 17.6 0 004.793 12.653c3.106 3.297 7.438 5.368 12.308 5.521h.038a17.6 17.6 0 0012.654-4.793c3.297-3.144 5.406-7.477 5.56-12.346.153-4.87-1.726-9.356-4.793-12.654z" fill="#E40065"/><path d="M16.842 6.442a3.42 3.42 0 013.413 3.412 3.42 3.42 0 01-3.413 3.413 3.42 3.42 0 01-3.412-3.413 3.42 3.42 0 013.412-3.412zm-6.365 12.423c1.074 0 1.918.882 1.918 1.917a1.923 1.923 0 01-1.918 1.917 1.899 1.899 0 01-1.917-1.917c-.038-1.035.844-1.917 1.917-1.917zm15.184 10.008c.69 0 1.266.575 1.266 1.265s-.575 1.265-1.266 1.265c-.69 0-1.265-.536-1.265-1.265.038-.69.575-1.265 1.265-1.265z" fill="#FFB7D7"/><path d="M1.467 31.442a1.126 1.126 0 011.572-.345c.537.345.69 1.035.345 1.572-.039.076-.192.345-.384.728-.268.537-.575 1.227-.69 1.84-.038.346-.038.653.115.768l.039.038c1.38.69 5.06-1.15 9.547-4.295 5.061-3.565 10.89-8.819 15.606-14.187C31.72 12.883 35.094 8.206 36.32 5.1c.345-.844.498-1.534.46-1.956 0-.115-.077-.192-.192-.23-.498-.115-1.38.038-2.684.537a1.15 1.15 0 01-1.495-.69 1.124 1.124 0 01.69-1.457C34.826.652 36.13.498 37.05.69c1.226.269 1.878 1.035 1.993 2.186.115.843-.115 1.879-.575 3.106-1.342 3.335-4.87 8.32-9.126 13.113-4.83 5.483-10.812 10.851-16.027 14.57-5.138 3.643-9.663 5.599-11.887 4.487-.076-.039-.153-.115-.23-.115-1.112-.69-1.303-1.84-1.112-3.03.154-.92.537-1.878.882-2.53.23-.575.422-.92.499-1.035z" fill="#E40065"/></g></svg>