<svg width="40" height="40" viewBox="0 0 40 40" xmlns="http://www.w3.org/2000/svg"><g fill="none"><path d="M29.09 29.09v-5.454a1.818 1.818 0 013.637 0v5.455h5.455a1.818 1.818 0 010 3.636h-5.455v5.455a1.818 1.818 0 01-3.636 0v-5.455h-5.455a1.818 1.818 0 010-3.636h5.455zM40 23.637a1.818 1.818 0 01-3.636 0V7.273a3.636 3.636 0 00-3.637-3.637H14.545c-6.024 0-10.909 4.885-10.909 10.91v18.181a3.636 3.636 0 003.637 3.637h16.363a1.818 1.818 0 010 3.636H7.273A7.273 7.273 0 010 32.727V14.545C0 6.512 6.512 0 14.545 0h18.182A7.273 7.273 0 0140 7.273v16.363z" fill="#E40065"/><path d="M14.545 0h3.637v10.91a7.273 7.273 0 01-7.273 7.272H0v-3.637C0 6.512 6.512 0 14.545 0zm0 3.636c-6.024 0-10.909 4.885-10.909 10.91h7.273a3.636 3.636 0 003.636-3.637V3.636z" fill="#FFB7D7"/></g></svg>