<svg width="40" height="40" viewBox="0 0 40 40" xmlns="http://www.w3.org/2000/svg"><g fill="none"><path d="M37.093 18.049c-.689 0-1.297.263-1.761.668l-7.313-1.073a5.896 5.896 0 00-.83-2.41l6.136-6.481a4.25 4.25 0 001.601.304 4.477 4.477 0 00.02-8.952 4.477 4.477 0 00-4.476 4.476c0 .81.223 1.58.608 2.228l-6.016 6.338a5.715 5.715 0 00-2.694-.77l-1.538-7.25a2.962 2.962 0 00.932-2.147 2.982 2.982 0 00-5.08-2.115 2.964 2.964 0 00-.874 2.096c0 1.357.911 2.47 2.126 2.835l1.52 7.17a6.166 6.166 0 00-1.825 1.397l-7.188-3.706c0-.041.02-.102.02-.142a2.982 2.982 0 00-2.977-2.977 2.982 2.982 0 00-2.977 2.977 2.982 2.982 0 002.977 2.977c.486 0 .931-.122 1.316-.325l7.494 3.869c-.089.42-.136.847-.143 1.276 0 1.195.365 2.309.973 3.24l-6.116 6.461a4.477 4.477 0 00-6.38 4.05 4.477 4.477 0 008.952 0 4.403 4.403 0 00-.445-1.923l6.197-6.542a5.901 5.901 0 002.794.708c.648 0 1.276-.1 1.863-.304l4.577 7.231a2.968 2.968 0 00-.364 1.377 2.982 2.982 0 002.977 2.977 2.982 2.982 0 002.977-2.977 2.982 2.982 0 00-2.977-2.976h-.101l-4.598-7.272a5.97 5.97 0 001.135-1.761l6.946 1.033a2.673 2.673 0 002.532 1.802 2.707 2.707 0 002.694-2.693 2.707 2.707 0 00-2.694-2.694" fill="#E40065"/><path d="M9.185 17.583a1.487 1.487 0 001.134-1.782 1.487 1.487 0 00-1.782-1.134c-2.45.566-4.881-.953-5.449-3.342a4.413 4.413 0 01.568-3.341 4.476 4.476 0 012.856-2.006c2.45-.547 4.88.972 5.448 3.362a1.483 1.483 0 001.781 1.114 1.483 1.483 0 001.115-1.782c-.912-3.99-4.942-6.522-8.993-5.61a7.498 7.498 0 00-4.718 3.321 7.344 7.344 0 00-.952 5.59c.79 3.442 3.908 5.793 7.332 5.793a5.773 5.773 0 001.66-.183m23.37 7.534a1.478 1.478 0 00-1.74 1.174 1.478 1.478 0 001.174 1.742c2.43.466 4.01 2.835 3.544 5.286a4.396 4.396 0 01-1.904 2.896 4.387 4.387 0 01-3.32.689c-2.431-.467-4.01-2.835-3.564-5.286.161-.81-.386-1.58-1.195-1.742-.812-.162-1.581.385-1.742 1.195-.77 4.051 1.882 8 5.913 8.769a8.14 8.14 0 001.418.142 7.296 7.296 0 004.15-1.296 7.405 7.405 0 003.14-4.82c.81-4.051-1.843-7.98-5.873-8.75" fill="#FFB7D7"/></g></svg>