<svg width="78" height="99" viewBox="0 0 78 99" xmlns="http://www.w3.org/2000/svg"><path d="M3.093 85.665v3.72H9.19v2.956H3.093v6.05H0V82.707h9.369v2.957zm16.784 7.125c0-1.816-1.322-3.092-3.049-3.092-1.703 0-3.025 1.276-3.025 3.091 0 1.816 1.322 3.092 3.025 3.092 1.727 0 3.049-1.276 3.049-3.092m-8.965 0c0-3.337 2.622-5.914 5.916-5.914 3.296 0 5.94 2.577 5.94 5.914 0 3.338-2.644 5.915-5.94 5.915-3.294 0-5.916-2.577-5.916-5.915m20.191-5.824v3.226c-1.502-.18-3.407.493-3.407 2.845v5.354h-2.891v-11.2h2.89v1.926c.583-1.524 1.996-2.151 3.408-2.151m11.965.225v11.2h-2.891v-1.255c-.672 1.008-1.838 1.57-3.34 1.57-2.375 0-4.236-1.659-4.236-4.638v-6.878h2.892v6.519c0 1.523.918 2.308 2.219 2.308 1.412 0 2.465-.83 2.465-2.779V87.19h2.891zm19.272 4.3v6.9h-2.89v-6.698c0-1.321-.674-2.128-1.884-2.128-1.277 0-2.084.851-2.084 2.531v6.295H52.59v-6.698c0-1.321-.673-2.128-1.883-2.128-1.232 0-2.107.851-2.107 2.531v6.295h-2.89v-11.2h2.89v1.186c.628-.94 1.68-1.5 3.115-1.5 1.39 0 2.42.581 3.049 1.612.694-1.008 1.815-1.612 3.34-1.612 2.554 0 4.235 1.814 4.235 4.615M8.858 74.67v2.958H.068V61.945h2.994v12.726zm9.592-2.643c0-1.882-1.28-3.16-3.017-3.16-1.714 0-2.995 1.278-2.995 3.16 0 1.882 1.28 3.16 2.995 3.16 1.737 0 3.017-1.278 3.017-3.16zm2.8-5.601v11.202h-2.8v-1.322c-.781 1.01-1.953 1.636-3.537 1.636-2.887 0-5.275-2.577-5.275-5.915s2.388-5.915 5.275-5.915c1.584 0 2.756.627 3.537 1.636v-1.322h2.8zm6.293 2.779v4.66c0 1.209.847 1.231 2.453 1.142v2.621c-3.928.449-5.253-.739-5.253-3.763v-4.66h-1.888v-2.779h1.888v-2.263l2.8-.873v3.136h2.453v2.779h-2.453zm7.141 0v4.66c0 1.209.847 1.231 2.453 1.142v2.621c-3.928.449-5.253-.739-5.253-3.763v-4.66h-1.888v-2.779h1.888v-2.263l2.8-.873v3.136h3.755v2.779h-3.755zm3.43-5.893c0-.964.781-1.793 1.714-1.793.955 0 1.737.83 1.737 1.793s-.782 1.77-1.737 1.77c-.933 0-1.714-.807-1.714-1.77m.325 14.316h2.8V66.426h-2.8zm4.291-5.601c0-3.338 2.433-5.81 5.73-5.915 2.078-.065 3.572.963 3.572.963l-1.19 2.274c-.815-.302-1.481-.398-2.403-.392-1.67.014-2.908 1.278-2.908 3.07 0 1.77 1.064 2.838 2.726 3.023.86.096 1.87-.113 2.584-.371l1.191 2.298s-1.226.965-3.571.965c-3.3 0-5.73-2.577-5.73-5.915m17.723-1.053c-.348-1.613-1.52-2.262-2.691-2.262-1.498 0-2.519.829-2.844 2.262h5.535zm-2.431 4.347c1.085 0 1.953-.471 2.43-1.12l2.257 1.344c-1.02 1.523-2.647 2.397-4.73 2.397-3.647 0-5.948-2.576-5.948-5.915 0-3.338 2.323-5.914 5.73-5.914 3.212 0 5.491 2.62 5.491 5.914 0 .426-.043.807-.109 1.187h-8.181c.39 1.48 1.584 2.107 3.06 2.107zm15.855 2.307l-3.376-5.108-3.376 5.108h-3.873l5.312-8.043-5.039-7.64H67.4l3.103 4.706 3.103-4.706h3.873l-5.04 7.618 5.338 8.065zM27.045 0l-5.312 3.065 5.312 3.066zm-8.889 7.015l-5.311 3.065 5.311 3.065zm1.869 11.229l-5.312 3.065 5.312 3.066zm11.13-1.927l-5.311 3.065 5.311 3.065zm2.739 11.132l-5.311 3.065 5.311 3.065zm5.403-23.467l-5.312 3.066 5.312 3.065zm2.033 8.726l-5.31 3.065 5.31 3.066zm2.25 10.344l-5.312 3.066 5.312 3.065zm5.776-3.332l-5.312 3.065 5.312 3.066zm5.762-3.328l-5.311 3.066 5.311 3.065zm-5.768-3.327l-5.312 3.065 5.312 3.066zm6.73 12.625l-5.312 3.065 5.311 3.065zm-5.758 3.33l-5.312 3.066 5.312 3.065zm-8.604 3.316L36.406 35.4l5.312 3.065zm20.129-9.977l-5.311 3.066 5.311 3.065zM24.21 31.091l-5.31 3.065 5.31 3.066zm11.732 4.579l-5.311 3.065 5.311 3.065zm-5.748 3.327l-5.312 3.065 5.312 3.066zm5.753 3.333l-5.312 3.065 5.312 3.065zM41.71 39l-5.31 3.067 5.312 3.066zm8.61 3.33l-5.311 3.065 5.31 3.065zm-.007-6.66L45 38.735l5.312 3.065zm5.77-3.32l-5.311 3.066 5.311 3.066zm5.779-3.33l-5.312 3.066 5.312 3.065zm-.006 6.66l-5.312 3.066 5.312 3.066zm-5.766 3.326l-5.312 3.065 5.312 3.066zM41.717 45.66l-5.311 3.065 5.311 3.065zM6 10.345l5.311 3.065L6 16.476zm16.982 0l5.31 3.065-5.31 3.066zm-7.454 16.17l5.312 3.066-5.312 3.065zm10.874 5.515l5.312 3.066-5.312 3.065zm-8.414 4.55l5.311 3.065-5.31 3.066zm12.51 2.428l5.311 3.065-5.311 3.065zm5.756-3.338l5.311 3.065-5.311 3.065zm-.001-6.66l5.312 3.065-5.312 3.066zm-.092-10.125l5.311 3.066-5.31 3.065zm-7.734 5.24l5.311 3.066-5.311 3.065zm5.415-16.803l5.311 3.066-5.31 3.065zM43.887 23.05l5.311 3.065-5.311 3.065zm.02-6.658l5.312 3.066-5.312 3.065zM42.686 7.29l5.312 3.066-5.312 3.066zm6.968 5.77l5.311 3.065-5.311 3.066zm.008 6.666l5.31 3.066-5.31 3.065zm5.758-3.332l5.311 3.065-5.311 3.066zm.97 9.293l5.312 3.066-5.312 3.065zm-5.777 3.333l5.312 3.066-5.312 3.065zm-5.764 3.33l5.311 3.066-5.311 3.066zm5.781 3.33l5.312 3.066-5.312 3.066zm5.757-3.326L61.7 35.42l-5.312 3.065zm.006 6.655l5.311 3.065-5.311 3.065zm-5.771 3.33l5.311 3.065-5.311 3.065zm-5.769 3.321l5.312 3.065-5.312 3.065zm-8.599-3.327l5.311 3.065-5.311 3.066zM44.848 39l5.312 3.066-5.312 3.066z" fill="#4E5454" fill-rule="evenodd"/></svg>