<svg width="56" height="52" viewBox="0 0 56 52" xmlns="http://www.w3.org/2000/svg"><path d="M21.045 0l-5.312 3.065 5.312 3.066zm-8.889 7.015L6.845 10.08l5.311 3.065zm1.869 11.229l-5.312 3.065 5.312 3.066zm11.13-1.927l-5.311 3.065 5.311 3.065zm2.739 11.132l-5.311 3.065 5.311 3.065zm5.403-23.467l-5.312 3.066 5.312 3.065zm2.033 8.726l-5.31 3.065 5.31 3.066zm2.25 10.344l-5.312 3.066 5.312 3.065zm5.776-3.332l-5.312 3.065 5.312 3.066zm5.762-3.328l-5.311 3.066 5.311 3.065zm-5.768-3.327l-5.312 3.065 5.312 3.066zm6.73 12.625l-5.312 3.065 5.311 3.065zm-5.758 3.33l-5.312 3.066 5.312 3.065zm-8.604 3.316L30.406 35.4l5.312 3.065zm20.129-9.977l-5.311 3.066 5.311 3.065zM18.21 31.091l-5.31 3.065 5.31 3.066zm11.732 4.579l-5.311 3.065 5.311 3.065zm-5.748 3.327l-5.312 3.065 5.312 3.066zm5.753 3.333l-5.312 3.065 5.312 3.065zM35.71 39l-5.31 3.067 5.312 3.066zm8.61 3.33l-5.311 3.065 5.31 3.065zm-.007-6.66L39 38.735l5.312 3.065zm5.77-3.32l-5.311 3.066 5.311 3.066zm5.779-3.33l-5.312 3.066 5.312 3.065zm-.006 6.66l-5.312 3.066 5.312 3.066zm-5.766 3.326l-5.312 3.065 5.312 3.066zM35.717 45.66l-5.311 3.065 5.311 3.065zM0 10.345l5.311 3.065L0 16.476zm16.982 0l5.31 3.065-5.31 3.066zm-7.454 16.17l5.312 3.066-5.312 3.065zm10.874 5.515l5.312 3.066-5.312 3.065zm-8.414 4.55l5.311 3.065-5.31 3.066zm12.51 2.428l5.311 3.065-5.311 3.065zm5.756-3.338l5.311 3.065-5.311 3.065zm-.001-6.66l5.312 3.065-5.312 3.066zm-.092-10.125l5.311 3.066-5.31 3.065zm-7.734 5.24l5.311 3.066-5.311 3.065zm5.415-16.803l5.311 3.066-5.31 3.065zM37.887 23.05l5.311 3.065-5.311 3.065zm.02-6.658l5.312 3.066-5.312 3.065zM36.686 7.29l5.312 3.066-5.312 3.066zm6.968 5.77l5.311 3.065-5.311 3.066zm.008 6.666l5.31 3.066-5.31 3.065zm5.758-3.332l5.311 3.065-5.311 3.066zm.97 9.293l5.312 3.066-5.312 3.065zm-5.777 3.333l5.312 3.066-5.312 3.065zm-5.764 3.33l5.311 3.066-5.311 3.066zm5.781 3.33l5.312 3.066-5.312 3.066zm5.757-3.326L55.7 35.42l-5.312 3.065zm.006 6.655l5.311 3.065-5.311 3.065zm-5.771 3.33l5.311 3.065-5.311 3.065zm-5.769 3.321l5.312 3.065-5.312 3.065zm-8.599-3.327l5.311 3.065-5.311 3.066zM38.848 39l5.312 3.066-5.312 3.066z" fill="#4E5454" fill-rule="evenodd"/></svg>