<svg width="66" height="64" viewBox="0 0 66 64" xmlns="http://www.w3.org/2000/svg"><g fill="none"><path d="M47.067 41.7a23.608 23.608 0 01-11.794 19.077c-11.26 6.492-25.622 2.686-32.083-8.479-5.5-9.5-3.487-21.271 4.16-28.596 0 .929.158 3.136.798 5.502-4.318 5.885-5.022 13.978-1.151 20.664 5.214 9.051 16.889 12.123 26.036 6.844a19.184 19.184 0 009.589-15.336 5.415 5.415 0 01-2.134-2.065 5.448 5.448 0 012.015-7.453c2.59-1.502 5.916-.607 7.452 1.984a5.448 5.448 0 01-2.888 7.858z" fill="#08B8DE"/><path d="M42.622 41.376a5.415 5.415 0 01-2.134-2.065 5.448 5.448 0 012.015-7.453c2.59-1.502 5.916-.607 7.452 1.984a5.448 5.448 0 01-2.888 7.858l-4.445-.324z" fill="#121F38"/><path d="M31.408 18.2c7.086-3.608 15.581-3.431 22.513.609 11.26 6.524 15.163 20.855 8.7 32.018-5.533 9.564-16.824 13.722-27.028 10.652a24.525 24.525 0 004.35-3.423c7.325.865 14.779-2.56 18.68-9.308 5.214-9.053 2.049-20.696-7.1-25.973a19.108 19.108 0 00-17.694-.803 5.396 5.396 0 01-.668 3.522 5.419 5.419 0 01-7.452 1.984 5.457 5.457 0 01-2.015-7.455 5.419 5.419 0 017.714-1.823z" fill="#E40065"/><path d="M33.829 21.972a5.396 5.396 0 01-.668 3.522 5.419 5.419 0 01-7.452 1.984 5.457 5.457 0 01-2.015-7.455 5.419 5.419 0 017.714-1.823c.203-.103 2.42 3.772 2.42 3.772z" fill="#121F38"/><path d="M19.532 43.481A23.588 23.588 0 018.596 23.543C8.596 10.556 19.024 0 31.946 0c10.972 0 20.183 7.614 22.68 17.88-.8-.415-2.784-1.406-5.119-2.015C46.533 9.181 39.88 4.511 32.17 4.511c-10.491 0-18.968 8.571-18.968 19.129a19.175 19.175 0 008.548 15.986 5.467 5.467 0 018.692 4.42 5.448 5.448 0 01-5.468 5.47 5.467 5.467 0 01-5.442-6.037v.002z" fill="#F9BE00"/><path d="M21.75 39.626a5.467 5.467 0 018.692 4.42 5.448 5.448 0 01-5.468 5.47 5.467 5.467 0 01-5.442-6.037c2.218-3.853 1.257-2.196 2.218-3.853z" fill="#121F38"/></g></svg>