<svg width="74" height="101" viewBox="0 0 74 101" xmlns="http://www.w3.org/2000/svg"><g fill="none"><path d="M52.067 41.7a23.608 23.608 0 01-11.794 19.077c-11.26 6.492-25.622 2.686-32.083-8.479-5.5-9.5-3.487-21.271 4.16-28.596 0 .929.158 3.136.798 5.502-4.318 5.885-5.022 13.978-1.151 20.664 5.214 9.051 16.889 12.123 26.036 6.844a19.184 19.184 0 009.589-15.336 5.415 5.415 0 01-2.134-2.065 5.448 5.448 0 012.015-7.453c2.59-1.502 5.916-.607 7.452 1.984a5.448 5.448 0 01-2.888 7.858z" fill="#08B8DE"/><path d="M47.622 41.376a5.415 5.415 0 01-2.134-2.065 5.448 5.448 0 012.015-7.453c2.59-1.502 5.916-.607 7.452 1.984a5.448 5.448 0 01-2.888 7.858l-4.445-.324z" fill="#121F38"/><path d="M36.408 18.2c7.086-3.608 15.581-3.431 22.513.609 11.26 6.524 15.163 20.855 8.7 32.018-5.533 9.564-16.824 13.722-27.028 10.652a24.525 24.525 0 004.35-3.423c7.325.865 14.779-2.56 18.68-9.308 5.214-9.053 2.049-20.696-7.1-25.973a19.108 19.108 0 00-17.694-.803 5.396 5.396 0 01-.668 3.522 5.419 5.419 0 01-7.452 1.984 5.457 5.457 0 01-2.015-7.455 5.419 5.419 0 017.714-1.823z" fill="#E40065"/><path d="M38.829 21.972a5.396 5.396 0 01-.668 3.522 5.419 5.419 0 01-7.452 1.984 5.457 5.457 0 01-2.015-7.455 5.419 5.419 0 017.714-1.823c.203-.103 2.42 3.772 2.42 3.772z" fill="#121F38"/><path d="M24.532 43.481a23.588 23.588 0 01-10.936-19.938C13.596 10.556 24.024 0 36.946 0c10.972 0 20.183 7.614 22.68 17.88-.8-.415-2.784-1.406-5.119-2.015C51.533 9.181 44.88 4.511 37.17 4.511c-10.491 0-18.968 8.571-18.968 19.129a19.175 19.175 0 008.548 15.986 5.467 5.467 0 018.692 4.42 5.448 5.448 0 01-5.468 5.47 5.467 5.467 0 01-5.442-6.037v.002z" fill="#F9BE00"/><path d="M26.75 39.626a5.467 5.467 0 018.692 4.42 5.448 5.448 0 01-5.468 5.47 5.467 5.467 0 01-5.442-6.037c2.218-3.853 1.257-2.196 2.218-3.853z" fill="#121F38"/><path d="M3.042 99.928V87.136h.104l5.46 12.792h2.626l5.46-12.792h.104v12.792h3.042V81.364h-3.562l-6.292 14.56H9.88l-6.318-14.56H0v18.564h3.042zm28.132 0V83.964h6.084v-2.6h-15.21v2.6h6.084v15.964h3.042zm14.274.364c2.045 0 3.692-.676 4.94-2.028 1.213-1.317 1.82-2.999 1.82-5.044 0-2.063-.615-3.761-1.846-5.096-1.23-1.335-2.869-2.002-4.914-2.002-2.063 0-3.7.667-4.914 2.002-1.23 1.3-1.846 2.999-1.846 5.096 0 2.08.607 3.761 1.82 5.044 1.248 1.352 2.895 2.028 4.94 2.028zm0-2.418c-1.23 0-2.184-.485-2.86-1.456-.572-.832-.858-1.898-.858-3.198 0-1.317.286-2.392.858-3.224.659-.97 1.612-1.456 2.86-1.456 1.248 0 2.201.485 2.86 1.456.59.85.884 1.924.884 3.224 0 1.248-.295 2.314-.884 3.198-.676.97-1.63 1.456-2.86 1.456zm15.6 2.418c2.045 0 3.692-.676 4.94-2.028 1.213-1.317 1.82-2.999 1.82-5.044 0-2.063-.615-3.761-1.846-5.096-1.23-1.335-2.869-2.002-4.914-2.002-2.063 0-3.7.667-4.914 2.002-1.23 1.3-1.846 2.999-1.846 5.096 0 2.08.607 3.761 1.82 5.044 1.248 1.352 2.895 2.028 4.94 2.028zm0-2.418c-1.23 0-2.184-.485-2.86-1.456-.572-.832-.858-1.898-.858-3.198 0-1.317.286-2.392.858-3.224.659-.97 1.612-1.456 2.86-1.456 1.248 0 2.201.485 2.86 1.456.59.85.884 1.924.884 3.224 0 1.248-.295 2.314-.884 3.198-.676.97-1.63 1.456-2.86 1.456zm12.584 2.054V81h-2.964v18.928h2.964z" fill="#1D2337"/></g></svg>