<svg width="40" height="40" viewBox="0 0 40 40" xmlns="http://www.w3.org/2000/svg"><g fill="none" fill-rule="evenodd"><path d="M20.5 33c1.364 0 2.5 1.136 2.5 2.5S21.864 38 20.5 38 18 36.94 18 35.5c.076-1.364 1.136-2.5 2.5-2.5zm0-31C21.864 2 23 3.136 23 4.5S21.864 7 20.5 7 18 5.94 18 4.5c.076-1.364 1.136-2.5 2.5-2.5z" fill="#FFB7D7"/><rect fill="#FFB7D7" x="4" y="17" width="11" height="6" rx="2"/><rect fill="#FFB7D7" x="26" y="17" width="11" height="6" rx="2"/><path d="M33.036 27.07v-2.774H36.8c.451 0 .71-.28.71-.71v-7.268c0-.172 0-.366-.087-.452-.086-.172-.28-.172-.537-.172h-3.85V12.92c0-.903-.71-1.613-1.613-1.613h-9.935V8.62h.086c1.785-.538 3.032-2.237 3.032-4.215 0-1.161-.451-2.323-1.333-3.054C22.456.533 21.294.017 20.219.017a4.392 4.392 0 00-4.387 4.387c0 1.978 1.333 3.677 3.226 4.215h.086v2.602h-9.42c-.903 0-1.612.624-1.612 1.613v2.86H3.724c-.365 0-.71.258-.71.71v7.269c0 .365.259.71.71.71h4.388v2.688c0 .451.172.817.537 1.16.366.366.71.538 1.161.538h9.42v2.517h-.086c-1.893.537-3.226 2.322-3.226 4.215 0 1.161.452 2.322 1.333 3.053.818.818 1.979 1.334 3.054 1.334 2.409 0 4.387-1.979 4.387-4.387 0-1.979-1.247-3.592-3.054-4.13h-.086v-2.688h9.85c.903 0 1.634-.71 1.634-1.612zm2.237-9.311v4.3H27.38v-4.3h7.893zM18.778 5.845c-.451-.452-.623-.99-.537-1.527 0-1.075.989-2.065 2.064-2.065 1.161 0 2.065.99 2.065 2.065 0 .624-.258 1.161-.624 1.527-.366.365-.903.537-1.527.537-.538 0-1.075-.193-1.44-.537zM5.338 21.974v-4.301h7.978v4.3H5.337zM22.37 35.5c0 .623-.258 1.161-.624 1.527-.366.365-.903.537-1.527.537a2.157 2.157 0 01-1.527-.623c-.258-.28-.451-.818-.451-1.441 0-1.162.989-2.065 2.064-2.065 1.161 0 2.065.903 2.065 2.065zm8.322-9.14H10.456v-2.065h4.3c.452 0 .71-.28.71-.71v-7.268c0-.366-.258-.71-.71-.71H10.37v-2.236H30.8v2.236h-4.84c-.366 0-.71.258-.71.71v7.269c0 .365.258.71.71.71h4.84v2.064h-.108z" fill="#E40065" fill-rule="nonzero"/></g></svg>