<svg width="80" height="26" viewBox="0 0 80 26" xmlns="http://www.w3.org/2000/svg"><g fill="none" fill-rule="evenodd"><path d="M56.733 13.734V12.07l-2.14-.001-.002-2.28h-1.913v6.97c0 1.619.985 2.624 2.57 2.624h1.747v-1.741h-1.792c-.473 0-.61-.138-.61-.616v-3.293h2.14zm7.203 3.803a3.85 3.85 0 01-3.849-3.843 3.85 3.85 0 017.698 0 3.85 3.85 0 01-3.85 3.843m0-9.533c-3.266 0-5.924 2.552-5.924 5.69 0 3.138 2.658 5.69 5.925 5.69s5.925-2.552 5.925-5.69c0-3.138-2.658-5.69-5.925-5.69m13.984 0v7.438l-5.43-7.438H71V19.37h1.96l.01-7.619 5.423 7.62h1.495V8.003zm-38.947 11.38V8.004h1.996v11.38h-.001zm9.891-4.052c0 .648-.207 1.182-.616 1.59-.41.407-.946.614-1.592.614-.646 0-1.181-.206-1.592-.612-.409-.405-.616-.94-.616-1.592 0-.647.208-1.181.617-1.588.41-.408.946-.615 1.591-.615.646 0 1.18.208 1.59.617.41.41.618.943.618 1.586zm1.841-3.892h-1.814v.8a3.579 3.579 0 00-.745-.471 3.89 3.89 0 00-1.666-.356c-1.187 0-2.16.363-2.89 1.08-.732.718-1.104 1.668-1.104 2.826 0 .536.094 1.04.28 1.497.186.46.467.88.836 1.247a3.99 3.99 0 001.32.865 4.159 4.159 0 001.558.298c.611 0 1.163-.114 1.643-.337.24-.113.472-.256.678-.427v.922h1.894l.01-7.944zm-15.057.49c0 .539-.196 1.01-.585 1.399a1.915 1.915 0 01-1.397.586h-2.615V9.961h2.615c.538 0 1.008.197 1.398.587.388.37.584.834.584 1.382m1.642-1.526a4.086 4.086 0 00-.843-1.243 4.03 4.03 0 00-1.25-.844 3.814 3.814 0 00-1.53-.313h-4.57v11.38h1.954v-3.512h2.615c.54 0 1.055-.105 1.532-.313a4.028 4.028 0 001.25-.844c.351-.354.635-.775.842-1.252a3.83 3.83 0 00.313-1.533c0-.539-.106-1.052-.313-1.526" fill="#FEFEFE"/><path fill="#F9BE00" d="M9.416 15.633h6.192v-6.2H9.416z"/><path d="M6.444 21.627H18.96c1.45 0 2.629-1.18 2.629-2.632V6.462h-2.88v12.28H6.443v2.885zM18.579 6.324V3.439H6.063A2.633 2.633 0 003.434 6.07v12.533h2.881V6.324h12.264z" fill="#FEFEFE"/><path fill="#06B8DE" d="M21.589 3.439h3.434V0H21.59z"/><path fill="#E40265" d="M0 25.066h3.434v-3.439H0z"/></g></svg>