<svg width="100" height="99" viewBox="0 0 100 99" xmlns="http://www.w3.org/2000/svg"><g fill="none" fill-rule="evenodd"><g fill-rule="nonzero"><path fill="#FBB613" d="M41.952 24.955h16.31v16.267h-16.31z"/><path d="M34.126 56.968h32.982c3.811 0 6.919-3.1 6.919-6.9V17.172H66.45v32.217H34.126v7.58zM66.11 16.81V9.23H33.128c-3.81 0-6.918 3.1-6.918 6.901v32.896h7.576V16.81H66.11z" fill="#1D2337"/><path fill="#00B6DC" d="M74.027.204h9.05V9.23h-9.05z"/><path fill="#EA106E" d="M17.159 56.968h9.05v9.027h-9.05z"/></g><path d="M15.213 81.527h2.047c.394 0 .714.32.714.715v15.749c0 .395-.32.715-.714.715h-2.047a.715.715 0 01-.714-.715V82.242c0-.395.32-.715.714-.715zm-7.831 0a5.726 5.726 0 110 11.453H3.484v5.726H.596V81.527h6.786zm-3.898 8.59h3.874a2.863 2.863 0 100-5.727H3.484v5.726zm29.088-1.983v10.572h-2.888V97.36c-1.021.837-2.37 1.346-3.85 1.346-3.189 0-5.774-2.367-5.774-5.286 0-2.92 2.585-5.286 5.775-5.286a6.07 6.07 0 013.85 1.346v-1.346h2.887zm-6.737 2.643c-1.595 0-2.888 1.183-2.888 2.643 0 1.46 1.293 2.643 2.888 2.643 1.594 0 2.887-1.183 2.887-2.643 0-1.46-1.293-2.643-2.887-2.643zm9.517-5.285h3.476v2.642h3.476v2.643h-3.476v4.571c0 .395.32.715.715.715h2.76v2.643h-4.092a2.859 2.859 0 01-2.859-2.86V85.493zm12.034 7.396c0 .551.106 1.02.316 1.402.21.384.49.694.838.932.348.237.757.414 1.227.529.47.115.955.172 1.457.172.34 0 .704-.027 1.093-.08a3.963 3.963 0 001.093-.31 2.37 2.37 0 00.85-.633c.226-.269.34-.61.34-1.024 0-.444-.15-.804-.45-1.08-.299-.276-.692-.506-1.177-.69a12.246 12.246 0 00-1.652-.483 47.72 47.72 0 01-1.87-.46 17.292 17.292 0 01-1.895-.564 6.624 6.624 0 01-1.651-.862 4.126 4.126 0 01-1.178-1.322c-.3-.53-.45-1.17-.45-1.92 0-.844.191-1.576.571-2.197a5.025 5.025 0 011.494-1.552 6.681 6.681 0 012.089-.92 9.354 9.354 0 012.331-.299c.907 0 1.777.096 2.611.288a6.698 6.698 0 012.223.931c.647.43 1.161.977 1.542 1.644.38.667.57 1.476.57 2.426h-3.691c-.032-.49-.142-.896-.328-1.218a2.08 2.08 0 00-.74-.76 3.237 3.237 0 00-1.057-.39 6.858 6.858 0 00-1.3-.115c-.307 0-.615.03-.923.092a2.548 2.548 0 00-.837.322 2.06 2.06 0 00-.62.575c-.162.23-.243.521-.243.874 0 .322.065.582.195.781.13.2.384.384.765.552.38.169.906.338 1.578.506.672.169 1.55.384 2.636.644.323.062.773.173 1.348.334a6.627 6.627 0 011.712.77 5.04 5.04 0 011.47 1.414c.412.59.618 1.346.618 2.265 0 .752-.153 1.45-.461 2.093a4.59 4.59 0 01-1.372 1.667c-.607.468-1.36.832-2.259 1.093-.899.26-1.939.39-3.12.39-.956 0-1.883-.11-2.782-.333-.898-.222-1.692-.57-2.38-1.046a5.257 5.257 0 01-1.64-1.817c-.404-.736-.598-1.61-.582-2.621h3.691zm24.113-.789h-3.163c-.224-1.035-1.195-1.322-2.398-1.322-1.1 0-2.38.48-2.38 2.643 0 2.188 1.28 2.643 2.38 2.643 1.15 0 2.199-.115 2.398-1.322h3.163c-.362 3.341-2.289 3.965-5.558 3.965-3.177 0-5.564-1.33-5.564-5.286 0-3.955 2.265-5.286 5.56-5.286 3.177 0 5.347 1.14 5.562 3.965zm13.902-3.965v10.572h-2.887V97.36c-1.022.837-2.37 1.346-3.85 1.346-3.19 0-5.775-2.367-5.775-5.286 0-2.92 2.586-5.286 5.775-5.286 1.48 0 2.828.51 3.85 1.346v-1.346H85.4zm-6.737 2.643c-1.595 0-2.887 1.183-2.887 2.643 0 1.46 1.292 2.643 2.887 2.643s2.887-1.183 2.887-2.643c0-1.46-1.292-2.643-2.887-2.643zm20.64 7.929h-3.229v-4.79c0-1.116-.069-1.838-.207-2.166a1.57 1.57 0 00-.672-.764c-.31-.182-.683-.273-1.12-.273-.56 0-1.06.13-1.505.39-.444.26-.749.603-.914 1.032-.164.428-.247 1.22-.247 2.375v4.196h-3.228V88.368h2.999v1.519c1.064-1.169 2.405-1.753 4.021-1.753a5.61 5.61 0 011.953.326c.59.218 1.036.495 1.339.833.302.337.513.72.632 1.148.119.429.178 1.042.178 1.84v6.425z" fill="#1D2337"/></g></svg>