<svg width="40" height="40" viewBox="0 0 40 40" xmlns="http://www.w3.org/2000/svg"><g fill="none"><path d="M32.5 39.756H8.606c-3.117 0-5.585-2.597-5.585-5.779V5.795C3.02 2.614 5.553.016 8.605.016h15.714c.714 0 1.364.26 1.883.65l10.78 8.7a3.211 3.211 0 011.168 2.468v22.143c-.065 3.182-2.532 5.78-5.65 5.78zM8.606 2.484c-1.754 0-3.117 1.493-3.117 3.311v28.182c0 1.818 1.428 3.312 3.117 3.312H32.5c1.753 0 3.117-1.494 3.117-3.312V11.834a.592.592 0 00-.26-.52l-10.714-8.7a.496.496 0 00-.325-.13H8.605z" fill="#E40065"/><path d="M26.722 19.692H9.449c-.65 0-1.234-.585-1.234-1.234 0-.65.585-1.234 1.234-1.234h17.273c.649 0 1.233.584 1.233 1.234s-.584 1.234-1.233 1.234zm0 5.649H9.449c-.65 0-1.234-.585-1.234-1.234 0-.65.585-1.234 1.234-1.234h17.273c.649 0 1.233.585 1.233 1.234 0 .65-.584 1.234-1.233 1.234zm-7.143 6.299H8.929c-.649 0-1.233-.585-1.233-1.234 0-.65.584-1.234 1.233-1.234h10.65c.65 0 1.233.584 1.233 1.234s-.584 1.234-1.233 1.234z" fill="#FFB7D7"/><path d="M36.332 12.938h-7.597a4.074 4.074 0 01-4.091-4.09V1.64h2.467v7.207c0 .91.714 1.624 1.624 1.624h7.597v2.467z" fill="#E40065"/></g></svg>