<svg width="40" height="40" viewBox="0 0 40 40" xmlns="http://www.w3.org/2000/svg"><g fill="none"><path d="M36.144 2.016H3.669a3.665 3.665 0 00-3.661 3.66v28.942a3.665 3.665 0 003.661 3.662h32.478a3.665 3.665 0 003.662-3.662V5.677a3.673 3.673 0 00-3.665-3.661zM2.74 13.042h34.33v21.572c0 .51-.416.93-.93.93H3.67a.934.934 0 01-.929-.93V13.042zm.93-8.29h32.477c.51 0 .93.416.93.929v4.629H2.74V5.677c0-.51.42-.925.93-.925z" fill="#E40065"/><path d="M25.202 29.795c0 .35.132.68.381.929l.004.003c.249.25.575.381.929.381.35 0 .68-.136.929-.384l5.515-5.508c.51-.51.51-1.345 0-1.854l-5.515-5.515a1.287 1.287 0 00-.914-.37 1.313 1.313 0 00-.94 2.231l4.578 4.579-4.582 4.579a1.303 1.303 0 00-.385.929zm-7.87 3.463l.007.004a1.3 1.3 0 00.365.054 1.32 1.32 0 001.26-.948l4.404-15.427a1.289 1.289 0 00-.113-.995 1.295 1.295 0 00-.781-.626h-.004a1.386 1.386 0 00-.377-.058c-.568 0-1.08.38-1.244.925-.004.008-.004.023-.008.031l-4.408 15.419a1.29 1.29 0 00.113.995 1.3 1.3 0 00.785.626zm-4.968-2.53c.249.248.575.38.929.38.35 0 .68-.136.933-.384a1.316 1.316 0 000-1.854l-4.587-4.58 4.583-4.586a1.313 1.313 0 00-.945-2.223c-.346 0-.664.132-.913.373l-5.512 5.504a1.316 1.316 0 000 1.854l5.512 5.515z" fill="#FFB7D7"/></g></svg>