<svg width="40" height="40" viewBox="0 0 40 40" xmlns="http://www.w3.org/2000/svg"><g fill="none"><path d="M5.333 39.833L5 5h30v34.667l-14.5-4.334c-.333-.166-.667-.166-1.167 0l-14 4.5zm2.5-32L8.167 36l10.5-3.5c1-.333 2-.333 2.833 0l10.667 3.333v-28H7.833z" fill="#E40065"/><path d="M3.167 1.5H37c1 0 1.667.667 1.667 1.667v2.166C38.667 6.333 38 7 37 7H3.167c-1 0-1.667-.667-1.667-1.667V3.167c0-1 .667-1.667 1.667-1.667z" fill="#FFF"/><path d="M37 8.333H3.167C1.333 8.333 0 7 0 5.167v-2C0 1.333 1.333 0 3.167 0H37c1.667 0 3 1.333 3 3.167v2.166c0 1.667-1.333 3-3 3zm-33.833-5.5C3 2.833 3 3 3 3v2.167c0 .166.167.166.167.166H37c.167 0 .333-.166.333-.166v-2C37.333 3 37.167 3 37 3H3.167v-.167z" fill="#E40065"/><path fill="#C6C6C9" d="M12.5 14.167h10v1.666h-10z"/><path fill="#FFB7D7" d="M11.667 13.333h11.666v3.334H11.667z"/><path fill="#C6C6C9" d="M12.5 20.833h15V22.5h-15z"/><path fill="#FFB7D7" d="M11.667 20h16.666v3.333H11.667z"/></g></svg>